{"glyphs":{"0":{"ha":924,"x_min":82,"x_max":842,"o":"m 82 408 q 107 579 82 501 q 180 713 132 658 q 462 831 282 831 q 743 713 642 831 q 842 406 842 600 q 737 100 842 216 q 458 -17 632 -17 q 183 102 287 -17 q 82 408 82 219 m 363 148 q 461 121 403 121 q 559 145 520 121 q 623 208 599 169 q 669 405 669 283 q 557 670 669 602 q 460 694 517 694 q 364 670 403 694 q 301 606 325 646 q 256 406 256 532 q 363 148 256 218 z "},"1":{"ha":576,"x_min":43,"x_max":411,"o":"m 245 637 q 158 603 202 612 q 98 594 113 594 q 76 597 83 594 q 62 606 68 601 q 49 638 56 615 q 43 679 43 662 q 54 707 43 696 q 95 724 65 718 q 216 760 183 742 q 263 789 248 778 q 292 808 279 800 q 348 825 319 825 q 394 807 376 825 q 411 757 411 789 l 411 43 q 400 13 411 25 q 374 0 389 0 l 280 0 q 255 13 264 0 q 245 43 245 25 l 245 637 z "},"2":{"ha":810,"x_min":87,"x_max":723,"o":"m 97 88 q 102 131 97 122 q 134 158 108 145 q 202 196 161 172 q 288 252 244 221 q 375 319 332 283 q 452 396 418 356 q 527 562 527 484 q 479 662 527 628 q 402 688 440 688 q 339 682 363 688 q 293 664 315 676 q 226 589 244 637 q 175 547 210 547 q 159 548 168 547 q 131 553 151 549 q 87 602 87 560 q 100 674 87 643 q 136 729 113 705 q 190 773 159 754 q 254 805 220 792 q 374 831 322 831 q 460 826 426 831 q 528 809 495 821 q 592 778 562 797 q 646 730 623 758 q 696 576 696 668 q 568 315 696 434 q 441 213 502 251 l 319 138 l 682 146 q 716 134 709 147 q 723 100 723 121 l 723 39 q 711 8 723 16 q 676 1 699 1 l 144 1 q 110 9 122 1 q 97 42 97 18 l 97 88 z "},"3":{"ha":810,"x_min":64,"x_max":709,"o":"m 101 18 q 150 39 123 53 q 176 23 158 35 q 219 0 195 12 q 267 -18 243 -11 q 354 -29 311 -29 q 429 -21 397 -29 q 486 5 460 -13 q 545 117 545 45 q 484 220 545 183 q 336 254 427 254 q 275 250 294 254 q 244 246 252 246 q 229 256 237 246 q 218 278 222 265 q 210 320 210 302 q 216 351 210 339 q 241 367 222 363 q 490 496 438 411 q 509 563 509 528 q 497 619 509 597 q 465 654 486 640 q 366 684 425 684 q 287 666 319 684 q 218 588 228 633 q 176 556 210 556 q 124 562 142 556 q 96 576 106 568 q 79 623 79 591 q 93 684 79 654 q 129 737 106 713 q 181 778 151 760 q 244 807 211 795 q 373 831 310 831 q 489 816 435 831 q 583 770 542 801 q 675 583 675 703 q 598 412 675 483 q 464 337 545 364 q 642 272 572 337 q 709 129 709 209 q 680 -7 709 48 q 605 -100 651 -62 q 385 -178 509 -178 q 97 -95 198 -178 q 64 -53 64 -69 q 72 -26 64 -37 l 101 18 z "},"4":{"ha":804,"x_min":59,"x_max":795,"o":"m 755 200 q 795 164 795 200 l 795 127 q 786 99 795 108 q 753 85 777 90 l 654 65 l 654 -119 q 643 -150 654 -138 q 614 -161 632 -161 l 534 -161 q 505 -149 515 -161 q 494 -115 494 -136 l 494 64 l 158 64 q 86 88 113 64 q 59 152 59 113 q 77 227 59 179 l 122 350 q 254 800 214 609 q 309 848 265 848 q 387 832 335 848 q 420 770 429 819 q 366 571 406 688 q 226 200 271 302 l 494 200 l 494 454 q 511 490 494 478 q 549 503 527 503 l 605 503 q 643 488 632 503 q 654 456 654 473 l 654 200 l 755 200 z "},"5":{"ha":809,"x_min":63,"x_max":758,"o":"m 297 404 q 467 450 364 450 q 670 373 589 450 q 758 149 758 290 q 656 -90 758 0 q 390 -178 556 -178 q 165 -125 262 -178 q 83 -61 124 -104 q 87 -6 63 -40 l 115 34 q 148 59 131 59 q 171 53 164 59 q 189 39 178 46 q 401 -31 271 -31 q 531 14 479 -31 q 587 147 587 61 q 535 274 587 224 q 426 319 488 319 q 285 273 340 319 q 228 251 259 251 q 212 253 220 251 q 191 256 204 254 q 168 260 178 258 q 152 267 158 262 q 142 301 142 276 l 142 739 q 152 791 142 779 q 205 812 168 812 l 651 812 q 686 806 674 812 q 698 777 698 800 l 698 711 q 693 680 698 686 q 655 667 684 667 l 297 667 l 297 404 z "},"6":{"ha":809,"x_min":64,"x_max":758,"o":"m 418 -17 q 267 15 334 -17 q 155 106 200 46 q 64 445 64 224 q 85 670 64 589 q 135 804 106 750 q 208 897 163 857 q 474 984 307 984 q 639 951 556 984 q 707 911 690 931 q 724 877 724 892 q 710 841 724 861 l 694 818 q 651 781 670 781 q 608 799 632 780 q 452 839 556 839 q 274 736 333 839 q 222 509 225 652 q 404 606 281 587 q 480 611 435 611 q 579 592 524 611 q 673 536 633 573 q 758 323 758 458 q 671 87 758 183 q 418 -17 577 -17 m 598 307 q 418 467 598 467 q 319 445 363 467 q 227 377 245 408 l 227 376 q 285 186 227 251 q 425 126 337 126 q 547 173 498 126 q 598 307 598 223 z "},"7":{"ha":692,"x_min":34,"x_max":642,"o":"m 100 661 q 34 718 34 661 l 34 768 q 41 802 34 790 q 75 814 49 814 l 587 814 q 627 795 612 814 q 642 752 642 777 q 625 673 642 727 q 527 385 541 424 l 505 324 q 320 -62 404 54 q 177 -178 236 -178 q 132 -156 151 -178 l 102 -121 q 89 -91 89 -106 q 118 -44 89 -65 q 177 11 146 -23 q 237 94 207 45 q 352 345 297 190 l 406 495 q 454 661 435 578 l 100 661 z "},"8":{"ha":809,"x_min":63,"x_max":747,"o":"m 170 52 q 92 137 121 86 q 63 245 63 187 q 77 342 63 302 q 115 414 92 382 q 232 512 157 471 q 238 515 235 514 q 240 519 240 516 q 226 529 240 522 q 186 553 212 536 q 138 595 160 570 q 90 729 90 651 q 197 928 90 861 q 407 984 285 984 q 626 922 540 984 q 721 739 721 855 q 625 533 721 609 q 580 504 597 512 q 563 493 563 496 q 585 483 563 491 q 639 455 608 475 q 694 406 670 434 q 747 273 747 343 q 718 150 747 202 q 640 60 688 97 q 408 -17 541 -17 q 170 52 267 -17 m 434 554 q 562 715 562 608 q 515 811 562 775 q 408 844 473 844 q 264 770 304 844 q 251 717 251 747 q 265 664 251 688 q 304 621 279 641 q 434 554 351 582 m 222 271 q 237 206 222 234 q 279 160 253 178 q 412 125 330 125 q 571 206 529 125 q 585 268 585 233 q 565 332 585 304 q 513 382 545 361 q 360 444 460 416 q 269 388 310 433 q 222 271 222 336 z "},"9":{"ha":809,"x_min":39,"x_max":732,"o":"m 100 5 q 131 30 116 30 q 166 17 146 30 q 207 -6 186 3 q 250 -21 228 -15 q 345 -34 296 -34 q 438 -11 394 -34 q 511 50 482 12 q 571 251 564 122 q 404 191 511 207 q 327 187 373 187 q 226 210 281 187 q 129 274 170 232 q 39 512 39 364 q 141 742 39 652 q 385 830 239 830 q 713 543 656 830 q 732 370 732 453 q 724 226 732 287 q 699 107 717 165 q 651 -3 681 50 q 576 -94 621 -55 q 329 -180 479 -180 q 141 -134 233 -180 q 60 -62 60 -95 q 68 -41 60 -51 l 100 5 m 566 382 q 375 687 566 687 q 250 639 298 687 q 199 510 199 588 q 302 340 199 380 q 382 326 337 326 q 566 382 497 326 z "},"\u0000":{"ha":0,"x_min":0,"x_max":0,"o":""},"\r":{"ha":345,"x_min":0,"x_max":0,"o":""},"\u0001":{"ha":0,"x_min":0,"x_max":0,"o":""},"\u0002":{"ha":0,"x_min":0,"x_max":0,"o":""},"\u0003":{"ha":0,"x_min":0,"x_max":0,"o":""},"\u0004":{"ha":0,"x_min":0,"x_max":0,"o":""},"\u0005":{"ha":0,"x_min":0,"x_max":0,"o":""},"\u0006":{"ha":0,"x_min":0,"x_max":0,"o":""},"\u0007":{"ha":0,"x_min":0,"x_max":0,"o":""},"\b":{"ha":0,"x_min":0,"x_max":0,"o":""},"\t":{"ha":0,"x_min":0,"x_max":0,"o":""},"\u0010":{"ha":0,"x_min":0,"x_max":0,"o":""},"\u0011":{"ha":0,"x_min":0,"x_max":0,"o":""},"\u0012":{"ha":0,"x_min":0,"x_max":0,"o":""},"\u0013":{"ha":0,"x_min":0,"x_max":0,"o":""},"\u0014":{"ha":0,"x_min":0,"x_max":0,"o":""},"\u0015":{"ha":0,"x_min":0,"x_max":0,"o":""},"\u0016":{"ha":0,"x_min":0,"x_max":0,"o":""},"\u0017":{"ha":0,"x_min":0,"x_max":0,"o":""},"\u0018":{"ha":0,"x_min":0,"x_max":0,"o":""},"\u0019":{"ha":0,"x_min":0,"x_max":0,"o":""}," ":{"ha":348,"x_min":0,"x_max":0,"o":""},"!":{"ha":464,"x_min":119,"x_max":351,"o":"m 208 347 q 182 360 193 347 q 171 390 171 372 l 136 1036 q 148 1066 136 1053 q 174 1078 159 1078 l 290 1078 q 317 1066 307 1078 q 327 1036 328 1053 l 300 390 q 289 360 300 372 q 262 347 278 347 l 208 347 m 119 102 q 153 186 119 151 q 235 220 186 220 q 317 186 283 220 q 351 102 351 151 q 317 18 351 54 q 235 -17 283 -17 q 153 18 187 -17 q 119 102 119 54 z "},"\"":{"ha":577,"x_min":67,"x_max":511,"o":"m 132 739 q 110 750 119 739 q 100 777 102 761 l 68 1126 q 76 1153 67 1142 q 99 1164 85 1164 l 206 1164 q 231 1153 222 1164 q 239 1126 240 1142 l 210 777 q 199 750 208 761 q 176 739 190 739 l 132 739 m 403 739 q 381 750 389 739 q 371 777 372 761 l 339 1126 q 347 1153 338 1142 q 370 1164 355 1164 l 477 1164 q 502 1153 492 1164 q 509 1126 511 1142 l 480 777 q 470 750 479 761 q 446 739 460 739 l 403 739 z "},"#":{"ha":924,"x_min":38,"x_max":867,"o":"m 177 252 l 75 252 q 48 261 59 252 q 38 283 38 269 l 38 341 q 47 364 38 355 q 72 374 56 374 l 197 374 l 236 606 l 113 606 q 87 615 98 606 q 77 637 77 623 l 77 695 q 86 718 77 709 q 111 728 96 728 l 256 728 l 290 929 q 330 962 296 962 l 395 962 q 423 950 414 962 q 429 922 432 938 l 397 728 l 592 728 l 626 929 q 666 962 631 962 l 730 962 q 759 950 749 962 q 765 922 768 938 l 732 728 l 829 728 q 856 719 845 728 q 867 695 867 711 l 867 644 q 858 616 867 627 q 833 606 848 606 l 712 606 l 673 374 l 790 374 q 817 365 806 374 q 829 341 829 357 l 829 290 q 819 262 829 273 q 794 252 810 252 l 653 252 l 622 64 q 581 31 616 31 l 517 31 q 489 43 498 31 q 483 71 480 56 l 513 252 l 317 252 l 286 64 q 245 31 281 31 l 181 31 q 153 43 162 31 q 147 71 144 56 l 177 252 m 533 374 l 572 606 l 376 606 l 338 374 l 533 374 z "},"$":{"ha":694,"x_min":37,"x_max":645,"o":"m 271 -13 q 48 79 123 6 q 37 100 37 89 q 47 132 37 112 l 71 180 q 106 203 81 203 q 158 186 129 203 q 208 160 187 169 q 320 131 270 131 q 399 139 371 131 q 446 161 427 146 q 488 254 488 194 q 374 380 488 329 q 300 409 342 394 q 213 452 259 425 q 131 515 167 479 q 50 705 50 597 q 118 870 50 802 q 278 951 180 932 l 278 1112 q 289 1142 278 1129 q 317 1155 300 1155 l 385 1155 q 412 1142 401 1155 q 422 1112 422 1129 l 422 952 q 578 892 507 939 q 605 871 593 883 q 618 849 618 860 q 600 792 618 827 q 551 736 570 736 q 527 746 542 736 q 343 810 442 810 q 220 751 250 810 q 210 702 210 730 q 225 651 210 673 q 265 611 241 629 q 319 581 289 594 l 376 556 q 556 450 493 508 q 645 262 645 370 q 576 81 645 157 q 416 -9 513 12 l 416 -170 q 405 -200 416 -188 q 377 -213 393 -213 l 309 -213 q 282 -200 293 -213 q 271 -170 271 -187 l 271 -13 z "},"%":{"ha":1385,"x_min":64,"x_max":1333,"o":"m 326 544 q 219 564 268 544 q 136 621 170 585 q 64 820 64 697 q 140 1019 64 941 q 328 1094 214 1094 q 524 1019 454 1094 q 591 820 591 946 q 515 620 591 697 q 326 544 440 544 m 271 674 q 330 662 296 662 q 388 674 364 662 q 427 707 412 686 q 456 818 456 747 q 389 962 456 924 q 328 977 364 977 q 268 963 292 977 q 229 926 244 949 q 201 814 201 883 q 271 674 201 711 m 805 263 q 825 375 805 324 q 882 461 846 425 q 1069 536 956 536 q 1265 461 1196 536 q 1333 262 1333 389 q 1256 62 1333 140 q 1069 -14 1181 -14 q 877 64 950 -14 q 805 263 805 140 m 970 369 q 963 357 970 369 q 949 316 956 346 q 942 257 942 287 q 949 199 942 227 q 972 151 957 172 q 1071 104 1008 104 q 1197 260 1197 104 q 1130 405 1197 366 q 1069 419 1105 419 q 1009 405 1034 419 q 970 369 985 391 m 301 19 q 281 47 281 32 q 289 73 281 62 l 992 1073 q 1025 1094 1006 1094 q 1044 1088 1036 1094 l 1094 1057 q 1109 1031 1109 1047 q 1101 1004 1109 1015 l 400 3 q 372 -20 382 -20 q 341 -9 355 -20 l 301 19 z "},"&":{"ha":923,"x_min":101,"x_max":866,"o":"m 762 424 q 796 289 796 359 q 767 162 796 219 q 687 64 737 104 q 432 -20 583 -20 q 210 38 305 -20 q 101 227 101 106 q 216 432 101 355 q 286 469 250 454 q 116 612 159 501 q 101 711 101 651 q 131 824 101 770 q 208 914 160 878 q 431 989 304 989 q 718 906 612 989 q 749 863 748 882 q 743 840 749 849 l 701 781 q 664 756 685 756 q 637 767 651 756 q 601 791 623 777 q 555 816 579 805 q 456 840 500 840 q 381 832 411 840 q 327 809 351 825 q 273 704 273 773 q 355 589 273 631 q 511 554 425 554 l 828 554 q 866 522 866 554 l 866 453 q 855 432 866 439 q 828 424 844 424 l 762 424 m 293 317 q 274 247 274 282 q 288 189 274 211 q 323 153 301 168 q 422 123 370 123 q 513 136 475 123 q 579 174 551 149 q 641 319 641 227 q 610 416 641 382 q 601 427 604 423 q 587 428 593 428 l 572 428 q 293 317 355 428 z "},"'":{"ha":347,"x_min":87,"x_max":260,"o":"m 152 739 q 130 750 138 739 q 120 777 121 761 l 88 1126 q 96 1153 87 1142 q 119 1164 104 1164 l 226 1164 q 251 1153 241 1164 q 258 1126 260 1142 l 229 777 q 219 750 228 761 q 195 739 210 739 l 152 739 z "},"(":{"ha":579,"x_min":111,"x_max":488,"o":"m 453 -200 q 444 -209 453 -200 q 424 -222 434 -218 q 397 -227 414 -227 q 360 -204 381 -227 q 174 140 240 -66 q 111 538 111 334 q 256 1116 111 850 q 375 1282 307 1208 q 406 1297 390 1297 q 455 1278 435 1297 q 488 1224 488 1246 q 469 1181 488 1202 q 278 705 313 1016 q 268 528 268 616 q 281 352 268 441 q 317 180 294 262 q 456 -100 368 9 q 483 -146 483 -132 q 477 -171 483 -161 q 453 -200 472 -182 z "},")":{"ha":579,"x_min":91,"x_max":468,"o":"m 126 -200 q 136 -209 126 -200 q 155 -222 145 -218 q 182 -227 165 -227 q 219 -204 198 -227 q 406 140 339 -66 q 468 538 468 334 q 323 1116 468 850 q 204 1282 273 1208 q 174 1297 189 1297 q 124 1278 144 1297 q 91 1224 91 1246 q 110 1181 91 1202 q 301 705 266 1016 q 311 528 311 616 q 298 352 311 441 q 262 180 286 262 q 123 -100 211 9 q 96 -146 96 -132 q 102 -171 96 -161 q 126 -200 107 -182 z "},"*":{"ha":924,"x_min":68,"x_max":856,"o":"m 809 997 q 856 951 856 997 l 856 903 q 819 856 856 866 q 803 853 810 853 q 793 854 795 853 l 532 883 l 697 672 q 707 644 707 658 q 682 600 707 616 l 637 572 q 616 567 629 567 q 570 600 584 567 l 463 844 l 359 597 q 313 564 345 564 q 283 572 298 564 l 242 595 q 220 630 220 608 q 229 665 220 652 l 394 886 l 127 854 q 117 854 125 854 q 101 856 110 854 q 85 863 92 858 q 68 897 68 875 l 68 957 q 83 987 68 977 q 112 998 97 998 l 117 998 l 393 966 l 220 1182 q 212 1206 212 1192 q 235 1251 212 1236 l 278 1276 q 309 1286 295 1286 q 354 1253 339 1286 l 460 1006 l 570 1259 q 615 1284 581 1284 q 661 1268 630 1284 q 699 1240 691 1251 q 707 1215 707 1229 q 696 1185 707 1200 l 532 962 l 795 996 q 802 997 799 997 q 809 997 806 997 z "},"+":{"ha":924,"x_min":90,"x_max":835,"o":"m 127 345 q 100 354 111 345 q 90 378 90 364 l 90 442 q 100 465 90 456 q 127 475 111 475 l 394 475 l 394 736 q 404 762 394 751 q 427 773 414 773 l 498 773 q 521 762 511 773 q 530 736 530 751 l 530 475 l 797 475 q 824 465 812 475 q 835 439 835 454 l 835 382 q 824 355 835 365 q 797 345 812 345 l 530 345 l 530 79 q 520 53 530 64 q 494 41 510 41 l 431 41 q 404 53 414 41 q 394 79 394 64 l 394 345 l 127 345 z "},",":{"ha":348,"x_min":43,"x_max":288,"o":"m 65 68 q 58 108 58 86 q 66 151 58 130 q 90 187 75 172 q 159 220 121 220 q 220 209 197 220 q 258 176 242 197 q 288 82 288 135 q 279 -12 288 29 q 254 -92 269 -54 q 174 -225 224 -163 l 160 -241 q 112 -275 130 -275 q 80 -264 94 -275 l 56 -243 q 43 -221 43 -233 q 62 -182 43 -202 q 96 -136 81 -162 q 122 -87 112 -111 q 143 -3 140 -42 q 65 68 87 12 z "},"-":{"ha":809,"x_min":161,"x_max":648,"o":"m 198 345 q 172 354 182 345 q 161 378 161 364 l 161 442 q 172 465 161 456 q 198 475 182 475 l 610 475 q 637 465 626 475 q 648 441 648 455 l 648 377 q 637 354 648 363 q 610 345 626 345 l 198 345 z "},".":{"ha":348,"x_min":58,"x_max":290,"o":"m 58 102 q 92 186 58 151 q 175 220 126 220 q 256 186 223 220 q 290 102 290 151 q 256 18 290 54 q 175 -17 222 -17 q 92 18 127 -17 q 58 102 58 54 z "},"/":{"ha":578,"x_min":102,"x_max":528,"o":"m 386 1076 q 427 1104 393 1104 q 437 1103 434 1104 l 495 1091 q 528 1053 528 1084 q 526 1042 528 1048 l 238 -60 q 199 -88 231 -88 l 193 -88 q 187 -87 191 -88 l 133 -72 q 102 -31 102 -64 q 104 -15 102 -22 l 386 1076 z "},":":{"ha":347,"x_min":54,"x_max":286,"o":"m 54 102 q 87 186 54 151 q 170 220 121 220 q 252 186 218 220 q 286 102 286 151 q 252 18 286 54 q 170 -17 218 -17 q 87 18 122 -17 q 54 102 54 54 m 54 635 q 87 718 54 683 q 170 753 121 753 q 252 718 218 753 q 286 635 286 683 q 252 551 286 586 q 170 515 218 515 q 87 551 122 515 q 54 635 54 586 z "},";":{"ha":348,"x_min":45,"x_max":290,"o":"m 53 635 q 87 718 53 683 q 170 753 121 753 q 251 718 218 753 q 285 635 285 683 q 251 551 285 586 q 170 515 217 515 q 87 551 121 515 q 53 635 53 586 m 67 68 q 60 108 60 86 q 68 151 60 130 q 92 187 77 172 q 161 220 123 220 q 222 209 199 220 q 260 176 244 197 q 290 82 290 135 q 281 -12 290 29 q 256 -92 271 -54 q 176 -225 226 -163 l 162 -241 q 114 -275 132 -275 q 82 -264 96 -275 l 58 -243 q 45 -221 45 -233 q 64 -182 45 -202 q 98 -136 83 -162 q 124 -87 114 -111 q 145 -3 142 -42 q 67 68 89 12 z "},"<":{"ha":925,"x_min":101,"x_max":796,"o":"m 149 322 q 101 396 101 342 q 151 472 101 449 l 709 724 q 738 731 725 731 q 774 705 765 731 l 791 664 q 796 637 796 650 q 764 595 796 608 l 291 399 l 753 208 q 787 165 785 194 q 782 144 787 156 l 764 102 q 726 73 751 73 q 697 81 713 73 l 149 322 z "},"=":{"ha":924,"x_min":106,"x_max":818,"o":"m 144 492 q 117 502 128 492 q 106 526 106 512 l 106 593 q 117 616 106 607 q 144 626 128 626 l 780 626 q 807 616 795 626 q 818 590 818 606 l 818 530 q 807 503 818 513 q 780 492 795 492 l 144 492 m 144 187 q 117 197 128 187 q 106 220 106 207 l 106 288 q 117 311 106 302 q 144 321 128 321 l 780 321 q 807 311 795 321 q 818 285 818 300 l 818 224 q 807 197 818 208 q 780 187 795 187 l 144 187 z "},">":{"ha":925,"x_min":129,"x_max":824,"o":"m 777 322 q 824 396 824 342 q 774 472 824 449 l 216 724 q 187 731 200 731 q 151 705 160 731 l 134 664 q 129 637 129 650 q 161 595 129 608 l 634 399 l 172 208 q 138 165 140 194 q 143 144 138 156 l 161 102 q 199 73 174 73 q 228 81 212 73 l 777 322 z "},"?":{"ha":813,"x_min":91,"x_max":722,"o":"m 164 748 q 91 830 91 748 q 177 1023 91 951 q 395 1094 262 1094 q 643 1005 557 1094 q 722 781 722 923 q 613 513 722 636 q 372 346 518 407 q 354 341 361 341 q 341 343 347 341 q 329 352 336 345 q 302 393 313 368 q 291 432 291 418 q 307 459 291 446 q 347 488 322 473 q 457 571 425 536 q 507 633 490 606 q 533 685 524 660 q 551 769 551 730 q 542 841 551 809 q 514 897 533 872 q 399 954 471 954 q 249 807 249 954 q 244 766 249 776 q 207 748 235 748 l 164 748 m 260 102 q 294 186 260 151 q 376 220 328 220 q 458 186 425 220 q 492 102 492 151 q 458 18 492 54 q 376 -17 424 -17 q 294 18 328 -17 q 260 102 260 54 z "},"@":{"ha":1154,"x_min":81,"x_max":1088,"o":"m 908 500 q 911 554 911 519 q 890 629 911 589 q 831 696 869 669 q 625 752 755 752 q 357 651 471 752 q 224 322 224 534 q 367 -22 224 102 q 575 -118 452 -97 q 657 -125 613 -125 q 738 -120 701 -125 q 803 -107 776 -115 q 850 -92 831 -100 q 882 -76 869 -83 l 906 -64 q 926 -58 917 -58 q 957 -84 944 -58 l 979 -130 q 985 -153 985 -143 q 965 -180 985 -168 q 919 -205 945 -193 q 855 -229 893 -218 q 682 -258 762 -258 q 548 -248 603 -258 q 441 -220 493 -239 q 127 73 216 -140 q 81 298 81 183 q 103 491 81 414 q 162 632 125 569 q 252 742 200 694 q 362 822 303 790 q 617 887 481 887 q 932 800 817 887 q 1050 554 1050 711 q 1023 397 1050 481 l 1043 342 q 1088 131 1088 217 q 1053 95 1088 95 l 987 95 q 955 105 960 95 q 949 124 949 116 q 947 145 948 133 q 935 217 942 178 q 768 89 882 120 q 680 78 728 78 q 584 94 632 78 q 498 141 536 110 q 414 326 414 212 q 505 518 414 453 q 701 572 579 572 q 908 500 823 572 m 633 419 q 620 408 633 419 q 594 378 606 398 q 582 330 582 357 q 592 281 582 302 q 620 245 602 260 q 703 216 656 216 q 779 227 749 216 q 831 255 809 238 q 878 332 878 292 q 822 412 873 383 q 711 439 774 439 q 633 419 661 439 z "},"A":{"ha":1042,"x_min":46,"x_max":996,"o":"m 86 0 q 56 13 66 0 q 46 34 46 25 q 48 49 46 43 l 391 970 q 465 1038 414 1030 q 507 1040 482 1040 l 518 1040 q 582 1028 564 1040 q 626 972 610 1010 l 994 48 q 996 33 996 43 q 988 12 996 23 q 961 0 980 0 l 866 0 q 823 29 835 0 l 739 250 l 293 250 l 215 29 q 174 0 205 0 l 86 0 m 682 396 l 519 837 q 511 844 517 844 q 503 837 505 844 l 346 396 l 682 396 z "},"B":{"ha":1031,"x_min":161,"x_max":941,"o":"m 161 981 q 190 1035 161 1021 q 214 1040 199 1040 l 529 1040 q 755 983 662 1040 q 869 778 869 916 q 815 621 869 684 q 690 550 766 565 l 690 547 q 863 487 794 543 q 941 312 941 422 q 823 71 941 152 q 545 0 721 0 l 214 0 q 174 17 186 0 q 161 58 161 35 l 161 981 m 330 597 q 494 602 433 597 q 648 648 599 608 q 696 761 696 688 q 645 865 696 833 q 490 897 593 897 l 330 897 l 330 597 m 544 144 q 742 229 693 144 q 760 302 760 260 q 749 370 760 345 q 718 412 737 395 q 671 440 698 430 q 616 457 645 451 q 514 467 565 467 q 379 463 450 467 l 330 461 l 330 144 l 544 144 z "},"C":{"ha":924,"x_min":75,"x_max":891,"o":"m 891 819 q 817 735 891 735 l 770 735 q 736 751 748 735 q 723 795 724 767 q 705 847 721 823 q 665 884 690 870 q 545 911 620 911 q 414 879 469 911 q 324 795 358 848 q 259 530 259 696 q 453 156 259 233 q 570 133 513 133 q 751 170 673 133 l 789 188 q 822 196 808 196 q 845 189 836 196 q 867 157 854 182 q 880 113 880 132 q 867 76 880 94 q 836 45 854 58 q 755 9 802 23 q 556 -17 670 -17 q 352 24 441 -17 q 201 139 262 66 q 75 530 75 288 q 202 911 75 769 q 559 1058 332 1058 q 780 1002 684 1058 q 891 819 891 939 z "},"D":{"ha":1040,"x_min":161,"x_max":970,"o":"m 161 981 q 177 1022 161 1004 q 222 1040 193 1040 l 437 1040 q 841 907 705 1040 q 970 543 970 779 q 825 145 970 290 q 425 0 680 0 l 222 0 q 177 18 193 0 q 161 60 161 36 l 161 981 m 457 890 l 423 890 q 332 888 401 890 l 332 150 l 442 148 l 446 148 q 769 374 709 148 q 789 537 789 448 q 767 691 789 626 q 704 800 746 755 q 457 890 619 890 z "},"E":{"ha":924,"x_min":159,"x_max":832,"o":"m 159 996 q 170 1027 159 1014 q 197 1040 181 1040 l 793 1040 q 820 1028 810 1040 q 829 1001 829 1017 l 829 928 q 820 901 829 912 q 793 890 810 890 l 329 890 l 329 593 l 698 593 q 725 582 715 593 q 734 554 734 570 l 734 481 q 725 454 734 465 q 698 443 715 443 l 329 443 l 329 150 l 796 150 q 823 139 814 150 q 832 111 832 127 l 832 38 q 823 11 832 22 q 796 0 814 0 l 196 0 q 170 13 180 0 q 159 43 159 26 l 159 996 z "},"F":{"ha":807,"x_min":160,"x_max":785,"o":"m 160 996 q 171 1027 160 1014 q 198 1040 182 1040 l 749 1040 q 775 1028 766 1040 q 785 1001 785 1017 l 785 927 q 775 900 785 911 q 749 889 766 889 l 330 889 l 330 552 l 667 552 q 694 541 685 552 q 703 513 703 529 l 703 440 q 694 413 703 425 q 667 402 685 402 l 330 402 l 330 43 q 318 13 330 26 q 292 0 307 0 l 197 0 q 171 13 182 0 q 160 43 160 26 l 160 996 z "},"G":{"ha":1040,"x_min":94,"x_max":975,"o":"m 224 128 q 193 163 224 128 q 129 300 163 199 q 94 528 94 402 q 130 751 94 653 q 229 916 165 848 q 582 1057 362 1057 q 865 972 760 1057 q 931 894 910 936 q 953 829 953 852 q 952 793 953 806 q 944 766 951 779 q 880 736 927 736 l 822 736 q 795 747 802 736 q 785 784 788 761 q 772 827 783 806 q 738 867 762 848 q 591 909 682 909 q 444 881 500 909 q 350 801 387 852 q 277 531 277 700 q 343 256 277 362 q 570 135 420 135 q 770 222 732 135 q 782 272 782 248 q 775 319 782 296 q 751 365 768 343 q 638 435 713 416 q 599 455 616 440 q 582 498 582 471 l 582 522 q 593 546 582 536 q 619 555 604 555 l 937 555 q 975 522 975 555 l 975 448 q 963 427 975 435 q 937 418 952 418 l 838 418 q 939 305 913 385 q 948 246 948 276 q 940 188 948 216 q 913 132 932 160 q 866 76 895 103 q 793 28 836 50 q 578 -17 699 -17 q 372 20 458 -17 q 224 128 286 58 z "},"H":{"ha":1152,"x_min":153,"x_max":999,"o":"m 153 996 q 164 1027 153 1014 q 191 1040 176 1040 l 286 1040 q 313 1027 302 1040 q 323 996 323 1014 l 323 591 l 829 591 l 829 996 q 840 1027 829 1014 q 867 1040 851 1040 l 962 1040 q 988 1027 977 1040 q 999 996 999 1014 l 999 44 q 988 14 999 26 q 961 1 977 1 l 866 1 q 840 14 850 1 q 829 44 829 26 l 829 441 l 323 441 l 323 43 q 312 13 323 26 q 286 0 301 0 l 191 0 q 164 13 175 0 q 153 43 153 26 l 153 996 z "},"I":{"ha":463,"x_min":146,"x_max":317,"o":"m 146 996 q 158 1027 146 1014 q 184 1040 169 1040 l 279 1040 q 306 1027 295 1040 q 317 996 317 1014 l 317 43 q 306 13 317 26 q 279 0 294 0 l 184 0 q 157 13 168 0 q 146 43 146 26 l 146 996 z "},"J":{"ha":576,"x_min":21,"x_max":452,"o":"m 164 123 q 283 317 283 123 l 283 996 q 294 1027 283 1014 q 319 1040 304 1040 l 417 1040 q 442 1027 432 1040 q 452 996 452 1014 l 452 280 q 378 52 452 130 q 196 -18 312 -18 q 86 -2 123 -18 q 35 27 49 13 q 21 55 21 41 q 24 81 21 70 l 31 101 q 66 145 44 145 q 81 142 72 145 l 102 134 q 164 123 133 123 z "},"K":{"ha":925,"x_min":146,"x_max":937,"o":"m 861 144 l 888 145 q 925 119 918 145 q 933 89 929 103 q 937 58 937 75 q 927 28 937 41 q 901 7 917 16 q 666 56 793 -51 q 441 341 562 142 l 347 504 q 385 575 363 537 q 533 803 477 729 q 720 1017 646 954 q 768 1044 751 1044 q 827 1023 800 1044 l 849 1006 q 873 939 897 970 q 843 908 861 923 q 808 877 825 893 q 712 775 746 813 q 599 640 631 680 l 545 570 q 508 514 523 538 l 571 420 l 615 358 q 834 146 756 163 q 861 144 847 144 m 146 996 q 158 1027 146 1014 q 184 1040 169 1040 l 279 1040 q 306 1027 295 1040 q 317 996 317 1014 l 317 43 q 306 13 317 26 q 279 0 294 0 l 184 0 q 157 13 168 0 q 146 43 146 26 l 146 996 z "},"L":{"ha":810,"x_min":162,"x_max":736,"o":"m 162 996 q 173 1027 162 1014 q 200 1040 184 1040 l 295 1040 q 321 1027 311 1040 q 332 996 332 1014 l 332 151 l 700 151 q 727 140 718 151 q 736 113 736 129 l 736 38 q 727 11 736 22 q 700 0 718 0 l 199 0 q 173 13 184 0 q 162 43 162 26 l 162 996 z "},"M":{"ha":1383,"x_min":85,"x_max":1295,"o":"m 1295 34 q 1271 0 1295 0 l 1158 0 q 1136 8 1145 0 q 1125 28 1126 16 l 1078 434 q 1065 585 1069 511 q 1055 741 1061 660 l 1048 838 q 1047 840 1048 840 q 1044 838 1045 840 l 1014 727 q 993 659 1004 693 l 781 83 q 768 64 778 73 q 747 56 758 56 l 641 56 q 607 83 620 56 q 356 672 372 634 q 330 745 341 711 l 299 839 q 297 841 298 841 q 294 838 295 841 l 294 728 q 283 435 294 585 l 252 28 q 240 9 251 18 q 216 0 229 0 l 123 0 q 96 14 106 0 q 87 49 85 28 l 169 941 q 182 1013 174 998 q 239 1040 198 1040 l 313 1040 q 359 1031 346 1040 q 400 972 382 1015 l 692 260 l 948 972 q 1024 1040 970 1040 l 1101 1040 q 1171 985 1160 1040 q 1176 947 1173 967 l 1293 48 q 1295 34 1295 41 z "},"N":{"ha":1154,"x_min":163,"x_max":996,"o":"m 163 956 q 237 1040 163 1040 l 264 1040 q 303 1033 292 1040 q 341 994 323 1021 l 778 351 q 817 284 803 315 l 845 226 q 847 224 846 224 q 848 242 849 224 q 841 293 846 260 q 836 360 836 327 l 836 998 q 846 1028 836 1016 q 871 1040 857 1040 l 961 1040 q 986 1028 975 1040 q 996 998 996 1016 l 996 68 q 979 26 996 41 q 928 0 951 0 l 886 0 q 837 11 852 0 q 780 77 814 28 q 365 689 393 644 l 309 783 q 305 785 307 785 q 304 775 302 785 q 310 741 307 765 q 317 688 314 717 q 324 562 324 620 l 324 41 q 314 12 324 24 q 288 0 303 0 l 199 0 q 174 12 184 0 q 163 41 163 24 l 163 956 z "},"O":{"ha":1159,"x_min":78,"x_max":1081,"o":"m 138 257 q 123 287 138 257 q 93 386 109 317 q 78 549 78 455 q 114 740 78 643 q 217 907 151 837 q 581 1057 357 1057 q 953 904 818 1057 q 1081 527 1081 760 q 940 141 1081 296 q 781 25 873 68 q 592 -17 688 -17 q 430 3 497 -17 q 308 59 363 23 q 210 146 252 96 q 138 257 167 196 m 262 532 q 280 384 262 454 q 338 259 299 314 q 578 139 423 139 q 819 254 734 139 q 897 528 897 359 q 818 789 897 686 q 579 901 730 901 q 347 797 433 901 q 262 532 262 694 z "},"P":{"ha":922,"x_min":155,"x_max":881,"o":"m 326 42 q 279 0 326 0 l 199 0 q 165 13 176 0 q 155 42 155 26 l 155 980 q 168 1022 155 1004 q 209 1040 180 1040 l 477 1040 q 772 949 667 1040 q 881 680 881 854 q 758 397 881 503 q 463 296 642 296 q 326 307 407 296 l 326 42 m 326 449 l 380 443 q 446 440 404 440 q 537 453 488 440 q 623 494 586 466 q 703 679 703 556 q 566 879 703 834 q 470 892 523 892 l 326 892 l 326 449 z "},"Q":{"ha":1155,"x_min":78,"x_max":1134,"o":"m 944 -59 q 1019 -53 983 -59 q 1094 -47 1055 -47 q 1134 -92 1134 -47 q 1128 -134 1134 -104 q 1114 -177 1122 -164 q 1095 -198 1107 -191 q 1034 -212 1074 -212 q 954 -209 994 -212 q 869 -197 913 -205 q 777 -173 824 -188 q 684 -137 730 -159 q 516 -14 583 -88 q 193 165 315 7 q 78 528 78 315 q 217 907 78 760 q 581 1057 357 1057 q 953 904 818 1057 q 1081 527 1081 760 q 980 185 1081 326 q 692 7 873 37 q 944 -59 821 -59 m 262 530 q 280 380 262 451 q 338 254 299 309 q 578 132 423 132 q 820 248 734 132 q 897 528 897 353 q 818 789 897 686 q 579 901 730 901 q 347 797 433 901 q 262 530 262 694 z "},"R":{"ha":1040,"x_min":159,"x_max":972,"o":"m 854 146 l 924 155 q 950 142 943 155 q 962 115 958 130 q 969 89 966 100 q 972 64 972 77 q 959 36 972 50 q 926 12 946 22 q 835 -12 882 -12 q 750 -1 788 -12 q 678 29 712 10 q 570 113 625 59 q 482 206 515 168 l 370 345 q 328 391 347 373 l 328 43 q 309 4 328 16 q 294 0 302 0 l 197 0 q 171 11 178 0 q 159 43 159 28 l 159 980 q 171 1022 159 1004 q 212 1040 184 1040 l 515 1040 q 918 721 918 1040 q 810 475 918 574 q 568 380 707 380 q 522 384 544 380 l 605 296 q 717 194 677 220 q 854 146 789 146 m 328 520 q 466 503 404 503 q 577 514 528 503 q 664 551 626 526 q 748 711 748 605 q 675 853 748 807 q 510 892 614 892 l 328 892 l 328 520 z "},"S":{"ha":810,"x_min":75,"x_max":742,"o":"m 75 107 q 75 119 75 107 q 94 164 75 131 q 121 205 114 197 q 148 221 134 221 q 178 212 162 221 q 219 190 193 203 q 275 165 245 177 q 392 140 342 140 q 473 149 441 140 q 526 176 504 158 q 572 280 572 213 q 444 425 572 365 q 362 459 408 441 q 266 505 316 476 q 175 574 215 534 q 86 781 86 662 q 190 985 86 908 q 418 1057 287 1057 q 659 993 565 1057 q 711 930 711 959 q 692 880 711 914 q 663 833 674 845 q 642 821 652 821 q 598 839 625 821 q 519 879 570 857 q 423 901 469 901 q 350 893 378 901 q 302 871 323 886 q 260 778 260 839 q 381 638 260 690 l 447 611 q 648 498 579 560 q 742 289 742 413 q 637 64 742 151 q 412 -17 541 -17 q 129 52 245 -17 q 75 107 75 83 z "},"T":{"ha":808,"x_min":30,"x_max":779,"o":"m 317 892 l 73 892 q 42 903 55 892 q 30 930 30 914 l 30 1002 q 42 1028 30 1017 q 73 1040 55 1040 l 743 1040 q 769 1028 760 1040 q 779 1001 779 1017 l 779 930 q 769 903 779 914 q 742 892 760 892 l 488 892 l 488 43 q 477 13 488 26 q 450 0 466 0 l 355 0 q 328 13 339 0 q 317 43 317 26 l 317 892 z "},"U":{"ha":1037,"x_min":105,"x_max":931,"o":"m 517 134 q 763 414 763 134 l 763 996 q 774 1027 763 1014 q 801 1040 785 1040 l 894 1040 q 920 1027 909 1040 q 931 996 931 1014 l 931 416 q 809 90 931 207 q 517 -18 697 -18 q 224 94 337 -18 q 105 416 105 210 l 105 996 q 116 1027 105 1014 q 143 1040 127 1040 l 236 1040 q 262 1027 252 1040 q 273 996 273 1014 l 273 414 q 342 202 273 274 q 517 134 405 134 z "},"V":{"ha":925,"x_min":17,"x_max":902,"o":"m 20 987 q 17 1005 17 994 q 25 1028 17 1017 q 48 1040 33 1040 l 164 1040 q 188 1030 178 1040 q 201 1009 197 1021 l 459 160 q 468 157 460 157 q 477 161 475 157 l 551 358 q 726 995 676 709 q 777 1040 732 1040 l 852 1040 q 889 1028 877 1040 q 902 1005 902 1016 l 902 990 q 815 635 902 904 q 769 502 793 568 q 676 258 703 322 l 629 146 q 584 50 596 72 q 559 18 571 27 q 482 0 534 0 l 446 0 q 376 12 395 0 q 330 75 345 31 l 20 987 z "},"W":{"ha":1501,"x_min":66,"x_max":1431,"o":"m 69 969 q 66 997 66 980 q 77 1027 66 1014 q 106 1040 87 1040 l 203 1040 q 245 998 236 1040 l 356 503 q 363 467 358 492 q 421 181 418 201 l 426 155 q 432 149 427 149 q 449 164 443 149 q 509 353 484 254 l 557 551 q 600 746 581 648 q 642 943 618 843 q 725 1009 656 1009 l 793 1009 q 877 943 856 1009 q 936 738 921 796 l 1082 152 q 1093 141 1084 141 q 1108 159 1101 141 q 1125 213 1114 177 q 1149 293 1137 249 l 1173 385 q 1224 641 1211 543 q 1241 777 1237 739 q 1248 846 1246 816 q 1252 933 1252 895 q 1253 987 1252 972 q 1260 1013 1255 1002 q 1310 1040 1273 1040 l 1372 1040 q 1428 995 1421 1040 q 1431 963 1431 981 q 1430 915 1431 945 q 1424 844 1428 884 q 1289 237 1400 581 q 1198 31 1236 71 q 1119 0 1169 0 l 1065 0 q 936 119 966 0 l 762 811 q 758 814 762 814 q 755 811 755 814 l 718 609 q 591 115 669 329 q 549 28 566 45 q 465 0 521 0 l 410 0 q 332 26 359 0 q 289 113 304 52 l 69 969 z "},"X":{"ha":924,"x_min":43,"x_max":884,"o":"m 87 0 q 64 9 73 0 q 56 33 56 19 q 65 61 56 47 l 357 530 l 53 979 q 43 1006 43 992 q 52 1030 43 1020 q 75 1040 60 1040 l 179 1040 q 214 1029 203 1040 q 231 1007 224 1018 l 453 653 l 663 1007 q 713 1040 679 1040 l 814 1040 q 838 1030 829 1040 q 846 1007 846 1021 q 838 980 846 993 l 553 534 l 876 61 q 884 34 884 47 q 876 10 884 20 q 853 0 868 0 l 748 0 q 714 11 725 0 q 697 33 704 22 l 457 403 l 233 33 q 216 11 227 22 q 181 0 205 0 l 87 0 z "},"Y":{"ha":919,"x_min":11,"x_max":914,"o":"m 386 349 l 17 985 q 11 1007 11 995 q 20 1029 11 1019 q 42 1040 28 1040 l 151 1040 q 190 1021 179 1040 q 196 1010 193 1016 l 467 515 q 472 509 469 509 q 512 570 474 509 q 612 751 550 631 q 725 999 673 871 q 744 1029 733 1019 q 777 1040 755 1040 l 882 1040 q 906 1028 898 1040 q 914 1003 914 1017 q 909 977 914 989 q 555 359 733 614 l 555 43 q 544 13 555 25 q 517 0 532 0 l 423 0 q 397 13 408 0 q 386 43 386 26 l 386 349 z "},"Z":{"ha":809,"x_min":50,"x_max":762,"o":"m 673 1040 q 742 981 742 1040 l 742 949 q 732 897 742 918 q 708 854 722 876 l 298 222 l 248 159 q 239 142 239 146 q 247 138 239 138 q 266 140 255 138 l 290 145 q 345 151 326 151 l 708 151 q 748 143 734 151 q 762 106 762 134 l 762 36 q 734 2 762 9 q 721 0 727 0 l 123 0 q 64 33 85 0 q 53 62 56 43 q 50 106 50 81 q 73 176 50 138 l 484 813 l 538 885 q 543 893 543 890 q 534 897 543 897 l 435 890 l 119 890 q 81 898 90 890 q 64 941 64 911 l 64 1006 q 75 1033 64 1025 q 109 1040 85 1040 l 673 1040 z "},"[":{"ha":579,"x_min":140,"x_max":486,"o":"m 140 1243 q 152 1274 140 1261 q 178 1286 163 1286 l 443 1286 q 473 1275 460 1286 q 486 1249 486 1264 l 486 1203 q 473 1177 486 1187 q 443 1166 460 1166 l 283 1166 l 283 -98 l 443 -98 q 473 -109 460 -98 q 486 -136 486 -120 l 486 -180 q 473 -207 486 -196 q 443 -218 460 -218 l 178 -218 q 151 -205 162 -218 q 140 -174 140 -192 l 140 1243 z "},"\\":{"ha":578,"x_min":45,"x_max":471,"o":"m 186 1076 q 145 1104 180 1104 q 135 1103 138 1104 l 77 1091 q 45 1053 45 1084 q 46 1042 45 1048 l 334 -60 q 374 -88 341 -88 l 380 -88 q 385 -87 382 -88 l 439 -72 q 471 -31 471 -64 q 469 -15 471 -22 l 186 1076 z "},"]":{"ha":579,"x_min":93,"x_max":439,"o":"m 439 1243 q 428 1274 439 1261 q 401 1286 416 1286 l 136 1286 q 106 1275 119 1286 q 93 1249 93 1264 l 93 1203 q 106 1177 93 1187 q 136 1166 119 1166 l 296 1166 l 296 -98 l 136 -98 q 106 -109 119 -98 q 93 -136 93 -120 l 93 -180 q 106 -207 93 -196 q 136 -218 119 -218 l 401 -218 q 428 -205 417 -218 q 439 -174 439 -192 l 439 1243 z "},"^":{"ha":693,"x_min":28,"x_max":665,"o":"m 54 363 q 28 391 28 372 q 34 425 28 410 l 261 1003 q 307 1040 275 1037 q 323 1040 315 1040 l 358 1040 q 407 1028 394 1040 q 427 1001 420 1016 l 659 425 q 665 397 665 408 q 642 365 665 373 l 589 345 q 566 340 577 340 q 528 370 539 340 l 345 866 l 162 372 q 124 340 151 340 q 106 344 113 340 l 54 363 z "},"_":{"ha":1040,"x_min":-39,"x_max":1080,"o":"m 1042 -115 q 1068 -125 1057 -115 q 1080 -149 1080 -135 l 1080 -213 q 1068 -236 1080 -227 q 1042 -245 1057 -245 l -2 -245 q -28 -236 -18 -245 q -39 -212 -39 -226 l -39 -148 q -28 -125 -39 -134 q -2 -115 -18 -115 l 1042 -115 z "},"`":{"ha":466,"x_min":9,"x_max":358,"o":"m 36 1024 q 10 1059 11 1040 q 17 1088 9 1078 l 68 1153 q 93 1168 79 1168 q 135 1152 118 1168 l 345 962 q 358 940 358 949 q 353 924 358 931 l 320 878 q 302 869 314 869 q 282 874 291 869 l 36 1024 z "},"a":{"ha":810,"x_min":66,"x_max":740,"o":"m 740 36 q 705 0 740 0 l 639 0 q 607 11 612 0 q 601 30 602 21 q 598 50 600 38 q 587 122 594 83 q 420 -6 534 25 q 332 -17 380 -17 q 236 -1 284 -17 q 151 46 188 15 q 66 231 66 117 q 159 423 66 357 q 354 477 235 477 q 556 407 473 477 q 558 465 558 430 q 545 534 558 499 q 506 591 531 568 q 362 637 454 637 q 194 591 279 637 q 165 583 178 583 q 130 618 147 583 q 112 671 112 655 q 157 729 112 701 q 385 782 242 782 q 601 711 515 782 q 702 469 702 625 q 680 295 702 400 q 740 36 737 131 m 286 324 q 272 313 286 324 q 246 283 258 303 q 234 235 234 262 q 244 186 234 208 q 271 151 254 165 q 355 121 309 121 q 431 132 401 121 q 483 160 461 143 q 530 237 530 197 q 473 317 526 288 q 363 345 427 345 q 286 324 313 345 z "},"b":{"ha":926,"x_min":138,"x_max":848,"o":"m 178 0 q 138 52 138 0 l 138 1158 q 148 1190 138 1177 q 174 1202 158 1202 l 266 1202 q 292 1190 281 1202 q 302 1158 302 1177 l 302 663 q 551 782 389 782 q 777 673 699 782 q 848 409 848 574 q 755 99 848 216 q 524 -16 664 -16 q 383 18 448 -16 q 278 123 318 52 q 274 81 277 102 q 271 42 272 61 q 216 0 269 0 l 178 0 m 350 565 q 336 548 350 565 q 307 484 322 530 q 292 387 292 437 q 307 289 292 336 q 349 205 322 242 q 493 123 407 123 q 637 208 589 123 q 677 388 677 277 q 583 623 677 570 q 504 641 551 641 q 418 621 457 641 q 350 565 378 600 z "},"c":{"ha":809,"x_min":82,"x_max":734,"o":"m 634 463 q 578 518 578 463 q 540 614 578 581 q 451 644 507 644 q 358 621 395 644 q 298 562 321 597 q 254 392 254 491 q 366 149 254 207 q 456 128 407 128 q 538 139 506 128 q 595 163 570 150 q 638 186 620 176 q 669 197 657 197 q 708 175 694 197 l 723 150 q 733 116 733 132 q 720 81 733 99 q 683 48 706 63 q 631 21 661 33 q 571 0 602 9 q 298 12 422 -40 q 108 221 160 71 q 82 388 82 296 q 110 553 82 480 q 186 677 137 627 q 450 782 287 782 q 670 707 593 782 q 734 545 734 642 q 650 463 734 463 l 634 463 z "},"d":{"ha":925,"x_min":75,"x_max":822,"o":"m 631 669 l 631 1160 q 642 1190 631 1177 q 668 1202 652 1202 l 762 1202 q 788 1190 778 1202 q 798 1160 798 1177 l 798 290 q 820 63 798 153 q 822 39 822 54 q 809 12 822 24 q 777 0 797 0 l 744 0 q 690 33 704 0 q 661 142 673 74 q 486 -5 609 31 q 384 -17 445 -17 q 263 14 323 -17 q 161 99 203 45 q 75 376 75 210 q 159 659 75 547 q 399 782 249 782 q 631 669 550 782 m 249 371 q 260 281 249 325 q 294 202 271 237 q 437 123 346 123 q 582 195 519 123 q 648 372 648 270 q 584 570 648 495 q 432 641 522 641 q 289 552 338 641 q 249 371 249 477 z "},"e":{"ha":810,"x_min":77,"x_max":734,"o":"m 239 345 l 238 332 q 297 183 238 239 q 465 123 359 123 q 644 181 561 123 q 671 192 659 192 q 709 167 696 192 l 728 129 q 734 100 734 115 q 720 67 734 84 q 684 37 706 51 q 632 14 661 24 q 571 -3 602 3 q 441 -17 509 -17 q 304 9 373 -17 q 185 84 235 35 q 77 368 77 189 q 298 759 77 682 q 440 783 368 783 q 565 767 513 783 q 653 721 616 751 q 732 541 732 656 q 640 368 732 428 q 427 316 559 316 q 239 345 345 316 m 572 543 q 442 640 572 640 q 269 549 318 640 q 245 471 251 517 q 394 441 304 441 q 572 543 572 441 z "},"f":{"ha":577,"x_min":52,"x_max":629,"o":"m 560 662 q 517 624 560 624 l 352 624 l 352 48 q 340 13 352 26 q 306 0 328 0 l 239 0 q 203 13 216 0 q 190 48 190 26 l 190 624 l 94 624 q 52 663 52 624 l 52 701 q 60 724 52 716 q 92 739 68 732 l 193 755 q 152 889 158 846 q 146 973 146 933 q 164 1056 146 1013 q 216 1133 182 1099 q 418 1207 292 1207 q 589 1164 517 1207 q 629 1121 629 1140 q 617 1084 629 1101 l 585 1038 q 559 1020 571 1020 q 536 1027 547 1020 q 511 1042 526 1034 q 418 1063 471 1063 q 304 919 304 1063 q 335 765 304 849 l 517 765 q 560 728 560 765 l 560 662 z "},"g":{"ha":809,"x_min":74,"x_max":775,"o":"m 311 73 q 447 104 375 104 q 574 91 518 104 q 675 49 630 77 q 775 -130 775 -15 q 661 -321 775 -249 q 418 -385 560 -385 q 178 -323 274 -385 q 74 -138 74 -255 q 224 136 74 3 q 353 227 282 186 q 164 305 242 237 q 77 496 77 382 q 175 708 77 627 q 390 782 265 782 q 601 709 524 782 q 639 659 625 687 q 623 788 639 721 q 607 867 607 854 q 612 888 607 880 q 624 900 617 896 q 647 906 634 906 l 705 906 q 762 749 762 906 q 711 518 762 624 q 713 479 713 503 q 702 422 713 454 q 673 361 691 389 q 632 309 655 333 q 582 265 608 286 q 530 228 556 245 q 352 110 381 134 q 311 73 323 87 m 280 388 q 292 378 280 388 q 334 357 303 368 q 400 347 365 347 q 464 357 435 347 q 515 388 493 368 q 563 498 563 431 q 510 606 563 566 q 395 640 463 640 q 245 559 286 640 q 231 498 231 533 q 244 435 231 463 q 280 388 257 408 m 248 -53 q 222 -116 222 -81 q 239 -175 222 -151 q 284 -216 256 -199 q 418 -246 338 -246 q 596 -183 546 -246 q 612 -130 612 -162 q 592 -76 612 -98 q 543 -41 572 -54 q 414 -21 493 -21 q 248 -53 292 -21 z "},"h":{"ha":925,"x_min":145,"x_max":804,"o":"m 145 1160 q 156 1190 145 1178 q 181 1202 166 1202 l 274 1202 q 300 1190 290 1202 q 310 1160 310 1178 l 310 646 q 481 773 368 745 q 573 782 517 782 q 676 758 628 782 q 753 692 724 734 q 804 466 804 615 l 804 45 q 791 12 804 24 q 755 0 779 0 l 689 0 q 651 13 663 0 q 639 45 639 26 l 639 467 q 511 640 639 640 q 377 578 440 640 q 310 422 310 510 l 310 45 q 298 13 310 26 q 261 0 287 0 l 187 0 q 156 13 168 0 q 145 45 145 26 l 145 1160 z "},"i":{"ha":463,"x_min":96,"x_max":429,"o":"m 208 896 q 129 928 161 896 q 96 1006 96 959 q 129 1085 96 1053 q 208 1116 160 1116 q 309 1050 280 1116 q 318 1006 318 1030 q 286 928 318 959 q 208 896 253 896 m 287 186 q 319 138 287 138 q 343 144 330 138 q 379 156 370 156 q 402 136 393 156 l 423 89 q 429 67 429 77 q 378 13 429 38 q 284 -12 331 -12 q 210 -1 238 -12 q 163 33 182 9 q 123 191 123 81 l 123 720 q 134 752 123 739 q 160 765 145 765 l 251 765 q 277 752 267 765 q 287 720 287 739 l 287 186 z "},"j":{"ha":463,"x_min":-39,"x_max":347,"o":"m 237 896 q 158 928 191 896 q 125 1006 125 959 q 158 1085 125 1053 q 237 1116 189 1116 q 338 1050 309 1116 q 347 1006 347 1030 q 315 928 347 959 q 237 896 282 896 m 86 -244 q 156 -116 156 -244 l 156 720 q 166 752 156 740 q 192 765 176 765 l 285 765 q 311 752 300 765 q 321 720 321 740 l 321 -89 q 263 -311 321 -233 q 112 -385 208 -385 q -14 -350 33 -385 q -39 -307 -39 -329 q -31 -267 -39 -296 q -15 -226 -22 -238 q 6 -214 -7 -214 q 27 -218 18 -214 q 45 -229 36 -223 q 86 -244 69 -244 z "},"k":{"ha":811,"x_min":129,"x_max":792,"o":"m 695 138 l 752 149 q 782 117 776 149 l 791 68 q 792 54 792 65 q 784 30 792 43 q 761 8 775 17 q 682 -12 730 -12 q 522 81 586 -12 q 496 122 511 97 l 403 288 l 362 232 q 262 44 279 115 q 249 13 257 26 q 219 0 240 0 l 165 0 q 139 13 150 0 q 129 44 129 25 l 129 1160 q 139 1190 129 1178 q 165 1202 150 1202 l 258 1202 q 284 1190 274 1202 q 294 1160 294 1178 l 296 588 q 284 415 296 513 q 269 286 273 317 l 269 283 q 272 278 269 278 q 288 296 278 278 q 627 763 423 541 q 663 784 646 784 q 709 762 689 784 l 740 728 q 762 688 762 701 q 745 648 764 665 l 623 528 q 504 394 560 464 l 555 307 q 695 138 651 138 z "},"l":{"ha":463,"x_min":127,"x_max":439,"o":"m 290 186 q 324 138 290 138 q 352 144 335 138 q 390 156 383 156 q 414 136 406 156 l 435 88 q 439 69 439 78 q 414 31 439 54 q 279 -12 362 -12 q 127 191 127 -12 l 127 1158 q 138 1190 127 1177 q 163 1202 149 1202 l 254 1202 q 280 1190 270 1202 q 290 1158 290 1177 l 290 186 z "},"m":{"ha":1385,"x_min":125,"x_max":1266,"o":"m 543 782 q 759 629 713 782 q 939 772 827 739 q 1034 783 977 783 q 1146 754 1092 783 q 1226 680 1200 726 q 1259 579 1252 634 q 1266 461 1266 524 l 1266 45 q 1254 13 1266 26 q 1218 0 1242 0 l 1152 0 q 1114 13 1126 0 q 1101 45 1101 26 l 1101 467 q 1071 597 1101 555 q 976 640 1041 640 q 846 575 902 640 q 787 407 787 507 l 787 45 q 774 13 787 26 q 739 0 762 0 l 672 0 q 634 13 646 0 q 622 45 622 26 l 622 467 q 592 597 622 555 q 496 640 562 640 q 366 575 422 640 q 307 407 307 507 l 307 45 q 296 13 307 26 q 260 0 284 0 l 191 0 q 155 13 167 0 q 142 45 142 26 l 142 461 q 134 651 142 597 q 125 716 125 705 q 172 765 125 765 l 209 765 q 260 736 247 765 q 292 629 277 702 q 463 770 351 736 q 543 782 500 782 z "},"n":{"ha":925,"x_min":125,"x_max":802,"o":"m 125 716 q 172 765 125 765 l 209 765 q 260 736 247 765 q 293 629 279 696 q 475 772 354 741 q 569 782 513 782 q 674 758 626 782 q 750 692 722 734 q 802 466 802 615 l 802 45 q 789 13 802 26 q 753 0 777 0 l 687 0 q 649 13 661 0 q 637 45 637 26 l 637 467 q 509 640 637 640 q 373 578 435 640 q 307 422 307 511 l 307 45 q 296 13 307 26 q 260 0 284 0 l 191 0 q 155 13 167 0 q 142 45 142 26 l 142 461 q 134 651 142 597 q 125 716 125 705 z "},"o":{"ha":926,"x_min":81,"x_max":846,"o":"m 81 385 q 111 547 81 473 q 192 673 140 621 q 464 782 300 782 q 749 673 648 782 q 846 384 846 568 q 736 94 846 206 q 464 -17 628 -17 q 186 96 291 -17 q 81 385 81 207 m 299 558 q 287 539 299 558 q 262 472 274 520 q 251 375 251 425 q 264 281 251 326 q 304 201 277 236 q 467 123 362 123 q 628 199 573 123 q 677 380 677 266 q 564 617 677 552 q 464 641 523 641 q 365 618 406 641 q 299 558 325 595 z "},"p":{"ha":926,"x_min":112,"x_max":847,"o":"m 294 117 q 301 -52 301 50 l 301 -332 q 261 -382 301 -382 l 177 -382 q 134 -330 134 -382 l 134 421 q 114 699 134 612 q 112 724 112 708 q 124 752 112 739 q 157 765 137 765 l 198 765 q 251 732 235 765 q 279 634 269 694 q 408 755 326 717 q 541 782 467 782 q 673 753 615 782 q 770 674 732 724 q 847 407 847 574 q 761 111 847 232 q 523 -17 670 -17 q 294 117 370 -17 m 286 358 q 351 190 286 260 q 490 123 412 123 q 636 219 589 123 q 674 411 674 295 q 629 570 674 505 q 501 640 581 640 q 347 566 411 640 q 286 395 286 492 l 286 358 z "},"q":{"ha":926,"x_min":81,"x_max":791,"o":"m 749 765 q 791 712 791 765 l 791 -338 q 781 -369 791 -355 q 755 -382 771 -382 l 661 -382 q 635 -369 646 -382 q 625 -338 625 -355 l 625 -53 q 632 121 625 2 q 469 -7 578 24 q 374 -17 432 -17 q 259 16 317 -17 q 161 104 201 49 q 81 391 81 217 q 176 669 81 555 q 400 782 271 782 q 542 749 484 782 q 643 650 600 715 l 659 715 l 665 737 q 682 761 671 756 q 707 765 693 765 l 749 765 m 435 123 q 517 145 480 123 q 582 203 555 167 q 639 387 639 282 q 575 571 639 499 q 429 640 514 640 q 298 563 345 640 q 255 387 255 494 q 299 205 255 277 q 435 123 349 123 z "},"r":{"ha":578,"x_min":108,"x_max":578,"o":"m 108 716 q 151 765 108 765 l 187 765 q 240 732 224 765 q 273 602 262 685 q 274 600 273 600 q 278 623 275 600 q 298 680 281 646 q 338 736 314 713 q 456 782 386 782 q 564 756 534 782 q 576 724 578 745 l 565 639 q 530 604 561 604 q 493 610 515 604 q 427 621 451 621 q 375 600 402 621 q 328 547 348 578 q 288 405 288 480 l 288 45 q 277 13 288 26 q 246 0 267 0 l 168 0 q 135 13 146 0 q 123 45 123 26 l 123 512 q 116 670 123 631 q 108 716 108 708 z "},"s":{"ha":694,"x_min":79,"x_max":626,"o":"m 337 122 q 467 210 467 122 q 393 291 467 258 q 325 317 362 305 q 254 347 288 330 q 191 384 220 363 q 140 429 161 404 q 95 567 95 484 q 180 728 95 669 q 365 782 255 782 q 562 736 483 782 q 589 699 589 720 q 573 633 589 669 q 536 597 557 597 q 497 606 515 597 q 466 622 480 615 q 437 632 452 628 q 374 642 403 642 q 328 638 345 642 q 296 625 310 634 q 261 574 261 604 q 275 527 261 543 q 313 497 289 511 q 372 470 338 484 l 445 439 q 565 370 534 401 q 626 225 626 307 q 555 56 626 122 q 334 -17 477 -17 q 115 39 188 -17 q 79 88 79 66 q 86 127 79 110 q 107 168 94 144 q 141 191 119 191 q 186 172 162 191 q 252 137 210 153 q 337 122 294 122 z "},"t":{"ha":577,"x_min":43,"x_max":566,"o":"m 539 662 q 496 624 539 624 l 305 624 l 305 198 q 374 129 305 129 q 487 172 417 129 q 516 181 500 181 q 542 159 532 181 l 557 123 q 566 89 566 103 q 545 56 566 75 q 490 22 524 37 q 354 -12 415 -12 q 257 1 293 -12 q 197 39 222 14 q 142 191 142 92 l 142 624 l 85 624 q 43 663 43 624 l 43 701 q 51 726 43 717 q 83 739 59 734 l 151 759 l 176 918 q 213 963 184 963 l 269 963 q 295 950 285 963 q 305 918 305 938 l 305 765 l 496 765 q 539 728 539 765 l 539 662 z "},"u":{"ha":925,"x_min":128,"x_max":810,"o":"m 810 46 q 768 0 810 0 l 738 0 q 684 33 697 0 q 654 136 670 70 q 557 24 625 65 q 387 -17 489 -17 q 191 66 254 -17 q 128 311 128 149 l 128 720 q 140 752 128 739 q 174 765 152 765 l 248 765 q 293 720 293 765 l 293 319 q 368 132 293 157 q 426 123 393 123 q 495 139 460 123 q 559 180 531 155 q 623 315 623 239 l 623 720 q 635 752 623 739 q 671 765 646 765 l 743 765 q 777 752 766 765 q 788 720 788 739 l 788 296 q 808 66 788 153 q 810 46 810 58 z "},"v":{"ha":811,"x_min":48,"x_max":750,"o":"m 750 719 q 689 420 742 604 q 522 48 614 159 q 458 1 490 11 q 392 -8 425 -8 q 334 -1 359 -8 q 294 22 310 7 q 245 121 267 49 q 152 413 200 271 l 54 696 q 48 724 48 713 q 101 765 48 765 l 163 765 q 201 754 186 765 q 226 714 216 744 q 376 184 314 452 q 406 150 383 150 q 438 178 423 150 q 556 586 511 315 q 574 695 568 657 q 586 742 580 733 q 599 755 591 751 q 629 765 612 765 l 707 765 q 750 719 750 765 z "},"w":{"ha":1269,"x_min":49,"x_max":1194,"o":"m 1150 765 q 1194 724 1194 765 q 1128 338 1193 561 q 997 61 1077 164 q 880 -8 943 -8 q 783 22 817 -8 q 735 111 749 53 q 684 319 699 264 l 658 414 q 641 472 647 452 q 637 454 640 466 q 631 427 635 441 l 617 368 q 555 175 577 224 q 517 98 533 125 q 481 47 502 71 q 374 -8 432 -8 q 222 121 252 -8 q 144 410 187 267 l 54 696 q 49 724 49 710 q 95 765 49 765 l 175 765 q 231 714 216 765 q 300 441 271 575 l 358 174 q 377 149 364 149 q 405 175 391 149 q 433 240 418 201 q 463 322 448 278 q 490 413 477 366 q 515 507 504 460 q 553 684 538 602 l 557 712 q 629 753 566 753 q 684 747 670 753 q 726 691 709 736 q 763 580 743 646 q 801 444 783 514 q 868 168 846 264 q 882 148 873 148 q 915 183 895 148 q 956 282 935 219 q 992 418 977 345 q 1028 720 1024 564 q 1058 763 1028 755 q 1072 765 1065 765 l 1150 765 z "},"x":{"ha":694,"x_min":17,"x_max":670,"o":"m 64 0 q 29 16 41 0 q 17 47 17 33 q 37 93 17 74 q 85 145 57 112 q 140 217 113 179 l 193 294 l 244 372 l 25 695 q 18 716 18 707 q 22 735 18 726 q 33 750 26 744 q 67 765 49 765 l 128 765 q 207 711 179 765 q 342 473 324 503 l 416 618 q 479 725 458 698 q 516 758 500 751 q 550 765 532 765 l 611 765 q 647 750 633 765 q 661 717 661 735 q 633 653 661 681 q 578 594 604 625 l 528 529 q 477 459 502 495 l 431 389 l 662 70 q 670 42 670 58 q 657 13 670 26 q 627 0 645 0 l 552 0 q 491 26 512 0 q 471 58 482 37 l 372 233 l 342 283 l 266 137 l 233 79 q 125 0 187 0 l 64 0 z "},"y":{"ha":809,"x_min":49,"x_max":753,"o":"m 709 765 q 753 722 753 765 q 701 503 753 673 l 659 374 q 291 -328 511 -52 l 277 -345 q 214 -385 246 -385 q 134 -336 179 -385 q 121 -305 121 -323 q 151 -245 121 -277 q 208 -182 182 -214 q 256 -119 233 -151 q 332 3 298 -61 q 204 345 227 288 l 130 528 l 78 647 q 49 729 49 715 q 61 754 49 744 q 97 765 74 765 l 182 765 q 229 731 212 765 q 262 648 241 706 q 324 463 304 524 l 379 283 q 391 240 387 256 l 397 216 q 402 195 399 208 l 408 170 q 416 156 412 156 q 425 164 420 156 q 435 185 430 172 l 447 214 q 581 721 517 395 q 631 765 589 765 l 709 765 z "},"z":{"ha":694,"x_min":59,"x_max":637,"o":"m 268 133 l 350 140 l 600 140 q 626 130 615 140 q 637 106 637 120 l 637 57 q 626 14 637 22 q 570 0 608 0 l 125 0 q 65 42 82 0 q 59 76 59 56 q 98 162 59 106 l 365 546 l 420 621 q 425 629 425 625 q 416 632 425 632 l 317 625 l 123 625 q 81 635 91 625 q 65 688 65 651 l 65 732 q 76 755 65 745 q 102 765 87 765 l 564 765 q 604 749 591 765 q 624 700 624 724 q 619 663 624 677 q 608 636 614 648 q 593 613 601 624 q 578 593 585 602 l 330 217 l 266 142 q 263 136 263 139 q 268 133 263 133 z "},"{":{"ha":694,"x_min":163,"x_max":610,"o":"m 212 427 q 163 498 163 427 l 163 551 q 173 604 163 583 q 206 624 183 624 q 245 630 229 624 q 271 645 260 635 q 296 699 296 667 q 291 765 296 732 q 281 833 287 799 q 267 990 267 926 q 283 1113 267 1054 q 335 1213 300 1171 q 556 1300 409 1300 q 599 1263 589 1300 l 608 1227 q 610 1211 610 1220 q 603 1195 610 1202 q 586 1183 595 1187 q 567 1179 576 1180 q 531 1175 557 1178 q 478 1159 505 1173 q 438 1122 452 1145 q 418 1017 418 1086 q 422 908 418 948 q 430 828 426 867 l 438 752 q 441 683 441 715 q 426 627 441 652 q 387 584 410 602 q 290 545 338 545 q 277 524 277 545 q 290 503 277 503 q 387 467 338 503 q 441 372 441 426 q 438 300 441 338 l 430 223 q 418 66 418 111 q 422 -14 418 22 q 439 -74 425 -49 q 555 -127 469 -127 q 610 -166 610 -127 q 608 -177 610 -170 l 599 -220 q 551 -256 591 -256 q 267 61 267 -241 q 277 182 267 118 q 296 335 296 304 q 290 379 296 366 q 273 404 283 393 q 212 427 248 427 z "},"|":{"ha":463,"x_min":159,"x_max":304,"o":"m 159 1230 q 171 1260 159 1247 q 197 1273 182 1273 l 267 1273 q 293 1260 282 1273 q 304 1230 304 1247 l 304 -176 q 293 -207 304 -194 q 266 -220 281 -220 l 197 -220 q 170 -207 181 -220 q 159 -176 159 -194 l 159 1230 z "},"}":{"ha":694,"x_min":85,"x_max":531,"o":"m 483 616 q 531 546 531 616 l 531 493 q 521 440 531 460 q 488 420 511 420 q 450 414 465 420 q 423 399 434 408 q 399 345 399 377 q 403 278 399 312 q 413 210 408 245 q 427 54 427 118 q 411 -69 427 -10 q 359 -170 395 -127 q 138 -256 286 -256 q 96 -220 105 -256 l 86 -183 q 85 -168 85 -176 q 92 -151 85 -159 q 109 -140 99 -143 q 128 -135 118 -136 q 164 -132 138 -134 q 216 -115 190 -129 q 256 -79 243 -102 q 276 26 276 -43 q 272 136 276 96 q 264 216 269 176 l 256 292 q 253 360 253 329 q 269 417 253 392 q 308 460 285 441 q 404 498 357 498 q 418 519 418 498 q 404 541 418 541 q 308 576 356 541 q 253 672 253 618 q 256 743 253 705 l 264 821 q 276 978 276 933 q 273 1057 276 1022 q 255 1118 269 1093 q 140 1171 226 1171 q 85 1210 85 1171 q 86 1221 85 1214 l 96 1263 q 144 1300 103 1300 q 427 983 427 1284 q 418 861 427 926 q 399 709 399 739 q 405 664 399 678 q 422 640 411 650 q 483 616 446 616 z "},"~":{"ha":1158,"x_min":167,"x_max":1008,"o":"m 180 321 q 167 343 167 332 q 174 376 167 362 q 308 519 224 476 q 418 550 366 550 q 500 542 471 550 q 557 520 530 533 q 606 492 583 507 l 652 465 q 745 435 704 435 q 906 547 818 435 q 937 569 922 569 q 964 559 952 569 l 995 534 q 1008 508 1008 524 q 1003 481 1008 492 q 996 466 998 471 q 863 323 945 367 q 752 291 803 291 q 672 299 701 291 q 616 321 642 308 q 567 349 591 334 q 522 376 544 363 q 429 406 470 406 q 267 302 347 406 q 242 283 252 283 q 207 296 222 283 l 180 321 z "},"":{"ha":348,"x_min":0,"x_max":0,"o":""},"":{"ha":464,"x_min":119,"x_max":351,"o":"m 261 389 q 288 376 277 389 q 298 346 298 363 l 333 -300 q 322 -330 333 -317 q 295 -342 311 -342 l 180 -342 q 152 -330 163 -342 q 142 -300 142 -317 l 169 346 q 180 376 169 363 q 207 389 191 389 l 261 389 m 351 633 q 316 550 351 585 q 234 515 283 515 q 153 550 186 515 q 119 633 119 585 q 153 718 119 682 q 234 753 186 753 q 316 718 282 753 q 351 633 351 682 z "},"":{"ha":809,"x_min":82,"x_max":734,"o":"m 641 463 q 578 518 578 463 q 540 614 578 581 q 453 644 507 644 q 363 622 399 644 q 304 565 328 600 q 255 392 255 494 q 309 208 255 279 q 465 132 366 132 q 631 187 541 132 q 661 198 648 198 q 701 172 687 198 l 718 140 q 724 110 724 130 q 705 70 724 91 q 654 32 685 48 q 511 -12 594 0 l 511 -170 q 499 -200 511 -188 q 472 -213 488 -213 l 404 -213 q 377 -200 388 -213 q 366 -170 366 -187 l 366 -7 q 160 130 238 22 q 82 393 82 238 q 161 646 82 543 q 366 773 239 745 l 366 951 q 377 981 366 968 q 405 994 389 994 l 473 994 q 500 981 489 994 q 511 951 511 968 l 511 778 q 684 692 623 763 q 734 545 734 631 q 724 484 734 498 q 673 463 709 463 l 641 463 z "},"":{"ha":691,"x_min":75,"x_max":667,"o":"m 347 376 q 289 146 342 263 l 625 146 q 656 137 646 146 q 667 99 667 128 l 667 45 q 659 12 667 24 q 625 0 650 0 l 160 0 q 122 14 136 0 q 98 58 98 39 q 113 111 98 90 q 199 376 198 244 l 113 376 q 86 386 97 376 q 75 410 75 396 l 75 473 q 86 496 75 487 q 113 506 97 506 l 176 506 q 156 558 166 532 q 136 612 145 585 q 115 724 115 675 q 131 819 115 774 q 184 901 148 865 q 423 984 267 984 q 589 941 513 984 q 652 874 652 907 q 635 825 652 850 q 576 780 602 780 q 551 789 563 780 q 526 807 540 798 q 496 823 513 817 q 465 833 479 830 q 409 839 441 839 q 351 828 377 839 q 308 800 325 818 q 275 705 275 764 q 317 545 275 645 q 331 506 326 522 l 525 506 q 552 496 541 506 q 563 473 563 486 l 563 409 q 552 386 563 395 q 525 376 541 376 l 347 376 z "},"":{"ha":809,"x_min":47,"x_max":755,"o":"m 536 176 q 404 142 475 142 q 269 180 333 142 l 159 71 q 133 58 146 58 q 109 69 119 58 l 57 122 q 47 145 47 133 q 60 170 47 158 l 173 283 q 145 407 145 340 q 178 534 145 474 l 59 654 q 47 679 47 666 q 57 703 47 692 l 110 757 q 129 766 119 766 q 159 753 144 766 l 279 633 q 405 665 337 665 q 526 637 472 665 l 643 755 q 669 768 656 768 q 691 759 683 768 l 747 702 q 755 680 755 692 q 743 655 755 667 l 630 541 q 667 405 667 478 q 636 276 667 332 l 743 169 q 753 144 753 157 q 743 121 753 132 l 689 67 q 668 59 681 59 q 642 72 655 59 l 536 176 m 271 404 q 281 349 271 374 q 310 305 292 323 q 407 267 349 267 q 503 305 463 267 q 542 404 542 344 q 503 502 542 464 q 407 540 464 540 q 310 502 349 540 q 271 404 271 464 z "},"":{"ha":924,"x_min":33,"x_max":889,"o":"m 129 212 q 111 219 119 212 q 104 235 104 225 l 104 307 q 111 322 104 316 q 129 328 119 328 l 382 328 l 310 452 l 109 452 q 91 458 98 452 q 83 474 83 465 l 83 546 q 91 562 83 555 q 109 568 98 568 l 241 568 l 39 912 q 33 934 33 922 q 42 957 33 946 q 62 968 51 968 l 166 968 q 205 949 194 968 q 211 939 208 944 l 467 460 q 471 454 469 454 q 494 487 473 454 q 546 577 514 519 q 606 694 577 635 q 662 814 635 753 l 715 939 q 762 968 727 968 l 856 968 q 880 957 871 968 q 889 939 889 947 q 884 913 889 926 l 796 734 q 705 568 753 650 l 812 568 q 830 562 823 568 q 838 546 838 555 l 838 473 q 830 458 838 465 q 812 452 823 452 l 635 452 l 552 328 l 792 328 q 810 322 802 328 q 817 307 817 316 l 817 234 q 810 219 817 225 q 792 212 802 212 l 555 212 l 555 43 q 544 13 555 25 q 517 0 532 0 l 423 0 q 397 13 408 0 q 386 43 386 26 l 386 212 l 129 212 z "},"":{"ha":463,"x_min":159,"x_max":304,"o":"m 197 629 q 170 642 181 629 q 159 673 159 655 l 159 1230 q 171 1260 159 1247 q 197 1273 182 1273 l 267 1273 q 293 1260 282 1273 q 304 1230 304 1247 l 304 673 q 293 642 304 655 q 266 629 281 629 l 197 629 m 159 393 q 171 423 159 410 q 197 436 182 436 l 267 436 q 293 423 282 436 q 304 393 304 410 l 304 -170 q 293 -200 304 -187 q 266 -213 281 -213 l 197 -213 q 170 -200 181 -213 q 159 -170 159 -187 l 159 393 z "},"":{"ha":924,"x_min":101,"x_max":814,"o":"m 265 719 q 151 947 151 827 q 251 1149 151 1070 q 475 1222 343 1222 q 671 1181 572 1222 q 752 1134 732 1156 q 771 1105 771 1113 q 770 1092 771 1097 q 766 1079 769 1088 q 755 1058 762 1071 l 739 1023 q 703 991 723 991 q 674 1002 692 991 q 632 1026 656 1013 q 582 1048 608 1039 q 481 1071 524 1071 q 410 1063 438 1071 q 360 1040 381 1055 q 315 943 315 1006 q 448 791 315 852 q 527 758 484 775 q 623 714 570 741 q 719 650 676 688 q 814 441 814 566 q 724 228 814 313 q 663 183 696 202 q 729 106 711 136 q 764 -16 764 50 q 735 -138 764 -81 q 659 -233 706 -195 q 435 -314 564 -314 q 175 -259 292 -314 q 101 -185 101 -224 q 105 -168 101 -177 l 134 -106 q 171 -83 145 -83 q 197 -92 182 -83 q 239 -114 213 -100 q 295 -138 265 -127 q 415 -165 363 -165 q 498 -155 466 -165 q 552 -127 530 -146 q 600 -18 600 -87 q 463 122 600 64 l 385 153 q 126 363 192 229 q 102 467 102 414 q 114 557 102 520 q 147 624 125 593 q 265 719 189 683 m 538 256 q 616 317 582 266 q 652 421 652 372 q 631 498 652 470 q 578 549 611 527 q 418 623 527 584 l 383 636 q 274 537 303 614 q 263 475 263 509 q 279 415 263 440 q 319 369 294 389 q 375 334 344 349 l 538 256 z "},"":{"ha":705,"x_min":84,"x_max":623,"o":"m 522 893 q 450 924 480 893 q 420 997 420 953 q 482 1091 420 1064 q 522 1099 500 1099 q 593 1069 563 1099 q 623 1007 623 1040 q 614 956 623 975 q 593 924 606 937 q 522 893 564 893 m 185 893 q 114 924 144 893 q 84 997 84 953 q 146 1091 84 1064 q 185 1099 164 1099 q 256 1069 227 1099 q 286 1007 286 1040 q 278 956 286 975 q 256 924 270 937 q 185 893 227 893 z "},"":{"ha":1156,"x_min":58,"x_max":1099,"o":"m 211 147 q 175 182 211 147 q 99 312 140 216 q 58 520 58 407 q 99 728 58 633 q 211 893 140 823 q 376 1001 281 962 q 561 1040 471 1040 q 717 1023 650 1040 q 841 972 783 1005 q 946 893 899 939 q 1027 788 994 846 q 1099 520 1099 667 q 1027 251 1099 373 q 841 68 960 135 q 596 -1 722 -1 q 376 38 471 -1 q 211 147 281 77 m 182 519 q 213 359 182 432 q 297 233 243 286 q 579 121 412 121 q 859 233 746 121 q 975 520 975 347 q 859 807 975 693 q 579 919 746 919 q 297 807 412 919 q 182 519 182 694 m 704 566 q 659 609 659 566 q 638 666 659 649 q 588 682 618 682 q 537 669 559 682 q 502 635 516 656 q 472 544 472 591 q 480 467 472 496 q 505 416 488 438 q 599 370 540 370 q 663 384 635 370 q 703 406 691 399 q 725 412 715 412 q 758 392 746 412 q 774 344 774 359 q 755 312 774 329 q 709 282 736 294 q 594 257 652 257 q 491 277 536 257 q 413 333 446 297 q 344 530 344 410 q 414 718 344 645 q 589 788 482 788 q 736 736 686 788 q 781 629 781 692 q 718 566 781 566 l 704 566 z "},"":{"ha":810,"x_min":81,"x_max":628,"o":"m 498 505 q 300 407 432 407 q 149 458 212 407 q 81 610 81 515 q 155 768 81 715 q 312 812 216 812 q 471 762 408 812 q 472 776 472 767 l 472 787 q 432 892 472 858 q 335 926 393 926 q 248 915 278 926 q 203 897 217 904 q 165 884 176 884 q 145 896 155 884 q 129 922 135 907 q 117 968 117 951 q 140 1003 117 985 q 199 1032 164 1020 q 332 1056 269 1056 q 444 1039 396 1056 q 526 989 491 1022 q 600 800 600 920 q 583 662 600 749 q 628 454 628 548 q 593 418 628 418 l 543 418 q 507 441 511 418 q 506 459 507 448 q 498 505 504 480 m 227 611 q 227 591 227 611 q 255 550 227 572 q 317 528 283 528 q 375 536 352 528 q 415 557 397 545 q 453 614 450 583 q 406 671 445 648 q 337 694 368 694 q 290 689 307 694 q 258 673 273 684 q 227 611 227 650 z "},"":{"ha":1040,"x_min":106,"x_max":933,"o":"m 131 327 q 106 380 106 351 q 132 435 106 409 l 398 701 q 436 722 418 722 q 467 709 453 722 l 515 663 q 528 637 528 650 q 510 595 528 611 l 288 381 l 505 170 q 519 144 519 155 q 503 104 519 121 l 460 58 q 429 45 448 45 q 399 57 410 45 l 131 327 m 536 327 q 512 380 512 351 q 538 435 512 409 l 804 701 q 841 722 824 722 q 872 709 859 722 l 920 663 q 933 637 933 650 q 916 595 933 611 l 694 381 l 910 170 q 924 144 924 155 q 908 104 924 121 l 865 58 q 835 45 854 45 q 805 57 816 45 l 536 327 z "},"":{"ha":1040,"x_min":90,"x_max":901,"o":"m 127 456 q 100 466 111 456 q 90 490 90 476 l 90 551 q 100 574 90 564 q 127 583 111 583 l 863 583 q 889 573 878 583 q 901 547 901 563 l 901 197 q 890 170 901 181 q 865 159 880 159 l 808 159 q 781 170 791 159 q 771 197 771 181 l 771 456 l 127 456 z "},"":{"ha":1158,"x_min":0,"x_max":0,"o":""},"":{"ha":1156,"x_min":58,"x_max":1099,"o":"m 211 147 q 175 182 211 147 q 99 312 140 216 q 58 520 58 407 q 99 728 58 633 q 211 893 140 823 q 376 1001 281 962 q 561 1040 471 1040 q 717 1023 650 1040 q 841 972 783 1005 q 946 893 899 939 q 1027 788 994 846 q 1099 520 1099 667 q 1027 251 1099 373 q 841 68 960 135 q 596 -1 722 -1 q 376 38 471 -1 q 211 147 281 77 m 182 519 q 213 359 182 432 q 297 233 243 286 q 579 121 412 121 q 859 233 746 121 q 975 520 975 347 q 859 807 975 693 q 579 919 746 919 q 297 807 412 919 q 182 519 182 694 m 730 257 q 498 453 604 257 l 498 297 q 489 275 498 286 q 460 263 481 263 l 428 263 q 391 286 399 263 q 389 297 389 292 l 389 740 q 428 783 389 783 l 583 783 q 779 692 732 783 q 795 619 795 660 q 780 548 795 578 q 741 495 766 517 q 617 447 689 447 l 610 447 q 602 448 606 447 q 734 368 666 368 l 774 373 q 804 323 796 373 q 806 309 806 313 q 784 272 806 288 q 730 257 763 257 m 673 612 q 570 684 673 684 l 498 684 l 498 534 q 524 529 509 532 q 563 525 538 525 q 606 529 587 525 q 640 544 626 534 q 673 612 673 566 z "},"":{"ha":463,"x_min":26,"x_max":437,"o":"m 56 930 q 35 937 44 930 q 26 956 26 944 l 26 1044 q 35 1062 26 1055 q 56 1069 44 1069 l 407 1069 q 428 1062 419 1069 q 437 1043 437 1055 l 437 955 q 428 937 437 944 q 407 930 419 930 l 56 930 z "},"":{"ha":578,"x_min":35,"x_max":542,"o":"m 289 618 q 190 638 237 618 q 109 692 144 658 q 35 875 35 767 q 109 1057 35 982 q 289 1131 183 1131 q 467 1057 393 1131 q 542 875 542 982 q 467 692 542 767 q 289 618 393 618 m 289 748 q 335 758 313 748 q 374 784 357 767 q 410 875 410 821 q 374 964 410 928 q 289 1000 339 1000 q 202 964 237 1000 q 167 875 167 928 q 202 784 167 821 q 289 748 237 748 z "},"":{"ha":924,"x_min":90,"x_max":835,"o":"m 394 464 l 127 464 q 100 474 111 464 q 90 497 90 484 l 90 562 q 100 585 90 575 q 127 594 111 594 l 394 594 l 394 791 q 404 817 394 806 q 427 828 414 828 l 498 828 q 521 817 511 828 q 530 791 530 806 l 530 594 l 797 594 q 824 584 812 594 q 835 558 835 574 l 835 501 q 824 474 835 484 q 797 464 812 464 l 530 464 l 530 258 q 520 232 530 243 q 494 220 510 220 l 431 220 q 404 232 414 220 q 394 258 394 243 l 394 464 m 127 3 q 100 13 111 3 q 90 37 90 23 l 90 101 q 100 124 90 115 q 127 134 111 134 l 797 134 q 824 123 812 134 q 835 98 835 113 l 835 41 q 824 14 835 24 q 797 3 812 3 l 127 3 z "},"":{"ha":691,"x_min":68,"x_max":593,"o":"m 119 579 q 81 613 81 579 l 81 665 q 90 709 81 702 q 116 725 98 716 q 167 754 134 734 q 236 801 201 775 q 306 856 272 827 q 368 917 340 886 q 427 1042 427 988 q 389 1124 427 1098 q 327 1145 359 1145 q 276 1141 296 1145 q 240 1126 257 1136 q 192 1074 204 1105 q 170 1036 180 1043 q 146 1029 159 1029 q 68 1080 68 1029 q 152 1217 68 1164 q 321 1265 228 1265 q 546 1156 480 1265 q 570 1063 570 1115 q 556 972 570 1010 q 518 901 542 934 q 465 839 495 867 q 404 786 435 810 q 340 743 372 762 l 283 708 l 263 697 l 559 708 q 587 698 581 709 q 593 669 593 687 l 593 611 q 583 586 593 592 q 554 579 573 579 l 119 579 z "},"":{"ha":692,"x_min":75,"x_max":587,"o":"m 557 1087 q 435 934 557 982 q 546 878 503 925 q 587 775 587 833 q 563 676 587 716 q 500 610 538 635 q 317 563 428 563 q 146 594 220 563 q 83 642 105 611 q 75 664 75 653 q 81 684 75 675 l 101 713 q 133 739 116 739 q 164 728 149 739 q 198 708 179 716 q 237 695 216 701 q 313 684 279 684 q 369 690 346 684 q 408 707 391 695 q 445 777 445 732 q 401 842 445 819 q 310 863 362 863 l 281 863 q 260 871 266 863 q 254 897 255 880 l 253 943 q 275 970 251 967 q 412 1072 412 990 q 378 1128 412 1107 q 313 1145 350 1145 q 176 1084 227 1145 q 110 1103 154 1054 q 95 1118 103 1110 q 87 1142 87 1125 q 115 1193 87 1168 q 166 1230 142 1218 q 216 1249 190 1241 q 313 1264 269 1264 q 400 1256 357 1264 q 477 1226 443 1247 q 557 1087 557 1179 z "},"":{"ha":466,"x_min":118,"x_max":467,"o":"m 194 874 q 174 869 185 869 q 156 878 162 869 l 123 924 q 118 940 118 931 q 132 962 118 949 l 341 1152 q 373 1168 358 1168 q 408 1153 397 1168 l 459 1088 q 467 1067 467 1078 q 440 1024 466 1040 l 194 874 z "},"":{"ha":925,"x_min":128,"x_max":810,"o":"m 281 28 l 295 -320 q 255 -368 298 -368 l 171 -368 q 128 -317 128 -368 l 128 720 q 140 752 128 739 q 174 765 152 765 l 248 765 q 293 720 293 765 l 293 319 q 373 132 293 157 q 430 123 398 123 q 497 139 463 123 q 560 180 532 155 q 623 315 623 239 l 623 720 q 635 752 623 739 q 671 765 646 765 l 743 765 q 777 752 766 765 q 788 720 788 739 l 788 296 q 808 66 788 153 q 810 46 810 58 q 768 0 810 0 l 738 0 q 684 33 697 0 q 654 136 670 70 q 560 26 627 70 q 420 -16 494 -16 q 281 28 347 -16 z "},"":{"ha":1042,"x_min":142,"x_max":885,"o":"m 743 1003 q 753 1029 743 1019 q 776 1040 762 1040 l 854 1040 q 876 1029 867 1040 q 885 1003 885 1019 l 885 37 q 876 11 885 22 q 853 0 867 0 l 775 0 q 752 11 762 0 q 743 37 743 22 l 743 1003 m 564 1040 q 618 991 618 1040 l 618 34 q 610 10 618 20 q 583 0 602 0 l 513 0 q 484 11 492 0 q 476 34 476 22 l 476 446 q 236 525 329 446 q 142 736 142 606 q 238 956 142 870 q 477 1040 332 1040 l 564 1040 z "},"":{"ha":348,"x_min":58,"x_max":290,"o":"m 58 405 q 92 488 58 453 q 175 523 126 523 q 256 488 223 523 q 290 405 290 453 q 256 321 290 356 q 175 286 222 286 q 92 321 127 286 q 58 405 58 356 z "},"":{"ha":344,"x_min":-124,"x_max":213,"o":"m 7 31 l 70 31 q 114 -1 70 31 q 213 -170 213 -75 q 165 -279 213 -237 q 30 -323 115 -323 q -61 -309 -26 -323 q -124 -250 -124 -282 q -121 -236 -124 -242 q -114 -217 -119 -230 q -82 -184 -101 -184 q -64 -187 -74 -184 l -41 -194 q 18 -205 -7 -205 q 62 -186 43 -205 q 82 -141 82 -168 q 71 -92 82 -113 q 43 -52 59 -70 q 12 -18 28 -33 q -15 7 -5 -3 l 7 31 z "},"":{"ha":460,"x_min":20,"x_max":340,"o":"m 232 580 q 207 592 216 580 q 197 621 197 604 l 197 1051 l 201 1101 q 119 1071 157 1079 q 68 1063 81 1063 q 49 1066 56 1063 q 37 1076 41 1069 q 24 1105 29 1085 q 20 1137 20 1126 q 61 1173 20 1163 q 219 1238 153 1194 q 250 1257 236 1250 q 286 1264 263 1264 q 325 1248 309 1264 q 340 1204 340 1232 l 340 621 q 329 592 340 604 q 304 580 319 580 l 232 580 z "},"":{"ha":694,"x_min":58,"x_max":640,"o":"m 345 407 q 135 498 214 407 q 58 731 58 587 q 133 966 58 880 q 348 1056 210 1056 q 564 966 486 1056 q 640 731 640 879 q 559 496 640 586 q 345 407 478 407 m 279 549 q 348 530 307 530 q 416 547 389 530 q 461 591 444 564 q 494 730 494 645 q 415 916 494 869 q 347 933 387 933 q 279 916 307 933 q 235 871 252 899 q 203 731 203 821 q 279 549 203 598 z "},"":{"ha":1040,"x_min":102,"x_max":939,"o":"m 498 452 q 523 398 523 427 q 497 344 523 370 l 231 77 q 194 57 211 57 q 163 69 176 57 l 115 115 q 102 142 102 128 q 119 184 102 168 l 341 397 l 125 609 q 111 635 111 623 q 127 674 111 658 l 170 721 q 200 734 181 734 q 230 722 219 734 l 498 452 m 915 452 q 939 398 939 427 q 913 344 939 370 l 648 77 q 610 57 627 57 q 579 69 593 57 l 531 115 q 518 142 518 128 q 536 184 518 168 l 758 397 l 541 609 q 527 635 527 623 q 543 674 527 658 l 586 721 q 616 734 597 734 q 646 722 635 734 l 915 452 z "},"":{"ha":1501,"x_min":101,"x_max":1409,"o":"m 823 258 l 1142 642 q 1206 685 1177 681 q 1223 686 1215 686 l 1246 686 q 1292 677 1280 686 q 1316 610 1316 660 l 1316 248 l 1374 237 q 1402 226 1394 234 q 1409 202 1409 218 l 1409 172 q 1401 146 1409 157 q 1370 135 1392 135 l 1315 135 l 1315 40 q 1304 12 1315 23 q 1280 0 1293 0 l 1217 0 q 1194 12 1203 0 q 1184 41 1184 23 l 1184 134 l 861 134 q 825 148 840 134 q 800 202 800 173 q 823 258 800 232 m 1185 255 l 1185 469 l 1186 525 l 1149 473 l 963 255 l 1185 255 m 313 423 q 288 435 298 423 q 279 465 279 447 l 279 895 l 282 944 q 200 915 239 922 q 150 907 162 907 q 130 910 138 907 q 118 919 123 913 q 106 949 111 928 q 101 981 101 969 q 142 1016 101 1006 q 300 1082 235 1037 q 331 1100 317 1093 q 368 1107 345 1107 q 406 1092 391 1107 q 421 1047 421 1076 l 421 465 q 411 435 421 447 q 385 423 400 423 l 313 423 m 307 19 q 288 47 288 32 q 295 73 288 62 l 998 1073 q 1031 1094 1013 1094 q 1050 1088 1042 1094 l 1100 1057 q 1116 1031 1116 1047 q 1107 1004 1116 1015 l 406 3 q 378 -20 389 -20 q 347 -9 361 -20 l 307 19 z "},"":{"ha":1615,"x_min":101,"x_max":1411,"o":"m 313 424 q 288 436 298 424 q 279 465 279 448 l 279 895 l 282 945 q 200 915 239 923 q 150 907 162 907 q 130 910 138 907 q 118 920 123 913 q 106 949 111 929 q 101 981 101 970 q 142 1017 101 1007 q 300 1082 235 1038 q 331 1101 317 1094 q 368 1108 345 1108 q 406 1092 391 1108 q 421 1048 421 1076 l 421 465 q 411 436 421 448 q 385 424 400 424 l 313 424 m 938 0 q 899 34 899 0 l 899 85 q 908 130 899 123 q 935 146 917 137 q 986 175 952 155 q 1055 222 1019 196 q 1125 277 1090 248 q 1186 338 1159 307 q 1246 463 1246 409 q 1208 545 1246 519 q 1146 566 1177 566 q 1095 562 1114 566 q 1059 547 1076 557 q 1011 495 1023 526 q 988 457 999 464 q 965 450 977 450 q 886 500 886 450 q 970 637 886 585 q 1140 686 1046 686 q 1364 576 1299 686 q 1389 484 1389 536 q 1375 393 1389 431 q 1337 321 1360 355 q 1284 260 1314 288 q 1222 207 1254 231 q 1159 164 1190 183 l 1102 129 l 1082 118 l 1377 129 q 1405 119 1399 130 q 1411 90 1411 108 l 1411 32 q 1401 6 1411 13 q 1373 0 1392 0 l 938 0 m 294 19 q 274 47 274 32 q 281 73 274 62 l 985 1073 q 1018 1094 999 1094 q 1037 1088 1028 1094 l 1086 1057 q 1102 1031 1102 1047 q 1093 1004 1102 1015 l 393 3 q 365 -20 376 -20 q 334 -9 348 -20 l 294 19 z "},"":{"ha":1616,"x_min":75,"x_max":1518,"o":"m 932 258 l 1251 642 q 1314 685 1285 681 q 1332 686 1323 686 l 1354 686 q 1400 677 1388 686 q 1424 610 1424 660 l 1424 248 l 1482 237 q 1510 226 1503 234 q 1518 202 1518 218 l 1518 172 q 1509 146 1518 157 q 1478 135 1501 135 l 1423 135 l 1423 40 q 1413 12 1423 23 q 1388 0 1402 0 l 1326 0 q 1302 12 1312 0 q 1293 41 1293 23 l 1293 134 l 970 134 q 934 148 949 134 q 908 202 908 173 q 932 258 908 232 m 1294 255 l 1294 469 l 1295 525 l 1257 473 l 1072 255 l 1294 255 m 557 930 q 435 777 557 825 q 546 722 503 768 q 587 618 587 677 q 563 519 587 559 q 500 454 538 479 q 317 406 428 406 q 146 437 220 406 q 83 486 105 454 q 75 507 75 496 q 81 528 75 518 l 101 557 q 133 583 116 583 q 164 571 149 583 q 198 552 179 559 q 237 538 216 544 q 313 528 279 528 q 369 533 346 528 q 408 550 391 538 q 445 621 445 575 q 401 685 445 662 q 310 706 362 706 l 281 706 q 260 714 266 706 q 254 740 255 723 l 253 786 q 275 813 251 810 q 412 915 412 833 q 378 971 412 951 q 313 989 350 989 q 176 927 227 989 q 110 947 154 897 q 95 961 103 954 q 87 986 87 968 q 115 1037 87 1012 q 166 1073 142 1061 q 216 1092 190 1084 q 313 1107 269 1107 q 400 1099 357 1107 q 477 1070 443 1090 q 557 930 557 1023 m 414 19 q 395 47 395 32 q 402 73 395 62 l 1105 1073 q 1139 1094 1120 1094 q 1158 1088 1149 1094 l 1207 1057 q 1223 1031 1223 1047 q 1214 1004 1223 1015 l 513 3 q 486 -20 496 -20 q 454 -9 469 -20 l 414 19 z "},"":{"ha":813,"x_min":91,"x_max":722,"o":"m 649 -12 q 722 -94 722 -12 q 636 -288 722 -216 q 418 -358 551 -358 q 170 -269 256 -358 q 91 -45 91 -187 q 200 223 91 100 q 441 390 295 329 q 459 395 452 395 q 472 393 466 395 q 484 384 477 391 q 511 342 500 368 q 522 303 522 317 q 507 276 522 290 q 466 248 491 263 q 356 164 389 199 q 306 103 323 130 q 280 51 290 76 q 262 -34 262 6 q 271 -105 262 -73 q 299 -161 280 -136 q 414 -218 342 -218 q 564 -71 564 -218 q 569 -31 564 -40 q 606 -12 578 -12 l 649 -12 m 553 633 q 519 550 553 585 q 437 515 486 515 q 355 550 389 515 q 321 633 321 585 q 355 718 321 682 q 437 753 389 753 q 519 718 485 753 q 553 633 553 682 z "},"":{"ha":1042,"x_min":46,"x_max":996,"o":"m 86 0 q 56 13 66 0 q 46 34 46 25 q 48 49 46 43 l 391 970 q 465 1038 414 1030 q 507 1040 482 1040 l 518 1040 q 582 1028 564 1040 q 626 972 610 1010 l 994 48 q 996 33 996 43 q 988 12 996 23 q 961 0 980 0 l 866 0 q 823 29 835 0 l 739 250 l 293 250 l 215 29 q 174 0 205 0 l 86 0 m 682 396 l 519 837 q 511 844 517 844 q 503 837 505 844 l 346 396 l 682 396 m 281 1200 q 252 1235 252 1210 q 258 1255 252 1244 l 294 1333 q 322 1351 302 1351 q 359 1340 343 1351 l 608 1197 q 618 1165 629 1185 l 597 1120 q 559 1106 586 1097 l 281 1200 z "},"":{"ha":1042,"x_min":46,"x_max":996,"o":"m 86 0 q 56 13 66 0 q 46 34 46 25 q 48 49 46 43 l 391 970 q 465 1038 414 1030 q 507 1040 482 1040 l 518 1040 q 582 1028 564 1040 q 626 972 610 1010 l 994 48 q 996 33 996 43 q 988 12 996 23 q 961 0 980 0 l 866 0 q 823 29 835 0 l 739 250 l 293 250 l 215 29 q 174 0 205 0 l 86 0 m 682 396 l 519 837 q 511 844 517 844 q 503 837 505 844 l 346 396 l 682 396 m 441 1106 q 402 1120 414 1097 l 381 1165 q 391 1197 371 1185 l 640 1340 q 671 1351 656 1351 q 705 1333 698 1351 l 742 1255 q 747 1235 747 1244 q 718 1200 747 1210 l 441 1106 z "},"":{"ha":1042,"x_min":46,"x_max":996,"o":"m 86 0 q 56 13 66 0 q 46 34 46 25 q 48 49 46 43 l 391 970 q 465 1038 414 1030 q 507 1040 482 1040 l 518 1040 q 582 1028 564 1040 q 626 972 610 1010 l 994 48 q 996 33 996 43 q 988 12 996 23 q 961 0 980 0 l 866 0 q 823 29 835 0 l 739 250 l 293 250 l 215 29 q 174 0 205 0 l 86 0 m 682 396 l 519 837 q 511 844 517 844 q 503 837 505 844 l 346 396 l 682 396 m 334 1128 q 316 1122 326 1122 q 298 1131 306 1122 l 262 1170 q 256 1188 256 1177 q 264 1206 256 1199 l 400 1329 q 436 1344 417 1344 l 560 1344 q 597 1329 581 1344 l 732 1208 q 743 1186 743 1199 q 734 1164 743 1174 l 707 1134 q 686 1123 696 1123 q 669 1128 675 1123 l 497 1240 l 334 1128 z "},"":{"ha":1042,"x_min":46,"x_max":996,"o":"m 86 0 q 56 13 66 0 q 46 34 46 25 q 48 49 46 43 l 391 970 q 465 1038 414 1030 q 507 1040 482 1040 l 518 1040 q 582 1028 564 1040 q 626 972 610 1010 l 994 48 q 996 33 996 43 q 988 12 996 23 q 961 0 980 0 l 866 0 q 823 29 835 0 l 739 250 l 293 250 l 215 29 q 174 0 205 0 l 86 0 m 682 396 l 519 837 q 511 844 517 844 q 503 837 505 844 l 346 396 l 682 396 m 263 1147 q 241 1183 234 1154 q 262 1238 248 1212 q 296 1286 275 1264 q 397 1336 340 1336 q 500 1295 444 1336 l 541 1267 q 573 1254 559 1254 q 595 1259 587 1254 q 609 1272 603 1264 q 627 1304 623 1286 q 640 1336 632 1321 q 659 1350 647 1350 q 677 1348 670 1350 l 728 1335 q 754 1318 751 1328 q 754 1282 758 1309 q 735 1224 750 1255 q 700 1172 721 1194 q 595 1122 653 1122 q 486 1161 543 1122 l 446 1189 q 368 1173 399 1221 q 358 1153 361 1164 q 341 1133 354 1141 q 309 1130 329 1125 l 263 1147 z "},"":{"ha":1042,"x_min":46,"x_max":996,"o":"m 86 0 q 56 13 66 0 q 46 34 46 25 q 48 49 46 43 l 391 970 q 465 1038 414 1030 q 507 1040 482 1040 l 518 1040 q 582 1028 564 1040 q 626 972 610 1010 l 994 48 q 996 33 996 43 q 988 12 996 23 q 961 0 980 0 l 866 0 q 823 29 835 0 l 739 250 l 293 250 l 215 29 q 174 0 205 0 l 86 0 m 682 396 l 519 837 q 511 844 517 844 q 503 837 505 844 l 346 396 l 682 396 m 667 1131 q 595 1161 625 1131 q 566 1235 566 1191 q 627 1329 566 1302 q 667 1337 646 1337 q 738 1308 708 1337 q 768 1245 768 1278 q 760 1194 768 1213 q 738 1161 751 1175 q 667 1131 709 1131 m 395 1161 q 388 1154 395 1161 q 363 1139 381 1147 q 324 1131 345 1131 q 284 1139 303 1131 q 252 1161 266 1147 q 222 1224 222 1192 q 231 1275 222 1256 q 252 1308 239 1294 q 325 1337 282 1337 q 395 1308 364 1337 q 425 1246 425 1279 q 417 1194 425 1213 q 395 1161 409 1175 z "},"":{"ha":1042,"x_min":46,"x_max":996,"o":"m 86 0 q 56 13 66 0 q 46 34 46 25 q 48 49 46 43 l 391 970 q 465 1038 414 1030 q 507 1040 482 1040 l 518 1040 q 582 1028 564 1040 q 626 972 610 1010 l 994 48 q 996 33 996 43 q 988 12 996 23 q 961 0 980 0 l 866 0 q 823 29 835 0 l 739 250 l 293 250 l 215 29 q 174 0 205 0 l 86 0 m 682 396 l 519 837 q 511 844 517 844 q 503 837 505 844 l 346 396 l 682 396 m 500 967 q 428 981 463 967 q 366 1020 393 995 q 308 1156 308 1074 q 366 1291 308 1237 q 501 1343 422 1343 q 635 1291 579 1343 q 693 1156 693 1236 q 635 1020 693 1076 q 500 967 579 967 m 445 1097 q 450 1092 445 1097 q 471 1081 456 1086 q 501 1076 486 1076 q 531 1081 516 1076 q 557 1097 545 1086 q 583 1147 583 1120 q 575 1188 583 1174 q 557 1213 568 1203 q 510 1234 534 1234 q 471 1229 486 1234 q 444 1213 456 1223 q 418 1164 418 1191 q 426 1122 418 1137 q 445 1097 433 1107 z "},"":{"ha":1270,"x_min":45,"x_max":1179,"o":"m 85 0 q 55 13 65 0 q 45 34 45 25 q 47 49 45 43 l 386 970 q 426 1027 401 1013 q 498 1040 447 1040 l 1139 1040 q 1166 1028 1157 1040 q 1175 1001 1175 1017 l 1175 928 q 1166 901 1175 912 q 1139 890 1157 890 l 658 890 l 735 610 l 1095 610 q 1121 598 1112 610 q 1131 571 1131 587 l 1131 498 q 1121 471 1131 482 q 1095 460 1112 460 l 777 460 l 861 150 l 1143 150 q 1170 139 1160 150 q 1179 111 1179 127 l 1179 38 q 1170 11 1179 22 q 1143 0 1160 0 l 779 0 q 735 29 745 0 l 675 250 l 292 250 l 216 29 q 174 0 206 0 l 85 0 m 628 396 l 513 850 q 504 857 511 857 q 496 850 498 857 l 342 396 l 628 396 z "},"":{"ha":1038,"x_min":75,"x_max":891,"o":"m 600 -16 q 681 -170 681 -86 q 633 -279 681 -237 q 498 -323 583 -323 q 407 -309 442 -323 q 344 -250 344 -282 q 347 -236 344 -242 q 354 -217 349 -230 q 386 -184 367 -184 q 404 -187 394 -184 l 427 -194 q 486 -205 461 -205 q 530 -186 511 -205 q 550 -143 550 -168 q 542 -100 550 -118 q 522 -65 534 -81 q 496 -35 510 -49 l 471 -10 q 177 168 283 19 q 75 530 75 312 q 202 911 75 769 q 559 1058 332 1058 q 780 1002 684 1058 q 891 819 891 939 q 817 735 891 735 l 770 735 q 736 751 748 735 q 723 795 724 767 q 705 847 721 823 q 665 884 690 870 q 545 911 620 911 q 414 879 469 911 q 324 795 358 848 q 259 530 259 696 q 453 156 259 233 q 570 133 513 133 q 751 170 673 133 l 789 188 q 822 196 808 196 q 845 189 836 196 q 867 157 854 182 q 880 113 880 132 q 867 76 880 94 q 836 45 854 58 q 760 10 802 23 q 600 -16 685 -12 z "},"":{"ha":924,"x_min":159,"x_max":832,"o":"m 159 996 q 170 1027 159 1014 q 197 1040 181 1040 l 793 1040 q 820 1028 810 1040 q 829 1001 829 1017 l 829 928 q 820 901 829 912 q 793 890 810 890 l 329 890 l 329 593 l 698 593 q 725 582 715 593 q 734 554 734 570 l 734 481 q 725 454 734 465 q 698 443 715 443 l 329 443 l 329 150 l 796 150 q 823 139 814 150 q 832 111 832 127 l 832 38 q 823 11 832 22 q 796 0 814 0 l 196 0 q 170 13 180 0 q 159 43 159 26 l 159 996 m 264 1200 q 235 1235 235 1210 q 241 1255 235 1244 l 277 1333 q 306 1351 285 1351 q 342 1340 326 1351 l 591 1197 q 602 1165 612 1185 l 581 1120 q 542 1106 569 1097 l 264 1200 z "},"":{"ha":924,"x_min":159,"x_max":832,"o":"m 159 996 q 170 1027 159 1014 q 197 1040 181 1040 l 793 1040 q 820 1028 810 1040 q 829 1001 829 1017 l 829 928 q 820 901 829 912 q 793 890 810 890 l 329 890 l 329 593 l 698 593 q 725 582 715 593 q 734 554 734 570 l 734 481 q 725 454 734 465 q 698 443 715 443 l 329 443 l 329 150 l 796 150 q 823 139 814 150 q 832 111 832 127 l 832 38 q 823 11 832 22 q 796 0 814 0 l 196 0 q 170 13 180 0 q 159 43 159 26 l 159 996 m 441 1106 q 402 1120 414 1097 l 381 1165 q 391 1197 371 1185 l 640 1340 q 671 1351 656 1351 q 705 1333 698 1351 l 742 1255 q 747 1235 747 1244 q 718 1200 747 1210 l 441 1106 z "},"":{"ha":924,"x_min":159,"x_max":832,"o":"m 159 996 q 170 1027 159 1014 q 197 1040 181 1040 l 793 1040 q 820 1028 810 1040 q 829 1001 829 1017 l 829 928 q 820 901 829 912 q 793 890 810 890 l 329 890 l 329 593 l 698 593 q 725 582 715 593 q 734 554 734 570 l 734 481 q 725 454 734 465 q 698 443 715 443 l 329 443 l 329 150 l 796 150 q 823 139 814 150 q 832 111 832 127 l 832 38 q 823 11 832 22 q 796 0 814 0 l 196 0 q 170 13 180 0 q 159 43 159 26 l 159 996 m 326 1128 q 309 1122 319 1122 q 290 1131 298 1122 l 254 1170 q 248 1188 248 1177 q 257 1206 248 1199 l 393 1329 q 429 1344 410 1344 l 553 1344 q 590 1329 573 1344 l 724 1208 q 736 1186 736 1199 q 726 1164 736 1174 l 699 1134 q 679 1123 689 1123 q 661 1128 668 1123 l 490 1240 l 326 1128 z "},"":{"ha":924,"x_min":159,"x_max":832,"o":"m 159 996 q 170 1027 159 1014 q 197 1040 181 1040 l 793 1040 q 820 1028 810 1040 q 829 1001 829 1017 l 829 928 q 820 901 829 912 q 793 890 810 890 l 329 890 l 329 593 l 698 593 q 725 582 715 593 q 734 554 734 570 l 734 481 q 725 454 734 465 q 698 443 715 443 l 329 443 l 329 150 l 796 150 q 823 139 814 150 q 832 111 832 127 l 832 38 q 823 11 832 22 q 796 0 814 0 l 196 0 q 170 13 180 0 q 159 43 159 26 l 159 996 m 668 1131 q 596 1161 627 1131 q 567 1235 567 1191 q 629 1329 567 1302 q 668 1337 647 1337 q 739 1308 709 1337 q 769 1245 769 1278 q 761 1194 769 1213 q 739 1161 753 1175 q 668 1131 710 1131 m 396 1161 q 389 1154 396 1161 q 365 1139 382 1147 q 326 1131 347 1131 q 286 1139 304 1131 q 254 1161 267 1147 q 224 1224 224 1192 q 232 1275 224 1256 q 254 1308 240 1294 q 326 1337 283 1337 q 397 1308 366 1337 q 426 1246 426 1279 q 418 1194 426 1213 q 396 1161 410 1175 z "},"":{"ha":463,"x_min":-8,"x_max":368,"o":"m 146 996 q 158 1027 146 1014 q 184 1040 169 1040 l 279 1040 q 306 1027 295 1040 q 317 996 317 1014 l 317 43 q 306 13 317 26 q 279 0 294 0 l 184 0 q 157 13 168 0 q 146 43 146 26 l 146 996 m 21 1200 q -8 1235 -8 1210 q -3 1255 -8 1244 l 34 1333 q 62 1351 41 1351 q 99 1340 83 1351 l 348 1197 q 358 1165 368 1185 l 337 1120 q 298 1106 326 1097 l 21 1200 z "},"":{"ha":463,"x_min":108,"x_max":484,"o":"m 146 996 q 158 1027 146 1014 q 184 1040 169 1040 l 279 1040 q 306 1027 295 1040 q 317 996 317 1014 l 317 43 q 306 13 317 26 q 279 0 294 0 l 184 0 q 157 13 168 0 q 146 43 146 26 l 146 996 m 178 1106 q 139 1120 151 1097 l 118 1165 q 128 1197 108 1185 l 377 1340 q 408 1351 393 1351 q 442 1333 435 1351 l 479 1255 q 484 1235 484 1244 q 455 1200 484 1210 l 178 1106 z "},"":{"ha":463,"x_min":-10,"x_max":477,"o":"m 146 996 q 158 1027 146 1014 q 184 1040 169 1040 l 279 1040 q 306 1027 295 1040 q 317 996 317 1014 l 317 43 q 306 13 317 26 q 279 0 294 0 l 184 0 q 157 13 168 0 q 146 43 146 26 l 146 996 m 68 1128 q 50 1122 60 1122 q 32 1131 40 1122 l -4 1170 q -10 1188 -10 1177 q -1 1206 -10 1199 l 134 1329 q 170 1344 151 1344 l 294 1344 q 332 1329 315 1344 l 466 1208 q 477 1186 477 1199 q 468 1164 477 1174 l 441 1134 q 420 1123 431 1123 q 403 1128 410 1123 l 231 1240 l 68 1128 z "},"":{"ha":463,"x_min":-41,"x_max":505,"o":"m 146 996 q 158 1027 146 1014 q 184 1040 169 1040 l 279 1040 q 306 1027 295 1040 q 317 996 317 1014 l 317 43 q 306 13 317 26 q 279 0 294 0 l 184 0 q 157 13 168 0 q 146 43 146 26 l 146 996 m 404 1131 q 332 1161 362 1131 q 302 1235 302 1191 q 364 1329 302 1302 q 404 1337 382 1337 q 475 1308 445 1337 q 505 1245 505 1278 q 496 1194 505 1213 q 475 1161 488 1175 q 404 1131 446 1131 m 132 1161 q 125 1154 132 1161 q 100 1139 118 1147 q 61 1131 82 1131 q 21 1139 40 1131 q -11 1161 3 1147 q -41 1224 -41 1192 q -33 1275 -41 1256 q -11 1308 -24 1294 q 62 1337 19 1337 q 132 1308 101 1337 q 161 1246 161 1279 q 154 1194 161 1213 q 132 1161 146 1175 z "},"":{"ha":1040,"x_min":33,"x_max":970,"o":"m 161 445 l 62 445 q 42 452 51 445 q 33 471 33 459 l 33 562 q 42 579 33 572 q 62 587 51 587 l 161 587 l 161 981 q 177 1022 161 1004 q 222 1040 193 1040 l 437 1040 q 841 907 705 1040 q 970 543 970 779 q 825 145 970 290 q 425 0 680 0 l 222 0 q 177 18 193 0 q 161 60 161 36 l 161 445 m 457 890 l 423 890 q 332 888 401 890 l 332 587 l 531 587 q 552 579 543 587 q 561 561 561 572 l 561 477 q 552 453 561 461 q 531 445 543 445 l 332 445 l 332 150 l 442 148 l 446 148 q 769 374 709 148 q 789 537 789 448 q 767 691 789 626 q 704 800 746 755 q 457 890 619 890 z "},"":{"ha":1154,"x_min":163,"x_max":996,"o":"m 163 956 q 237 1040 163 1040 l 264 1040 q 303 1033 292 1040 q 341 994 323 1021 l 778 351 q 817 284 803 315 l 845 226 q 847 224 846 224 q 848 242 849 224 q 841 293 846 260 q 836 360 836 327 l 836 998 q 846 1028 836 1016 q 871 1040 857 1040 l 961 1040 q 986 1028 975 1040 q 996 998 996 1016 l 996 68 q 979 26 996 41 q 928 0 951 0 l 886 0 q 837 11 852 0 q 780 77 814 28 q 365 689 393 644 l 309 783 q 305 785 307 785 q 304 775 302 785 q 310 741 307 765 q 317 688 314 717 q 324 562 324 620 l 324 41 q 314 12 324 24 q 288 0 303 0 l 199 0 q 174 12 184 0 q 163 41 163 24 l 163 956 m 368 1147 q 346 1183 339 1154 q 367 1238 353 1212 q 401 1286 380 1264 q 502 1336 446 1336 q 606 1295 549 1336 l 646 1267 q 678 1254 665 1254 q 700 1259 692 1254 q 714 1272 708 1264 q 732 1304 728 1286 q 745 1336 737 1321 q 764 1350 752 1350 q 783 1348 775 1350 l 833 1335 q 860 1318 857 1328 q 859 1282 863 1309 q 841 1224 855 1255 q 805 1172 826 1194 q 701 1122 758 1122 q 591 1161 648 1122 l 551 1189 q 473 1173 505 1221 q 463 1153 467 1164 q 447 1133 459 1141 q 414 1130 434 1125 l 368 1147 z "},"":{"ha":1159,"x_min":78,"x_max":1081,"o":"m 138 257 q 123 287 138 257 q 93 386 109 317 q 78 549 78 455 q 114 740 78 643 q 217 907 151 837 q 581 1057 357 1057 q 953 904 818 1057 q 1081 527 1081 760 q 940 141 1081 296 q 781 25 873 68 q 592 -17 688 -17 q 430 3 497 -17 q 308 59 363 23 q 210 146 252 96 q 138 257 167 196 m 262 532 q 280 384 262 454 q 338 259 299 314 q 578 139 423 139 q 819 254 734 139 q 897 528 897 359 q 818 789 897 686 q 579 901 730 901 q 347 797 433 901 q 262 532 262 694 m 370 1200 q 341 1235 341 1210 q 347 1255 341 1244 l 383 1333 q 411 1351 391 1351 q 448 1340 432 1351 l 697 1197 q 707 1165 718 1185 l 686 1120 q 648 1106 675 1097 l 370 1200 z "},"":{"ha":1159,"x_min":78,"x_max":1081,"o":"m 138 257 q 123 287 138 257 q 93 386 109 317 q 78 549 78 455 q 114 740 78 643 q 217 907 151 837 q 581 1057 357 1057 q 953 904 818 1057 q 1081 527 1081 760 q 940 141 1081 296 q 781 25 873 68 q 592 -17 688 -17 q 430 3 497 -17 q 308 59 363 23 q 210 146 252 96 q 138 257 167 196 m 262 532 q 280 384 262 454 q 338 259 299 314 q 578 139 423 139 q 819 254 734 139 q 897 528 897 359 q 818 789 897 686 q 579 901 730 901 q 347 797 433 901 q 262 532 262 694 m 523 1106 q 484 1120 496 1097 l 463 1165 q 473 1197 453 1185 l 722 1340 q 753 1351 739 1351 q 787 1333 780 1351 l 824 1255 q 829 1235 829 1244 q 800 1200 829 1210 l 523 1106 z "},"":{"ha":1159,"x_min":78,"x_max":1081,"o":"m 138 257 q 123 287 138 257 q 93 386 109 317 q 78 549 78 455 q 114 740 78 643 q 217 907 151 837 q 581 1057 357 1057 q 953 904 818 1057 q 1081 527 1081 760 q 940 141 1081 296 q 781 25 873 68 q 592 -17 688 -17 q 430 3 497 -17 q 308 59 363 23 q 210 146 252 96 q 138 257 167 196 m 262 532 q 280 384 262 454 q 338 259 299 314 q 578 139 423 139 q 819 254 734 139 q 897 528 897 359 q 818 789 897 686 q 579 901 730 901 q 347 797 433 901 q 262 532 262 694 m 412 1128 q 395 1122 405 1122 q 376 1131 385 1122 l 340 1170 q 334 1188 334 1177 q 343 1206 334 1199 l 479 1329 q 515 1344 496 1344 l 639 1344 q 676 1329 659 1344 l 810 1208 q 822 1186 822 1199 q 812 1164 822 1174 l 785 1134 q 765 1123 775 1123 q 747 1128 754 1123 l 576 1240 l 412 1128 z "},"":{"ha":1159,"x_min":78,"x_max":1081,"o":"m 138 257 q 123 287 138 257 q 93 386 109 317 q 78 549 78 455 q 114 740 78 643 q 217 907 151 837 q 581 1057 357 1057 q 953 904 818 1057 q 1081 527 1081 760 q 940 141 1081 296 q 781 25 873 68 q 592 -17 688 -17 q 430 3 497 -17 q 308 59 363 23 q 210 146 252 96 q 138 257 167 196 m 262 532 q 280 384 262 454 q 338 259 299 314 q 578 139 423 139 q 819 254 734 139 q 897 528 897 359 q 818 789 897 686 q 579 901 730 901 q 347 797 433 901 q 262 532 262 694 m 342 1147 q 320 1183 313 1154 q 341 1238 328 1212 q 375 1286 355 1264 q 476 1336 420 1336 q 580 1295 523 1336 l 621 1267 q 652 1254 639 1254 q 674 1259 666 1254 q 688 1272 682 1264 q 707 1304 702 1286 q 719 1336 711 1321 q 738 1350 726 1350 q 757 1348 749 1350 l 808 1335 q 834 1318 831 1328 q 833 1282 837 1309 q 815 1224 829 1255 q 779 1172 800 1194 q 675 1122 732 1122 q 565 1161 623 1122 l 526 1189 q 447 1173 479 1221 q 437 1153 441 1164 q 421 1133 433 1141 q 389 1130 408 1125 l 342 1147 z "},"":{"ha":1159,"x_min":78,"x_max":1081,"o":"m 138 257 q 123 287 138 257 q 93 386 109 317 q 78 549 78 455 q 114 740 78 643 q 217 907 151 837 q 581 1057 357 1057 q 953 904 818 1057 q 1081 527 1081 760 q 940 141 1081 296 q 781 25 873 68 q 592 -17 688 -17 q 430 3 497 -17 q 308 59 363 23 q 210 146 252 96 q 138 257 167 196 m 262 532 q 280 384 262 454 q 338 259 299 314 q 578 139 423 139 q 819 254 734 139 q 897 528 897 359 q 818 789 897 686 q 579 901 730 901 q 347 797 433 901 q 262 532 262 694 m 749 1131 q 677 1161 707 1131 q 648 1235 648 1191 q 709 1329 648 1302 q 749 1337 728 1337 q 820 1308 790 1337 q 850 1245 850 1278 q 842 1194 850 1213 q 820 1161 833 1175 q 749 1131 791 1131 m 477 1161 q 470 1154 477 1161 q 445 1139 463 1147 q 406 1131 427 1131 q 367 1139 385 1131 q 334 1161 348 1147 q 304 1224 304 1192 q 313 1275 304 1256 q 334 1308 321 1294 q 407 1337 364 1337 q 477 1308 446 1337 q 507 1246 507 1279 q 499 1194 507 1213 q 477 1161 491 1175 z "},"":{"ha":809,"x_min":115,"x_max":705,"o":"m 128 170 q 117 196 117 181 q 129 223 117 212 l 316 410 l 127 600 q 115 626 115 610 q 124 650 115 641 l 170 695 q 189 703 178 703 q 219 692 208 703 l 408 503 l 593 688 q 619 699 604 699 q 643 690 634 699 l 692 640 q 701 621 701 632 q 689 591 701 602 l 504 406 l 693 218 q 705 191 705 205 q 694 165 705 176 l 654 125 q 628 115 643 115 q 601 126 612 115 l 412 315 l 225 127 q 198 115 213 115 q 173 125 184 115 l 128 170 z "},"":{"ha":1159,"x_min":78,"x_max":1081,"o":"m 568 -17 q 343 38 448 -17 l 300 -31 q 276 -52 289 -52 q 256 -47 262 -52 l 199 -10 q 185 12 185 -1 q 191 33 185 24 l 240 113 q 88 409 121 227 q 78 528 78 467 q 217 907 78 759 q 581 1058 357 1058 q 803 1014 705 1058 l 850 1089 q 877 1109 863 1109 q 898 1104 890 1109 l 946 1078 q 968 1052 968 1065 q 962 1029 968 1039 l 910 946 q 1081 527 1081 800 q 940 141 1081 296 q 568 -17 797 -17 m 722 883 q 581 914 658 914 q 443 886 503 914 q 340 806 382 857 q 252 528 252 699 q 329 254 252 363 l 722 883 m 424 166 q 577 128 492 128 q 724 160 662 128 q 826 246 785 192 q 907 528 907 354 q 821 803 907 695 l 424 166 z "},"":{"ha":1152,"x_min":163,"x_max":989,"o":"m 574 134 q 821 414 821 134 l 821 996 q 832 1027 821 1014 q 859 1040 843 1040 l 951 1040 q 978 1027 967 1040 q 989 996 989 1014 l 989 416 q 867 90 989 207 q 575 -18 755 -18 q 281 94 395 -18 q 163 416 163 210 l 163 996 q 174 1027 163 1014 q 201 1040 185 1040 l 294 1040 q 320 1027 309 1040 q 331 996 331 1014 l 331 414 q 399 202 331 274 q 574 134 463 134 m 352 1200 q 323 1235 323 1210 q 328 1255 323 1244 l 365 1333 q 393 1351 372 1351 q 430 1340 414 1351 l 679 1197 q 689 1165 699 1185 l 668 1120 q 629 1106 656 1097 l 352 1200 z "},"":{"ha":1152,"x_min":163,"x_max":989,"o":"m 574 134 q 821 414 821 134 l 821 996 q 832 1027 821 1014 q 859 1040 843 1040 l 951 1040 q 978 1027 967 1040 q 989 996 989 1014 l 989 416 q 867 90 989 207 q 575 -18 755 -18 q 281 94 395 -18 q 163 416 163 210 l 163 996 q 174 1027 163 1014 q 201 1040 185 1040 l 294 1040 q 320 1027 309 1040 q 331 996 331 1014 l 331 414 q 399 202 331 274 q 574 134 463 134 m 523 1106 q 484 1120 496 1097 l 463 1165 q 473 1197 453 1185 l 722 1340 q 753 1351 739 1351 q 787 1333 780 1351 l 824 1255 q 829 1235 829 1244 q 800 1200 829 1210 l 523 1106 z "},"":{"ha":1152,"x_min":163,"x_max":989,"o":"m 574 134 q 821 414 821 134 l 821 996 q 832 1027 821 1014 q 859 1040 843 1040 l 951 1040 q 978 1027 967 1040 q 989 996 989 1014 l 989 416 q 867 90 989 207 q 575 -18 755 -18 q 281 94 395 -18 q 163 416 163 210 l 163 996 q 174 1027 163 1014 q 201 1040 185 1040 l 294 1040 q 320 1027 309 1040 q 331 996 331 1014 l 331 414 q 399 202 331 274 q 574 134 463 134 m 413 1128 q 395 1122 406 1122 q 377 1131 385 1122 l 341 1170 q 335 1188 335 1177 q 344 1206 335 1199 l 479 1329 q 515 1344 496 1344 l 640 1344 q 677 1329 660 1344 l 811 1208 q 823 1186 823 1199 q 813 1164 823 1174 l 786 1134 q 765 1123 776 1123 q 748 1128 755 1123 l 576 1240 l 413 1128 z "},"":{"ha":1152,"x_min":163,"x_max":989,"o":"m 574 134 q 821 414 821 134 l 821 996 q 832 1027 821 1014 q 859 1040 843 1040 l 951 1040 q 978 1027 967 1040 q 989 996 989 1014 l 989 416 q 867 90 989 207 q 575 -18 755 -18 q 281 94 395 -18 q 163 416 163 210 l 163 996 q 174 1027 163 1014 q 201 1040 185 1040 l 294 1040 q 320 1027 309 1040 q 331 996 331 1014 l 331 414 q 399 202 331 274 q 574 134 463 134 m 749 1131 q 677 1161 707 1131 q 648 1235 648 1191 q 709 1329 648 1302 q 749 1337 728 1337 q 820 1308 790 1337 q 850 1245 850 1278 q 842 1194 850 1213 q 820 1161 833 1175 q 749 1131 791 1131 m 477 1161 q 470 1154 477 1161 q 445 1139 463 1147 q 406 1131 427 1131 q 367 1139 385 1131 q 334 1161 348 1147 q 304 1224 304 1192 q 313 1275 304 1256 q 334 1308 321 1294 q 407 1337 364 1337 q 477 1308 446 1337 q 507 1246 507 1279 q 499 1194 507 1213 q 477 1161 491 1175 z "},"":{"ha":919,"x_min":11,"x_max":914,"o":"m 386 349 l 17 985 q 11 1007 11 995 q 20 1029 11 1019 q 42 1040 28 1040 l 151 1040 q 190 1021 179 1040 q 196 1010 193 1016 l 467 515 q 472 509 469 509 q 512 570 474 509 q 612 751 550 631 q 725 999 673 871 q 744 1029 733 1019 q 777 1040 755 1040 l 882 1040 q 906 1028 898 1040 q 914 1003 914 1017 q 909 977 914 989 q 555 359 733 614 l 555 43 q 544 13 555 25 q 517 0 532 0 l 423 0 q 397 13 408 0 q 386 43 386 26 l 386 349 m 418 1106 q 379 1120 391 1097 l 358 1165 q 368 1197 348 1185 l 617 1340 q 648 1351 633 1351 q 682 1333 675 1351 l 719 1255 q 724 1235 724 1244 q 695 1200 724 1210 l 418 1106 z "},"":{"ha":922,"x_min":162,"x_max":881,"o":"m 763 262 q 735 240 763 262 q 633 194 708 217 q 486 170 557 170 q 332 180 414 170 l 332 43 q 322 14 332 28 q 294 0 313 0 l 199 0 q 172 13 182 0 q 162 42 162 26 l 162 996 q 173 1027 162 1014 q 200 1040 184 1040 l 295 1040 q 321 1027 311 1040 q 332 996 332 1014 l 332 880 l 484 880 q 853 686 772 880 q 881 531 881 621 q 849 374 881 441 q 763 262 818 307 m 332 323 q 439 314 385 314 q 542 322 494 314 q 625 355 589 331 q 703 533 703 406 q 583 718 703 677 q 488 732 542 732 l 332 732 l 332 323 z "},"":{"ha":1040,"x_min":159,"x_max":983,"o":"m 159 757 q 182 970 159 899 q 231 1080 204 1040 q 297 1149 257 1120 q 518 1207 379 1207 q 735 1138 659 1207 q 805 975 805 1074 q 772 838 805 895 q 734 783 757 810 l 685 722 q 645 640 645 670 q 655 592 645 609 q 684 563 666 576 q 760 523 711 543 q 849 480 809 503 q 918 425 888 458 q 983 239 983 352 q 897 50 983 124 q 709 -17 817 -17 q 514 18 600 -17 q 426 99 426 53 q 433 126 426 112 l 452 168 q 494 199 467 199 q 522 192 507 199 l 556 174 q 694 134 635 134 q 785 159 752 134 q 819 233 819 184 q 745 348 819 305 q 685 376 722 361 q 612 413 649 390 q 549 465 576 436 q 493 614 493 528 q 564 789 493 696 q 621 882 607 846 q 634 945 634 918 q 628 992 634 972 q 609 1025 623 1011 q 520 1058 579 1058 q 424 1037 460 1058 q 365 978 387 1016 q 325 768 325 909 l 325 44 q 314 13 325 26 q 288 0 303 0 l 195 0 q 170 13 180 0 q 159 44 159 26 l 159 757 z "},"":{"ha":810,"x_min":66,"x_max":740,"o":"m 740 36 q 705 0 740 0 l 639 0 q 607 11 612 0 q 601 30 602 21 q 598 50 600 38 q 587 122 594 83 q 420 -6 534 25 q 332 -17 380 -17 q 236 -1 284 -17 q 151 46 188 15 q 66 231 66 117 q 159 423 66 357 q 354 477 235 477 q 556 407 473 477 q 558 465 558 430 q 545 534 558 499 q 506 591 531 568 q 362 637 454 637 q 194 591 279 637 q 165 583 178 583 q 130 618 147 583 q 112 671 112 655 q 157 729 112 701 q 385 782 242 782 q 601 711 515 782 q 702 469 702 625 q 680 295 702 400 q 740 36 737 131 m 286 324 q 272 313 286 324 q 246 283 258 303 q 234 235 234 262 q 244 186 234 208 q 271 151 254 165 q 355 121 309 121 q 431 132 401 121 q 483 160 461 143 q 530 237 530 197 q 473 317 526 288 q 363 345 427 345 q 286 324 313 345 m 229 1024 q 203 1059 204 1040 q 210 1088 202 1078 l 261 1153 q 286 1168 273 1168 q 328 1152 311 1168 l 538 962 q 551 940 551 949 q 547 924 551 931 l 513 878 q 496 869 507 869 q 475 874 484 869 l 229 1024 z "},"":{"ha":810,"x_min":66,"x_max":740,"o":"m 740 36 q 705 0 740 0 l 639 0 q 607 11 612 0 q 601 30 602 21 q 598 50 600 38 q 587 122 594 83 q 420 -6 534 25 q 332 -17 380 -17 q 236 -1 284 -17 q 151 46 188 15 q 66 231 66 117 q 159 423 66 357 q 354 477 235 477 q 556 407 473 477 q 558 465 558 430 q 545 534 558 499 q 506 591 531 568 q 362 637 454 637 q 194 591 279 637 q 165 583 178 583 q 130 618 147 583 q 112 671 112 655 q 157 729 112 701 q 385 782 242 782 q 601 711 515 782 q 702 469 702 625 q 680 295 702 400 q 740 36 737 131 m 286 324 q 272 313 286 324 q 246 283 258 303 q 234 235 234 262 q 244 186 234 208 q 271 151 254 165 q 355 121 309 121 q 431 132 401 121 q 483 160 461 143 q 530 237 530 197 q 473 317 526 288 q 363 345 427 345 q 286 324 313 345 m 379 874 q 359 869 370 869 q 341 878 347 869 l 308 924 q 303 940 303 931 q 317 962 303 949 l 526 1152 q 558 1168 543 1168 q 593 1153 582 1168 l 644 1088 q 652 1067 652 1078 q 625 1024 651 1040 l 379 874 z "},"":{"ha":810,"x_min":66,"x_max":740,"o":"m 740 36 q 705 0 740 0 l 639 0 q 607 11 612 0 q 601 30 602 21 q 598 50 600 38 q 587 122 594 83 q 420 -6 534 25 q 332 -17 380 -17 q 236 -1 284 -17 q 151 46 188 15 q 66 231 66 117 q 159 423 66 357 q 354 477 235 477 q 556 407 473 477 q 558 465 558 430 q 545 534 558 499 q 506 591 531 568 q 362 637 454 637 q 194 591 279 637 q 165 583 178 583 q 130 618 147 583 q 112 671 112 655 q 157 729 112 701 q 385 782 242 782 q 601 711 515 782 q 702 469 702 625 q 680 295 702 400 q 740 36 737 131 m 286 324 q 272 313 286 324 q 246 283 258 303 q 234 235 234 262 q 244 186 234 208 q 271 151 254 165 q 355 121 309 121 q 431 132 401 121 q 483 160 461 143 q 530 237 530 197 q 473 317 526 288 q 363 345 427 345 q 286 324 313 345 m 235 873 q 215 882 225 873 l 177 914 q 165 934 165 924 q 174 956 165 945 l 308 1120 q 366 1151 332 1151 l 435 1151 q 494 1119 468 1151 l 623 956 q 632 933 632 944 q 621 913 632 922 l 585 884 q 562 872 570 872 q 545 880 553 872 l 399 1018 l 257 883 q 235 873 245 873 z "},"":{"ha":810,"x_min":66,"x_max":740,"o":"m 740 36 q 705 0 740 0 l 639 0 q 607 11 612 0 q 601 30 602 21 q 598 50 600 38 q 587 122 594 83 q 420 -6 534 25 q 332 -17 380 -17 q 236 -1 284 -17 q 151 46 188 15 q 66 231 66 117 q 159 423 66 357 q 354 477 235 477 q 556 407 473 477 q 558 465 558 430 q 545 534 558 499 q 506 591 531 568 q 362 637 454 637 q 194 591 279 637 q 165 583 178 583 q 130 618 147 583 q 112 671 112 655 q 157 729 112 701 q 385 782 242 782 q 601 711 515 782 q 702 469 702 625 q 680 295 702 400 q 740 36 737 131 m 286 324 q 272 313 286 324 q 246 283 258 303 q 234 235 234 262 q 244 186 234 208 q 271 151 254 165 q 355 121 309 121 q 431 132 401 121 q 483 160 461 143 q 530 237 530 197 q 473 317 526 288 q 363 345 427 345 q 286 324 313 345 m 260 926 q 247 906 256 915 q 230 898 238 898 q 220 898 222 898 q 212 901 218 899 q 194 907 205 903 l 164 918 q 142 946 142 925 q 154 995 142 968 q 187 1047 166 1022 q 298 1107 238 1107 q 401 1066 345 1107 l 442 1038 q 474 1025 460 1025 q 496 1030 488 1025 q 510 1042 504 1035 q 528 1075 524 1057 q 541 1106 533 1093 q 567 1120 549 1120 q 577 1119 569 1120 l 597 1114 q 652 1095 646 1103 q 659 1067 659 1086 q 647 1016 659 1048 q 613 956 635 984 q 496 893 564 893 q 387 933 444 893 l 347 961 q 312 974 328 974 q 260 926 275 974 z "},"":{"ha":810,"x_min":66,"x_max":740,"o":"m 740 36 q 705 0 740 0 l 639 0 q 607 11 612 0 q 601 30 602 21 q 598 50 600 38 q 587 122 594 83 q 420 -6 534 25 q 332 -17 380 -17 q 236 -1 284 -17 q 151 46 188 15 q 66 231 66 117 q 159 423 66 357 q 354 477 235 477 q 556 407 473 477 q 558 465 558 430 q 545 534 558 499 q 506 591 531 568 q 362 637 454 637 q 194 591 279 637 q 165 583 178 583 q 130 618 147 583 q 112 671 112 655 q 157 729 112 701 q 385 782 242 782 q 601 711 515 782 q 702 469 702 625 q 680 295 702 400 q 740 36 737 131 m 286 324 q 272 313 286 324 q 246 283 258 303 q 234 235 234 262 q 244 186 234 208 q 271 151 254 165 q 355 121 309 121 q 431 132 401 121 q 483 160 461 143 q 530 237 530 197 q 473 317 526 288 q 363 345 427 345 q 286 324 313 345 m 568 893 q 497 924 527 893 q 467 997 467 953 q 529 1091 467 1064 q 568 1099 547 1099 q 640 1069 610 1099 q 669 1007 669 1040 q 661 956 669 975 q 640 924 653 937 q 568 893 610 893 m 232 893 q 161 924 191 893 q 131 997 131 953 q 193 1091 131 1064 q 232 1099 211 1099 q 303 1069 273 1099 q 333 1007 333 1040 q 325 956 333 975 q 303 924 317 937 q 232 893 274 893 z "},"":{"ha":810,"x_min":66,"x_max":740,"o":"m 740 36 q 705 0 740 0 l 639 0 q 607 11 612 0 q 601 30 602 21 q 598 50 600 38 q 587 122 594 83 q 420 -6 534 25 q 332 -17 380 -17 q 236 -1 284 -17 q 151 46 188 15 q 66 231 66 117 q 159 423 66 357 q 354 477 235 477 q 556 407 473 477 q 558 465 558 430 q 545 534 558 499 q 506 591 531 568 q 362 637 454 637 q 194 591 279 637 q 165 583 178 583 q 130 618 147 583 q 112 671 112 655 q 157 729 112 701 q 385 782 242 782 q 601 711 515 782 q 702 469 702 625 q 680 295 702 400 q 740 36 737 131 m 286 324 q 272 313 286 324 q 246 283 258 303 q 234 235 234 262 q 244 186 234 208 q 271 151 254 165 q 355 121 309 121 q 431 132 401 121 q 483 160 461 143 q 530 237 530 197 q 473 317 526 288 q 363 345 427 345 q 286 324 313 345 m 405 844 q 332 858 367 844 q 270 897 297 872 q 212 1033 212 951 q 270 1168 212 1114 q 406 1220 326 1220 q 539 1168 484 1220 q 597 1033 597 1114 q 539 897 597 953 q 405 844 484 844 m 349 974 q 355 969 349 974 q 375 959 361 964 q 405 954 390 954 q 435 959 420 954 q 461 974 450 964 q 487 1024 487 997 q 480 1066 487 1051 q 461 1090 473 1080 q 414 1111 438 1111 q 375 1106 390 1111 q 349 1090 361 1101 q 323 1041 323 1068 q 330 999 323 1014 q 349 974 337 984 z "},"":{"ha":1271,"x_min":66,"x_max":1192,"o":"m 873 317 q 694 346 799 317 q 754 184 689 246 q 927 123 819 123 q 1104 182 1013 123 q 1131 193 1120 193 q 1166 173 1155 193 l 1185 134 q 1192 106 1192 123 q 1178 72 1192 89 q 1142 41 1164 55 q 1091 16 1120 26 q 1031 -2 1062 5 q 916 -17 968 -17 q 819 -7 864 -17 q 735 22 774 3 q 613 134 654 62 q 507 28 583 72 q 334 -17 429 -17 q 151 46 226 -17 q 66 231 66 117 q 159 423 66 357 q 354 477 235 477 q 556 407 473 477 q 558 465 558 430 q 545 534 558 499 q 506 591 531 568 q 362 637 454 637 q 194 591 279 637 q 165 583 178 583 q 130 618 147 583 q 112 671 112 655 q 157 729 112 701 q 385 782 242 782 q 642 654 557 782 q 913 783 732 783 q 1114 721 1038 783 q 1192 541 1192 656 q 1100 368 1192 428 q 873 317 1020 317 m 858 438 q 1035 543 1035 438 q 966 633 1035 610 q 906 642 942 642 q 835 630 869 642 q 773 595 800 618 q 701 465 713 547 q 782 444 731 450 q 858 438 832 438 m 239 286 q 227 235 227 264 q 237 184 227 206 q 266 146 248 161 q 353 116 304 116 q 434 127 402 116 q 488 157 465 139 q 537 237 537 194 q 478 321 532 291 q 362 350 429 350 q 239 286 276 350 z "},"":{"ha":809,"x_min":82,"x_max":734,"o":"m 500 -14 q 584 -170 584 -87 q 536 -279 584 -237 q 401 -323 486 -323 q 310 -309 345 -323 q 247 -250 247 -282 q 250 -236 247 -242 q 258 -217 252 -230 q 289 -184 270 -184 q 307 -187 297 -184 l 330 -194 q 389 -205 364 -205 q 433 -186 414 -205 q 453 -143 453 -168 q 445 -99 453 -117 q 425 -64 437 -81 q 399 -35 413 -48 l 373 -9 q 159 121 237 15 q 82 387 82 227 q 186 677 82 570 q 450 782 287 782 q 670 707 593 782 q 734 545 734 642 q 650 463 734 463 l 634 463 q 578 518 578 463 q 540 614 578 581 q 451 644 507 644 q 358 621 395 644 q 298 562 321 597 q 254 392 254 491 q 366 149 254 207 q 456 128 407 128 q 538 139 506 128 q 595 163 570 150 q 638 186 620 176 q 669 197 657 197 q 708 175 694 197 l 723 150 q 733 113 733 132 q 711 71 733 94 q 655 31 689 49 q 500 -14 587 -3 z "},"":{"ha":810,"x_min":77,"x_max":734,"o":"m 239 345 l 238 332 q 297 183 238 239 q 465 123 359 123 q 644 181 561 123 q 671 192 659 192 q 709 167 696 192 l 728 129 q 734 100 734 115 q 720 67 734 84 q 684 37 706 51 q 632 14 661 24 q 571 -3 602 3 q 441 -17 509 -17 q 304 9 373 -17 q 185 84 235 35 q 77 368 77 189 q 298 759 77 682 q 440 783 368 783 q 565 767 513 783 q 653 721 616 751 q 732 541 732 656 q 640 368 732 428 q 427 316 559 316 q 239 345 345 316 m 572 543 q 442 640 572 640 q 269 549 318 640 q 245 471 251 517 q 394 441 304 441 q 572 543 572 441 m 219 1024 q 193 1059 194 1040 q 200 1088 192 1078 l 251 1153 q 276 1168 262 1168 q 318 1152 301 1168 l 528 962 q 541 940 541 949 q 536 924 541 931 l 503 878 q 486 869 497 869 q 465 874 474 869 l 219 1024 z "},"":{"ha":810,"x_min":77,"x_max":734,"o":"m 239 345 l 238 332 q 297 183 238 239 q 465 123 359 123 q 644 181 561 123 q 671 192 659 192 q 709 167 696 192 l 728 129 q 734 100 734 115 q 720 67 734 84 q 684 37 706 51 q 632 14 661 24 q 571 -3 602 3 q 441 -17 509 -17 q 304 9 373 -17 q 185 84 235 35 q 77 368 77 189 q 298 759 77 682 q 440 783 368 783 q 565 767 513 783 q 653 721 616 751 q 732 541 732 656 q 640 368 732 428 q 427 316 559 316 q 239 345 345 316 m 572 543 q 442 640 572 640 q 269 549 318 640 q 245 471 251 517 q 394 441 304 441 q 572 543 572 441 m 386 874 q 366 869 377 869 q 348 878 354 869 l 315 924 q 310 940 310 931 q 323 962 310 949 l 533 1152 q 565 1168 550 1168 q 600 1153 589 1168 l 651 1088 q 659 1067 659 1078 q 632 1024 658 1040 l 386 874 z "},"":{"ha":810,"x_min":77,"x_max":734,"o":"m 239 345 l 238 332 q 297 183 238 239 q 465 123 359 123 q 644 181 561 123 q 671 192 659 192 q 709 167 696 192 l 728 129 q 734 100 734 115 q 720 67 734 84 q 684 37 706 51 q 632 14 661 24 q 571 -3 602 3 q 441 -17 509 -17 q 304 9 373 -17 q 185 84 235 35 q 77 368 77 189 q 298 759 77 682 q 440 783 368 783 q 565 767 513 783 q 653 721 616 751 q 732 541 732 656 q 640 368 732 428 q 427 316 559 316 q 239 345 345 316 m 572 543 q 442 640 572 640 q 269 549 318 640 q 245 471 251 517 q 394 441 304 441 q 572 543 572 441 m 266 874 q 245 883 256 874 l 208 916 q 195 935 195 926 q 204 957 195 946 l 338 1122 q 397 1152 363 1152 l 466 1152 q 525 1120 498 1152 l 654 958 q 663 935 663 945 q 651 914 663 924 l 615 885 q 592 873 601 873 q 575 881 583 873 l 430 1019 l 288 884 q 266 874 276 874 z "},"":{"ha":810,"x_min":77,"x_max":734,"o":"m 239 345 l 238 332 q 297 183 238 239 q 465 123 359 123 q 644 181 561 123 q 671 192 659 192 q 709 167 696 192 l 728 129 q 734 100 734 115 q 720 67 734 84 q 684 37 706 51 q 632 14 661 24 q 571 -3 602 3 q 441 -17 509 -17 q 304 9 373 -17 q 185 84 235 35 q 77 368 77 189 q 298 759 77 682 q 440 783 368 783 q 565 767 513 783 q 653 721 616 751 q 732 541 732 656 q 640 368 732 428 q 427 316 559 316 q 239 345 345 316 m 572 543 q 442 640 572 640 q 269 549 318 640 q 245 471 251 517 q 394 441 304 441 q 572 543 572 441 m 593 893 q 522 924 551 893 q 492 997 492 953 q 553 1091 492 1064 q 593 1099 572 1099 q 664 1069 634 1099 q 694 1007 694 1040 q 686 956 694 975 q 664 924 677 937 q 593 893 635 893 m 256 893 q 185 924 215 893 q 155 997 155 953 q 217 1091 155 1064 q 256 1099 235 1099 q 328 1069 298 1099 q 357 1007 357 1040 q 349 956 357 975 q 328 924 341 937 q 256 893 298 893 z "},"":{"ha":463,"x_min":-21,"x_max":429,"o":"m 287 186 q 319 138 287 138 q 343 144 330 138 q 379 156 370 156 q 402 136 393 156 l 423 89 q 429 67 429 77 q 378 13 429 38 q 284 -12 331 -12 q 210 -1 238 -12 q 163 33 182 9 q 123 191 123 81 l 123 720 q 134 752 123 739 q 160 765 145 765 l 251 765 q 277 752 267 765 q 287 720 287 739 l 287 186 m 6 1024 q -20 1059 -19 1040 q -13 1088 -21 1078 l 38 1153 q 63 1168 50 1168 q 105 1152 88 1168 l 315 962 q 328 940 328 949 q 323 924 328 931 l 290 878 q 273 869 284 869 q 252 874 261 869 l 6 1024 z "},"":{"ha":463,"x_min":102,"x_max":452,"o":"m 287 186 q 319 138 287 138 q 343 144 330 138 q 379 156 370 156 q 402 136 393 156 l 423 89 q 429 67 429 77 q 378 13 429 38 q 284 -12 331 -12 q 210 -1 238 -12 q 163 33 182 9 q 123 191 123 81 l 123 720 q 134 752 123 739 q 160 765 145 765 l 251 765 q 277 752 267 765 q 287 720 287 739 l 287 186 m 178 874 q 158 869 170 869 q 140 878 146 869 l 107 924 q 102 940 102 931 q 116 962 102 949 l 326 1152 q 357 1168 342 1168 q 393 1153 381 1168 l 444 1088 q 451 1067 452 1078 q 425 1024 450 1040 l 178 874 z "},"":{"ha":463,"x_min":-22,"x_max":446,"o":"m 287 186 q 319 138 287 138 q 343 144 330 138 q 379 156 370 156 q 402 136 393 156 l 423 89 q 429 67 429 77 q 378 13 429 38 q 284 -12 331 -12 q 210 -1 238 -12 q 163 33 182 9 q 123 191 123 81 l 123 720 q 134 752 123 739 q 160 765 145 765 l 251 765 q 277 752 267 765 q 287 720 287 739 l 287 186 m 49 873 q 28 882 39 873 l -9 914 q -22 934 -22 924 q -13 956 -22 945 l 121 1120 q 180 1151 146 1151 l 249 1151 q 308 1119 281 1151 l 437 956 q 446 933 446 944 q 434 913 446 922 l 398 884 q 375 872 384 872 q 358 880 366 872 l 213 1018 l 71 883 q 49 873 59 873 z "},"":{"ha":463,"x_min":-60,"x_max":478,"o":"m 287 186 q 319 138 287 138 q 343 144 330 138 q 379 156 370 156 q 402 136 393 156 l 423 89 q 429 67 429 77 q 378 13 429 38 q 284 -12 331 -12 q 210 -1 238 -12 q 163 33 182 9 q 123 191 123 81 l 123 720 q 134 752 123 739 q 160 765 145 765 l 251 765 q 277 752 267 765 q 287 720 287 739 l 287 186 m 377 893 q 306 924 336 893 q 276 997 276 953 q 338 1091 276 1064 q 377 1099 356 1099 q 448 1069 418 1099 q 478 1007 478 1040 q 470 956 478 975 q 448 924 462 937 q 377 893 419 893 m 41 893 q -31 924 -1 893 q -60 997 -60 953 q 1 1091 -60 1064 q 41 1099 20 1099 q 112 1069 82 1099 q 142 1007 142 1040 q 134 956 142 975 q 112 924 125 937 q 41 893 83 893 z "},"":{"ha":924,"x_min":89,"x_max":854,"o":"m 187 96 q 163 123 187 96 q 114 223 139 150 q 89 368 89 296 q 102 489 89 440 q 139 578 115 538 q 195 649 163 618 q 266 701 227 680 q 433 745 345 745 q 586 710 515 745 q 682 629 650 680 l 685 630 q 561 911 671 791 q 482 981 526 950 l 395 870 q 373 859 385 860 q 350 867 362 857 l 311 900 q 298 923 302 907 q 311 956 294 938 l 376 1040 q 270 1074 313 1067 q 215 1084 227 1081 q 195 1092 203 1087 q 182 1135 182 1101 q 235 1202 182 1202 q 343 1182 274 1202 q 455 1143 412 1161 l 534 1246 q 591 1253 557 1277 l 627 1223 q 640 1199 637 1215 q 628 1166 643 1183 l 564 1086 q 789 823 715 989 q 854 492 854 678 q 644 22 854 131 q 473 -17 570 -17 q 305 13 375 -17 q 187 96 235 43 m 262 373 q 278 268 262 315 q 321 189 294 220 q 466 123 377 123 q 637 214 579 123 q 686 416 686 290 l 686 445 q 685 475 686 463 q 451 597 597 597 q 317 543 368 597 q 262 373 262 484 z "},"":{"ha":925,"x_min":125,"x_max":802,"o":"m 125 716 q 172 765 125 765 l 209 765 q 260 736 247 765 q 293 629 279 696 q 475 772 354 741 q 569 782 513 782 q 674 758 626 782 q 750 692 722 734 q 802 466 802 615 l 802 45 q 789 13 802 26 q 753 0 777 0 l 687 0 q 649 13 661 0 q 637 45 637 26 l 637 467 q 509 640 637 640 q 373 578 435 640 q 307 422 307 511 l 307 45 q 296 13 307 26 q 260 0 284 0 l 191 0 q 155 13 167 0 q 142 45 142 26 l 142 461 q 134 651 142 597 q 125 716 125 705 m 332 926 q 319 906 328 915 q 303 898 311 898 q 293 898 295 898 q 284 901 290 899 q 267 907 278 903 l 237 918 q 214 946 214 925 q 227 995 214 968 q 260 1047 239 1022 q 370 1107 311 1107 q 474 1066 417 1107 l 515 1038 q 547 1025 533 1025 q 568 1030 560 1025 q 583 1042 576 1035 q 601 1075 596 1057 q 613 1106 606 1093 q 640 1120 621 1120 q 650 1119 642 1120 l 669 1114 q 725 1095 718 1103 q 731 1067 731 1086 q 719 1016 731 1048 q 686 956 707 984 q 569 893 637 893 q 459 933 517 893 l 420 961 q 385 974 401 974 q 332 926 348 974 z "},"":{"ha":926,"x_min":81,"x_max":846,"o":"m 81 385 q 111 547 81 473 q 192 673 140 621 q 464 782 300 782 q 749 673 648 782 q 846 384 846 568 q 736 94 846 206 q 464 -17 628 -17 q 186 96 291 -17 q 81 385 81 207 m 299 558 q 287 539 299 558 q 262 472 274 520 q 251 375 251 425 q 264 281 251 326 q 304 201 277 236 q 467 123 362 123 q 628 199 573 123 q 677 380 677 266 q 564 617 677 552 q 464 641 523 641 q 365 618 406 641 q 299 558 325 595 m 266 1024 q 240 1059 241 1040 q 247 1088 239 1078 l 298 1153 q 323 1168 309 1168 q 365 1152 348 1168 l 574 962 q 588 940 588 949 q 583 924 588 931 l 550 878 q 532 869 544 869 q 512 874 521 869 l 266 1024 z "},"":{"ha":926,"x_min":81,"x_max":846,"o":"m 81 385 q 111 547 81 473 q 192 673 140 621 q 464 782 300 782 q 749 673 648 782 q 846 384 846 568 q 736 94 846 206 q 464 -17 628 -17 q 186 96 291 -17 q 81 385 81 207 m 299 558 q 287 539 299 558 q 262 472 274 520 q 251 375 251 425 q 264 281 251 326 q 304 201 277 236 q 467 123 362 123 q 628 199 573 123 q 677 380 677 266 q 564 617 677 552 q 464 641 523 641 q 365 618 406 641 q 299 558 325 595 m 450 874 q 430 869 441 869 q 412 878 418 869 l 379 924 q 374 940 374 931 q 388 962 374 949 l 597 1152 q 629 1168 614 1168 q 665 1153 653 1168 l 715 1088 q 723 1067 724 1078 q 696 1024 722 1040 l 450 874 z "},"":{"ha":926,"x_min":81,"x_max":846,"o":"m 81 385 q 111 547 81 473 q 192 673 140 621 q 464 782 300 782 q 749 673 648 782 q 846 384 846 568 q 736 94 846 206 q 464 -17 628 -17 q 186 96 291 -17 q 81 385 81 207 m 299 558 q 287 539 299 558 q 262 472 274 520 q 251 375 251 425 q 264 281 251 326 q 304 201 277 236 q 467 123 362 123 q 628 199 573 123 q 677 380 677 266 q 564 617 677 552 q 464 641 523 641 q 365 618 406 641 q 299 558 325 595 m 302 873 q 281 882 292 873 l 243 914 q 231 934 231 924 q 240 956 231 945 l 374 1120 q 433 1151 399 1151 l 502 1151 q 561 1119 534 1151 l 690 956 q 699 933 699 944 q 687 913 699 922 l 651 884 q 628 872 637 872 q 611 880 619 872 l 466 1018 l 323 883 q 302 873 312 873 z "},"":{"ha":926,"x_min":81,"x_max":846,"o":"m 81 385 q 111 547 81 473 q 192 673 140 621 q 464 782 300 782 q 749 673 648 782 q 846 384 846 568 q 736 94 846 206 q 464 -17 628 -17 q 186 96 291 -17 q 81 385 81 207 m 299 558 q 287 539 299 558 q 262 472 274 520 q 251 375 251 425 q 264 281 251 326 q 304 201 277 236 q 467 123 362 123 q 628 199 573 123 q 677 380 677 266 q 564 617 677 552 q 464 641 523 641 q 365 618 406 641 q 299 558 325 595 m 328 926 q 315 906 323 915 q 298 898 306 898 q 288 898 290 898 q 279 901 286 899 q 262 907 273 903 l 232 918 q 210 946 210 925 q 222 995 210 968 q 255 1047 234 1022 q 366 1107 306 1107 q 469 1066 412 1107 l 510 1038 q 542 1025 528 1025 q 564 1030 555 1025 q 578 1042 572 1035 q 596 1075 591 1057 q 609 1106 601 1093 q 635 1120 616 1120 q 645 1119 637 1120 l 665 1114 q 720 1095 713 1103 q 726 1067 726 1086 q 714 1016 726 1048 q 681 956 703 984 q 564 893 632 893 q 454 933 512 893 l 415 961 q 380 974 396 974 q 328 926 343 974 z "},"":{"ha":926,"x_min":81,"x_max":846,"o":"m 81 385 q 111 547 81 473 q 192 673 140 621 q 464 782 300 782 q 749 673 648 782 q 846 384 846 568 q 736 94 846 206 q 464 -17 628 -17 q 186 96 291 -17 q 81 385 81 207 m 299 558 q 287 539 299 558 q 262 472 274 520 q 251 375 251 425 q 264 281 251 326 q 304 201 277 236 q 467 123 362 123 q 628 199 573 123 q 677 380 677 266 q 564 617 677 552 q 464 641 523 641 q 365 618 406 641 q 299 558 325 595 m 629 893 q 557 924 587 893 q 528 997 528 953 q 589 1091 528 1064 q 629 1099 608 1099 q 700 1069 670 1099 q 730 1007 730 1040 q 722 956 730 975 q 700 924 713 937 q 629 893 671 893 m 292 893 q 221 924 251 893 q 191 997 191 953 q 253 1091 191 1064 q 292 1099 271 1099 q 363 1069 334 1099 q 393 1007 393 1040 q 385 956 393 975 q 363 924 377 937 q 292 893 334 893 z "},"":{"ha":924,"x_min":89,"x_max":834,"o":"m 359 683 q 388 753 359 724 q 447 782 417 782 q 495 774 477 782 q 526 753 513 766 q 555 683 555 724 q 526 612 555 642 q 468 583 498 583 q 388 612 416 583 q 359 683 359 642 m 388 41 q 382 47 388 41 q 367 73 375 54 q 359 112 359 91 q 367 150 359 132 q 388 182 375 168 q 447 211 416 211 q 495 203 477 211 q 526 182 513 195 q 555 121 555 152 q 547 73 555 91 q 526 41 539 54 q 468 12 498 12 q 419 19 437 12 q 388 41 401 27 m 126 333 q 100 343 111 333 q 89 366 89 353 l 89 431 q 100 454 89 444 q 126 463 111 463 l 796 463 q 823 453 812 463 q 834 427 834 443 l 834 370 q 823 343 834 353 q 796 333 812 333 l 126 333 z "},"":{"ha":926,"x_min":81,"x_max":846,"o":"m 463 -17 q 308 12 380 -17 l 267 -56 q 241 -76 254 -76 q 222 -73 229 -76 l 172 -45 q 158 -25 158 -39 q 163 -2 158 -11 l 209 73 q 81 384 81 184 q 192 673 81 561 q 464 782 300 782 q 623 755 555 782 l 661 817 q 686 836 673 836 q 707 832 699 836 l 751 808 q 769 785 769 798 q 764 762 769 772 l 724 696 q 846 384 846 591 q 736 94 846 206 q 463 -17 628 -17 m 555 642 q 457 656 511 656 q 362 632 404 656 q 293 570 320 609 q 242 367 242 494 q 283 195 242 261 l 555 642 m 377 125 q 473 111 421 111 q 567 134 525 111 q 635 195 608 157 q 686 388 686 269 q 646 568 686 496 l 377 125 z "},"":{"ha":925,"x_min":128,"x_max":810,"o":"m 810 46 q 768 0 810 0 l 738 0 q 684 33 697 0 q 654 136 670 70 q 557 24 625 65 q 387 -17 489 -17 q 191 66 254 -17 q 128 311 128 149 l 128 720 q 140 752 128 739 q 174 765 152 765 l 248 765 q 293 720 293 765 l 293 319 q 368 132 293 157 q 426 123 393 123 q 495 139 460 123 q 559 180 531 155 q 623 315 623 239 l 623 720 q 635 752 623 739 q 671 765 646 765 l 743 765 q 777 752 766 765 q 788 720 788 739 l 788 296 q 808 66 788 153 q 810 46 810 58 m 254 1024 q 228 1059 229 1040 q 235 1088 227 1078 l 286 1153 q 311 1168 297 1168 q 353 1152 336 1168 l 562 962 q 576 940 576 949 q 571 924 576 931 l 538 878 q 520 869 532 869 q 500 874 509 869 l 254 1024 z "},"":{"ha":925,"x_min":128,"x_max":810,"o":"m 810 46 q 768 0 810 0 l 738 0 q 684 33 697 0 q 654 136 670 70 q 557 24 625 65 q 387 -17 489 -17 q 191 66 254 -17 q 128 311 128 149 l 128 720 q 140 752 128 739 q 174 765 152 765 l 248 765 q 293 720 293 765 l 293 319 q 368 132 293 157 q 426 123 393 123 q 495 139 460 123 q 559 180 531 155 q 623 315 623 239 l 623 720 q 635 752 623 739 q 671 765 646 765 l 743 765 q 777 752 766 765 q 788 720 788 739 l 788 296 q 808 66 788 153 q 810 46 810 58 m 419 874 q 399 869 410 869 q 381 878 387 869 l 348 924 q 343 940 343 931 q 357 962 343 949 l 566 1152 q 598 1168 583 1168 q 633 1153 622 1168 l 684 1088 q 692 1067 692 1078 q 665 1024 691 1040 l 419 874 z "},"":{"ha":925,"x_min":128,"x_max":810,"o":"m 810 46 q 768 0 810 0 l 738 0 q 684 33 697 0 q 654 136 670 70 q 557 24 625 65 q 387 -17 489 -17 q 191 66 254 -17 q 128 311 128 149 l 128 720 q 140 752 128 739 q 174 765 152 765 l 248 765 q 293 720 293 765 l 293 319 q 368 132 293 157 q 426 123 393 123 q 495 139 460 123 q 559 180 531 155 q 623 315 623 239 l 623 720 q 635 752 623 739 q 671 765 646 765 l 743 765 q 777 752 766 765 q 788 720 788 739 l 788 296 q 808 66 788 153 q 810 46 810 58 m 290 873 q 269 882 279 873 l 231 914 q 219 934 219 924 q 228 956 219 945 l 362 1120 q 420 1151 387 1151 l 490 1151 q 549 1119 522 1151 l 677 956 q 686 933 686 944 q 675 913 686 922 l 639 884 q 616 872 625 872 q 599 880 607 872 l 454 1018 l 311 883 q 290 873 300 873 z "},"":{"ha":925,"x_min":128,"x_max":810,"o":"m 810 46 q 768 0 810 0 l 738 0 q 684 33 697 0 q 654 136 670 70 q 557 24 625 65 q 387 -17 489 -17 q 191 66 254 -17 q 128 311 128 149 l 128 720 q 140 752 128 739 q 174 765 152 765 l 248 765 q 293 720 293 765 l 293 319 q 368 132 293 157 q 426 123 393 123 q 495 139 460 123 q 559 180 531 155 q 623 315 623 239 l 623 720 q 635 752 623 739 q 671 765 646 765 l 743 765 q 777 752 766 765 q 788 720 788 739 l 788 296 q 808 66 788 153 q 810 46 810 58 m 625 893 q 553 924 583 893 q 524 997 524 953 q 585 1091 524 1064 q 625 1099 604 1099 q 696 1069 666 1099 q 726 1007 726 1040 q 718 956 726 975 q 696 924 709 937 q 625 893 667 893 m 288 893 q 217 924 247 893 q 187 997 187 953 q 249 1091 187 1064 q 288 1099 267 1099 q 359 1069 330 1099 q 389 1007 389 1040 q 381 956 389 975 q 359 924 373 937 q 288 893 330 893 z "},"":{"ha":809,"x_min":49,"x_max":753,"o":"m 709 765 q 753 722 753 765 q 701 503 753 673 l 659 374 q 291 -328 511 -52 l 277 -345 q 214 -385 246 -385 q 134 -336 179 -385 q 121 -305 121 -323 q 151 -245 121 -277 q 208 -182 182 -214 q 256 -119 233 -151 q 332 3 298 -61 q 204 345 227 288 l 130 528 l 78 647 q 49 729 49 715 q 61 754 49 744 q 97 765 74 765 l 182 765 q 229 731 212 765 q 262 648 241 706 q 324 463 304 524 l 379 283 q 391 240 387 256 l 397 216 q 402 195 399 208 l 408 170 q 416 156 412 156 q 425 164 420 156 q 435 185 430 172 l 447 214 q 581 721 517 395 q 631 765 589 765 l 709 765 m 351 876 q 331 870 342 870 q 313 880 319 870 l 280 926 q 275 942 275 932 q 289 963 275 951 l 498 1154 q 530 1169 515 1169 q 566 1154 554 1169 l 616 1090 q 624 1069 625 1080 q 597 1025 623 1041 l 351 876 z "},"":{"ha":928,"x_min":138,"x_max":848,"o":"m 180 -382 q 138 -330 138 -382 l 138 1158 q 148 1190 138 1177 q 174 1202 158 1202 l 266 1202 q 292 1190 281 1202 q 302 1158 302 1177 l 302 656 q 551 782 394 782 q 777 673 699 782 q 848 409 848 574 q 755 99 848 216 q 524 -16 664 -16 q 393 19 452 -16 q 298 120 334 55 q 304 -52 304 52 l 304 -332 q 264 -382 304 -382 l 180 -382 m 350 565 q 336 548 350 565 q 307 484 322 530 q 292 387 292 437 q 307 289 292 336 q 349 205 322 242 q 493 123 407 123 q 637 208 589 123 q 677 388 677 277 q 583 623 677 570 q 504 641 551 641 q 418 621 457 641 q 350 565 378 600 z "},"":{"ha":809,"x_min":51,"x_max":755,"o":"m 711 765 q 755 722 755 765 q 703 503 755 673 l 661 374 q 293 -328 513 -52 l 279 -345 q 216 -385 248 -385 q 136 -336 181 -385 q 123 -305 123 -323 q 153 -245 123 -277 q 210 -182 184 -214 q 258 -119 235 -151 q 334 3 300 -61 q 206 345 229 288 l 132 528 l 80 647 q 51 729 51 715 q 63 754 51 744 q 99 765 76 765 l 184 765 q 231 731 214 765 q 264 648 243 706 q 326 463 307 524 l 381 283 q 393 240 389 256 l 399 216 q 404 195 401 208 l 410 170 q 418 156 414 156 q 427 164 422 156 q 437 185 432 172 l 449 214 q 583 721 519 395 q 633 765 591 765 l 711 765 m 575 895 q 504 925 534 895 q 474 998 474 954 q 536 1093 474 1065 q 575 1101 554 1101 q 646 1071 616 1101 q 676 1009 676 1041 q 668 958 676 977 q 646 925 660 939 q 575 895 617 895 m 239 895 q 168 925 197 895 q 138 998 138 954 q 199 1093 138 1065 q 239 1101 218 1101 q 310 1071 280 1101 q 340 1009 340 1041 q 332 958 340 977 q 310 925 323 939 q 239 895 281 895 z "},"":{"ha":1042,"x_min":46,"x_max":996,"o":"m 86 0 q 56 13 66 0 q 46 34 46 25 q 48 49 46 43 l 391 970 q 465 1038 414 1030 q 507 1040 482 1040 l 518 1040 q 582 1028 564 1040 q 626 972 610 1010 l 994 48 q 996 33 996 43 q 988 12 996 23 q 961 0 980 0 l 866 0 q 823 29 835 0 l 739 250 l 293 250 l 215 29 q 174 0 205 0 l 86 0 m 682 396 l 519 837 q 511 844 517 844 q 503 837 505 844 l 346 396 l 682 396 m 320 1162 q 300 1170 309 1162 q 291 1188 291 1177 l 291 1284 q 300 1302 291 1295 q 320 1310 309 1310 l 671 1310 q 692 1302 684 1310 q 701 1284 701 1295 l 701 1187 q 692 1170 701 1177 q 671 1162 684 1162 l 320 1162 z "},"":{"ha":810,"x_min":66,"x_max":740,"o":"m 740 36 q 705 0 740 0 l 639 0 q 607 11 612 0 q 601 30 602 21 q 598 50 600 38 q 587 122 594 83 q 420 -6 534 25 q 332 -17 380 -17 q 236 -1 284 -17 q 151 46 188 15 q 66 231 66 117 q 159 423 66 357 q 354 477 235 477 q 556 407 473 477 q 558 465 558 430 q 545 534 558 499 q 506 591 531 568 q 362 637 454 637 q 194 591 279 637 q 165 583 178 583 q 130 618 147 583 q 112 671 112 655 q 157 729 112 701 q 385 782 242 782 q 601 711 515 782 q 702 469 702 625 q 680 295 702 400 q 740 36 737 131 m 286 324 q 272 313 286 324 q 246 283 258 303 q 234 235 234 262 q 244 186 234 208 q 271 151 254 165 q 355 121 309 121 q 431 132 401 121 q 483 160 461 143 q 530 237 530 197 q 473 317 526 288 q 363 345 427 345 q 286 324 313 345 m 227 930 q 207 937 216 930 q 198 956 198 944 l 198 1044 q 207 1062 198 1055 q 227 1069 216 1069 l 578 1069 q 600 1062 591 1069 q 608 1043 608 1055 l 608 955 q 600 937 608 944 q 578 930 591 930 l 227 930 z "},"":{"ha":1042,"x_min":46,"x_max":996,"o":"m 86 0 q 56 13 66 0 q 46 34 46 25 q 48 49 46 43 l 391 970 q 465 1038 414 1030 q 507 1040 482 1040 l 518 1040 q 582 1028 564 1040 q 626 972 610 1010 l 994 48 q 996 33 996 43 q 988 12 996 23 q 961 0 980 0 l 866 0 q 823 29 835 0 l 739 250 l 293 250 l 215 29 q 174 0 205 0 l 86 0 m 682 396 l 519 837 q 511 844 517 844 q 503 837 505 844 l 346 396 l 682 396 m 494 1127 q 402 1142 444 1127 q 328 1182 359 1156 q 258 1322 258 1238 q 294 1347 258 1345 l 368 1350 q 395 1329 393 1352 q 433 1257 398 1279 q 492 1242 457 1242 q 577 1279 552 1242 q 591 1318 588 1295 q 627 1350 594 1352 l 691 1347 q 724 1318 724 1344 q 660 1184 724 1239 q 494 1127 593 1127 z "},"":{"ha":810,"x_min":66,"x_max":740,"o":"m 740 36 q 705 0 740 0 l 639 0 q 607 11 612 0 q 601 30 602 21 q 598 50 600 38 q 587 122 594 83 q 420 -6 534 25 q 332 -17 380 -17 q 236 -1 284 -17 q 151 46 188 15 q 66 231 66 117 q 159 423 66 357 q 354 477 235 477 q 556 407 473 477 q 558 465 558 430 q 545 534 558 499 q 506 591 531 568 q 362 637 454 637 q 194 591 279 637 q 165 583 178 583 q 130 618 147 583 q 112 671 112 655 q 157 729 112 701 q 385 782 242 782 q 601 711 515 782 q 702 469 702 625 q 680 295 702 400 q 740 36 737 131 m 286 324 q 272 313 286 324 q 246 283 258 303 q 234 235 234 262 q 244 186 234 208 q 271 151 254 165 q 355 121 309 121 q 431 132 401 121 q 483 160 461 143 q 530 237 530 197 q 473 317 526 288 q 363 345 427 345 q 286 324 313 345 m 254 1120 l 270 1121 q 297 1100 295 1121 q 400 989 307 989 q 502 1097 490 989 q 534 1121 504 1121 l 597 1118 q 630 1089 630 1115 q 567 941 630 1003 q 399 875 500 875 q 181 1007 241 875 q 164 1073 164 1045 q 170 1108 164 1100 q 200 1118 176 1116 l 254 1120 z "},"":{"ha":1042,"x_min":46,"x_max":1027,"o":"m 994 -189 q 1027 -250 1027 -189 q 926 -323 1027 -310 q 882 -326 905 -326 q 831 -318 859 -326 q 778 -294 802 -311 q 721 -185 721 -255 q 848 2 721 -76 q 823 29 831 7 l 739 250 l 293 250 l 215 29 q 174 0 205 0 l 86 0 q 56 13 66 0 q 46 34 46 25 q 48 49 46 43 l 391 970 q 465 1038 414 1030 q 507 1040 482 1040 l 518 1040 q 582 1028 564 1040 q 626 972 610 1010 l 994 48 q 996 35 996 43 q 981 5 996 17 l 941 -24 q 850 -156 850 -91 q 916 -206 850 -206 q 963 -198 938 -206 q 994 -189 989 -189 m 682 396 l 519 837 q 511 844 517 844 q 503 837 505 844 l 346 396 l 682 396 z "},"":{"ha":810,"x_min":66,"x_max":758,"o":"m 725 -193 q 758 -241 758 -193 q 748 -286 758 -273 q 725 -306 739 -299 q 696 -317 711 -313 q 636 -323 668 -323 q 575 -314 604 -323 q 524 -287 547 -304 q 474 -184 474 -248 q 608 24 474 -82 q 587 122 602 75 q 420 -6 534 25 q 332 -17 380 -17 q 236 -1 284 -17 q 151 46 188 15 q 66 231 66 117 q 159 423 66 357 q 354 477 235 477 q 556 407 473 477 q 558 465 558 430 q 545 534 558 499 q 506 591 531 568 q 362 637 454 637 q 194 591 279 637 q 165 583 178 583 q 130 618 147 583 q 112 671 112 655 q 157 729 112 701 q 385 782 242 782 q 601 711 515 782 q 702 469 702 625 q 680 295 702 400 q 740 36 737 131 q 727 6 740 15 q 694 -19 713 -3 q 654 -56 674 -35 q 605 -151 605 -110 q 663 -205 605 -205 q 699 -199 682 -205 q 725 -193 715 -193 m 286 324 q 272 313 286 324 q 246 283 258 303 q 234 235 234 262 q 244 186 234 208 q 271 151 254 165 q 355 121 309 121 q 431 132 401 121 q 483 160 461 143 q 530 237 530 197 q 473 317 526 288 q 363 345 427 345 q 286 324 313 345 z "},"":{"ha":924,"x_min":75,"x_max":891,"o":"m 891 819 q 817 735 891 735 l 770 735 q 736 751 748 735 q 723 795 724 767 q 705 847 721 823 q 665 884 690 870 q 545 911 620 911 q 414 879 469 911 q 324 795 358 848 q 259 530 259 696 q 453 156 259 233 q 570 133 513 133 q 751 170 673 133 l 789 188 q 822 196 808 196 q 845 189 836 196 q 867 157 854 182 q 880 113 880 132 q 867 76 880 94 q 836 45 854 58 q 755 9 802 23 q 556 -17 670 -17 q 352 24 441 -17 q 201 139 262 66 q 75 530 75 288 q 202 911 75 769 q 559 1058 332 1058 q 780 1002 684 1058 q 891 819 891 939 m 500 1106 q 462 1120 473 1097 l 441 1165 q 451 1197 431 1185 l 700 1340 q 730 1351 716 1351 q 765 1333 758 1351 l 802 1255 q 807 1235 807 1244 q 778 1200 807 1210 l 500 1106 z "},"":{"ha":809,"x_min":82,"x_max":734,"o":"m 634 463 q 578 518 578 463 q 540 614 578 581 q 451 644 507 644 q 358 621 395 644 q 298 562 321 597 q 254 392 254 491 q 366 149 254 207 q 456 128 407 128 q 538 139 506 128 q 595 163 570 150 q 638 186 620 176 q 669 197 657 197 q 708 175 694 197 l 723 150 q 733 116 733 132 q 720 81 733 99 q 683 48 706 63 q 631 21 661 33 q 571 0 602 9 q 298 12 422 -40 q 108 221 160 71 q 82 388 82 296 q 110 553 82 480 q 186 677 137 627 q 450 782 287 782 q 670 707 593 782 q 734 545 734 642 q 650 463 734 463 l 634 463 m 402 874 q 382 869 393 869 q 364 878 370 869 l 331 924 q 326 940 326 931 q 340 962 326 949 l 549 1152 q 581 1168 566 1168 q 616 1153 605 1168 l 667 1088 q 675 1067 675 1078 q 648 1024 674 1040 l 402 874 z "},"":{"ha":924,"x_min":75,"x_max":891,"o":"m 891 819 q 817 735 891 735 l 770 735 q 736 751 748 735 q 723 795 724 767 q 705 847 721 823 q 665 884 690 870 q 545 911 620 911 q 414 879 469 911 q 324 795 358 848 q 259 530 259 696 q 453 156 259 233 q 570 133 513 133 q 751 170 673 133 l 789 188 q 822 196 808 196 q 845 189 836 196 q 867 157 854 182 q 880 113 880 132 q 867 76 880 94 q 836 45 854 58 q 755 9 802 23 q 556 -17 670 -17 q 352 24 441 -17 q 201 139 262 66 q 75 530 75 288 q 202 911 75 769 q 559 1058 332 1058 q 780 1002 684 1058 q 891 819 891 939 m 370 1128 q 353 1122 363 1122 q 334 1131 342 1122 l 298 1170 q 292 1188 292 1177 q 301 1206 292 1199 l 437 1329 q 473 1344 454 1344 l 597 1344 q 634 1329 617 1344 l 768 1208 q 780 1186 780 1199 q 770 1164 780 1174 l 743 1134 q 723 1123 733 1123 q 705 1128 712 1123 l 534 1240 l 370 1128 z "},"":{"ha":809,"x_min":82,"x_max":734,"o":"m 634 463 q 578 518 578 463 q 540 614 578 581 q 451 644 507 644 q 358 621 395 644 q 298 562 321 597 q 254 392 254 491 q 366 149 254 207 q 456 128 407 128 q 538 139 506 128 q 595 163 570 150 q 638 186 620 176 q 669 197 657 197 q 708 175 694 197 l 723 150 q 733 116 733 132 q 720 81 733 99 q 683 48 706 63 q 631 21 661 33 q 571 0 602 9 q 298 12 422 -40 q 108 221 160 71 q 82 388 82 296 q 110 553 82 480 q 186 677 137 627 q 450 782 287 782 q 670 707 593 782 q 734 545 734 642 q 650 463 734 463 l 634 463 m 271 873 q 250 882 260 873 l 212 914 q 200 934 200 924 q 209 956 200 945 l 343 1120 q 401 1151 368 1151 l 471 1151 q 530 1119 503 1151 l 659 956 q 667 933 667 944 q 656 913 667 922 l 620 884 q 597 872 606 872 q 580 880 588 872 l 435 1018 l 292 883 q 271 873 281 873 z "},"":{"ha":924,"x_min":75,"x_max":891,"o":"m 891 819 q 817 735 891 735 l 770 735 q 736 751 748 735 q 723 795 724 767 q 705 847 721 823 q 665 884 690 870 q 545 911 620 911 q 414 879 469 911 q 324 795 358 848 q 259 530 259 696 q 453 156 259 233 q 570 133 513 133 q 751 170 673 133 l 789 188 q 822 196 808 196 q 845 189 836 196 q 867 157 854 182 q 880 113 880 132 q 867 76 880 94 q 836 45 854 58 q 755 9 802 23 q 556 -17 670 -17 q 352 24 441 -17 q 201 139 262 66 q 75 530 75 288 q 202 911 75 769 q 559 1058 332 1058 q 780 1002 684 1058 q 891 819 891 939 m 535 1131 q 456 1162 489 1131 q 424 1241 424 1194 q 456 1320 424 1287 q 535 1351 488 1351 q 637 1284 608 1351 q 646 1241 646 1265 q 613 1162 646 1194 q 535 1131 581 1131 z "},"":{"ha":809,"x_min":82,"x_max":734,"o":"m 634 463 q 578 518 578 463 q 540 614 578 581 q 451 644 507 644 q 358 621 395 644 q 298 562 321 597 q 254 392 254 491 q 366 149 254 207 q 456 128 407 128 q 538 139 506 128 q 595 163 570 150 q 638 186 620 176 q 669 197 657 197 q 708 175 694 197 l 723 150 q 733 116 733 132 q 720 81 733 99 q 683 48 706 63 q 631 21 661 33 q 571 0 602 9 q 298 12 422 -40 q 108 221 160 71 q 82 388 82 296 q 110 553 82 480 q 186 677 137 627 q 450 782 287 782 q 670 707 593 782 q 734 545 734 642 q 650 463 734 463 l 634 463 m 431 886 q 352 917 385 886 q 319 996 319 949 q 352 1075 319 1042 q 431 1106 383 1106 q 532 1040 503 1106 q 541 996 541 1020 q 509 917 541 949 q 431 886 476 886 z "},"":{"ha":924,"x_min":75,"x_max":891,"o":"m 891 819 q 817 735 891 735 l 770 735 q 736 751 748 735 q 723 795 724 767 q 705 847 721 823 q 665 884 690 870 q 545 911 620 911 q 414 879 469 911 q 324 795 358 848 q 259 530 259 696 q 453 156 259 233 q 570 133 513 133 q 751 170 673 133 l 789 188 q 822 196 808 196 q 845 189 836 196 q 867 157 854 182 q 880 113 880 132 q 867 76 880 94 q 836 45 854 58 q 755 9 802 23 q 556 -17 670 -17 q 352 24 441 -17 q 201 139 262 66 q 75 530 75 288 q 202 911 75 769 q 559 1058 332 1058 q 780 1002 684 1058 q 891 819 891 939 m 462 1124 q 425 1140 441 1124 l 290 1261 q 279 1282 279 1270 q 288 1305 279 1295 l 315 1335 q 336 1345 326 1345 q 353 1341 347 1345 l 526 1228 l 694 1345 q 712 1351 702 1351 q 730 1342 722 1351 l 766 1303 q 772 1285 772 1296 q 764 1267 772 1274 l 622 1140 q 586 1124 605 1124 l 462 1124 z "},"":{"ha":809,"x_min":82,"x_max":734,"o":"m 634 463 q 578 518 578 463 q 540 614 578 581 q 451 644 507 644 q 358 621 395 644 q 298 562 321 597 q 254 392 254 491 q 366 149 254 207 q 456 128 407 128 q 538 139 506 128 q 595 163 570 150 q 638 186 620 176 q 669 197 657 197 q 708 175 694 197 l 723 150 q 733 116 733 132 q 720 81 733 99 q 683 48 706 63 q 631 21 661 33 q 571 0 602 9 q 298 12 422 -40 q 108 221 160 71 q 82 388 82 296 q 110 553 82 480 q 186 677 137 627 q 450 782 287 782 q 670 707 593 782 q 734 545 734 642 q 650 463 734 463 l 634 463 m 400 868 q 341 900 369 868 l 213 1055 q 203 1075 203 1065 q 214 1097 203 1085 l 252 1135 q 292 1139 273 1156 l 436 1001 l 581 1141 q 603 1151 592 1151 q 623 1142 614 1151 l 666 1098 q 665 1061 682 1082 l 528 899 q 469 868 502 868 l 400 868 z "},"":{"ha":1040,"x_min":161,"x_max":970,"o":"m 161 981 q 177 1022 161 1004 q 222 1040 193 1040 l 437 1040 q 841 907 705 1040 q 970 543 970 779 q 825 145 970 290 q 425 0 680 0 l 222 0 q 177 18 193 0 q 161 60 161 36 l 161 981 m 457 890 l 423 890 q 332 888 401 890 l 332 150 l 442 148 l 446 148 q 769 374 709 148 q 789 537 789 448 q 767 691 789 626 q 704 800 746 755 q 457 890 619 890 m 437 1124 q 399 1140 416 1124 l 265 1261 q 254 1282 254 1270 q 263 1305 254 1295 l 290 1335 q 311 1345 300 1345 q 328 1341 321 1345 l 501 1228 l 669 1345 q 687 1351 677 1351 q 705 1342 697 1351 l 741 1303 q 747 1285 747 1296 q 739 1267 747 1274 l 597 1140 q 561 1124 580 1124 l 437 1124 z "},"":{"ha":1040,"x_min":75,"x_max":1088,"o":"m 631 669 l 631 1160 q 642 1190 631 1177 q 668 1202 652 1202 l 762 1202 q 788 1190 778 1202 q 798 1160 798 1177 l 798 290 q 820 63 798 153 q 822 39 822 54 q 809 12 822 24 q 777 0 797 0 l 744 0 q 690 33 704 0 q 661 142 673 74 q 486 -5 609 31 q 384 -17 445 -17 q 263 14 323 -17 q 161 99 203 45 q 75 376 75 210 q 159 659 75 547 q 399 782 249 782 q 631 669 550 782 m 249 371 q 260 281 249 325 q 294 202 271 237 q 437 123 346 123 q 582 195 519 123 q 648 372 648 270 q 584 570 648 495 q 432 641 522 641 q 289 552 338 641 q 249 371 249 477 m 954 1038 q 901 1122 901 1054 q 960 1203 901 1181 q 998 1210 977 1210 q 1036 1201 1019 1210 q 1065 1177 1053 1192 q 1088 1114 1088 1147 q 1082 1054 1088 1081 q 1065 1000 1076 1027 q 1020 907 1042 940 q 991 867 998 873 q 964 850 975 850 q 930 859 948 850 q 905 886 905 871 q 912 912 905 895 l 924 941 q 954 1038 945 989 z "},"":{"ha":1040,"x_min":33,"x_max":970,"o":"m 161 445 l 62 445 q 42 452 51 445 q 33 471 33 459 l 33 562 q 42 579 33 572 q 62 587 51 587 l 161 587 l 161 981 q 177 1022 161 1004 q 222 1040 193 1040 l 437 1040 q 841 907 705 1040 q 970 543 970 779 q 825 145 970 290 q 425 0 680 0 l 222 0 q 177 18 193 0 q 161 60 161 36 l 161 445 m 457 890 l 423 890 q 332 888 401 890 l 332 587 l 531 587 q 552 579 543 587 q 561 561 561 572 l 561 477 q 552 453 561 461 q 531 445 543 445 l 332 445 l 332 150 l 442 148 l 446 148 q 769 374 709 148 q 789 537 789 448 q 767 691 789 626 q 704 800 746 755 q 457 890 619 890 z "},"":{"ha":925,"x_min":75,"x_max":903,"o":"m 631 669 l 631 941 l 407 941 q 387 948 395 941 q 378 967 378 956 l 378 1043 q 387 1061 378 1054 q 407 1068 395 1068 l 631 1068 l 631 1160 q 642 1190 631 1177 q 668 1202 652 1202 l 762 1202 q 788 1190 778 1202 q 798 1160 798 1177 l 798 1068 l 873 1068 q 894 1061 885 1068 q 903 1042 903 1054 l 903 966 q 894 948 903 956 q 873 941 885 941 l 798 941 l 798 290 q 820 63 798 153 q 822 39 822 54 q 809 12 822 24 q 777 0 797 0 l 744 0 q 690 33 704 0 q 661 142 673 74 q 486 -5 609 31 q 384 -17 445 -17 q 263 14 323 -17 q 161 99 203 45 q 75 376 75 210 q 159 659 75 547 q 399 782 249 782 q 631 669 550 782 m 249 371 q 260 281 249 325 q 294 202 271 237 q 437 123 346 123 q 582 195 519 123 q 648 372 648 270 q 584 570 648 495 q 432 641 522 641 q 289 552 338 641 q 249 371 249 477 z "},"":{"ha":924,"x_min":159,"x_max":832,"o":"m 159 996 q 170 1027 159 1014 q 197 1040 181 1040 l 793 1040 q 820 1028 810 1040 q 829 1001 829 1017 l 829 928 q 820 901 829 912 q 793 890 810 890 l 329 890 l 329 593 l 698 593 q 725 582 715 593 q 734 554 734 570 l 734 481 q 725 454 734 465 q 698 443 715 443 l 329 443 l 329 150 l 796 150 q 823 139 814 150 q 832 111 832 127 l 832 38 q 823 11 832 22 q 796 0 814 0 l 196 0 q 170 13 180 0 q 159 43 159 26 l 159 996 m 321 1162 q 300 1170 309 1162 q 292 1188 292 1177 l 292 1284 q 300 1302 292 1295 q 321 1310 309 1310 l 672 1310 q 693 1302 684 1310 q 702 1284 702 1295 l 702 1187 q 693 1170 702 1177 q 672 1162 684 1162 l 321 1162 z "},"":{"ha":810,"x_min":77,"x_max":734,"o":"m 239 345 l 238 332 q 297 183 238 239 q 465 123 359 123 q 644 181 561 123 q 671 192 659 192 q 709 167 696 192 l 728 129 q 734 100 734 115 q 720 67 734 84 q 684 37 706 51 q 632 14 661 24 q 571 -3 602 3 q 441 -17 509 -17 q 304 9 373 -17 q 185 84 235 35 q 77 368 77 189 q 298 759 77 682 q 440 783 368 783 q 565 767 513 783 q 653 721 616 751 q 732 541 732 656 q 640 368 732 428 q 427 316 559 316 q 239 345 345 316 m 572 543 q 442 640 572 640 q 269 549 318 640 q 245 471 251 517 q 394 441 304 441 q 572 543 572 441 m 254 930 q 234 937 243 930 q 225 956 225 944 l 225 1044 q 234 1062 225 1055 q 254 1069 243 1069 l 606 1069 q 627 1062 618 1069 q 635 1043 635 1055 l 635 955 q 627 937 635 944 q 606 930 618 930 l 254 930 z "},"":{"ha":924,"x_min":159,"x_max":832,"o":"m 159 996 q 170 1027 159 1014 q 197 1040 181 1040 l 793 1040 q 820 1028 810 1040 q 829 1001 829 1017 l 829 928 q 820 901 829 912 q 793 890 810 890 l 329 890 l 329 593 l 698 593 q 725 582 715 593 q 734 554 734 570 l 734 481 q 725 454 734 465 q 698 443 715 443 l 329 443 l 329 150 l 796 150 q 823 139 814 150 q 832 111 832 127 l 832 38 q 823 11 832 22 q 796 0 814 0 l 196 0 q 170 13 180 0 q 159 43 159 26 l 159 996 m 500 1127 q 408 1142 450 1127 q 334 1182 366 1156 q 264 1322 264 1238 q 300 1347 264 1345 l 374 1350 q 401 1329 399 1352 q 439 1257 404 1279 q 498 1242 463 1242 q 583 1279 558 1242 q 597 1318 594 1295 q 633 1350 600 1352 l 697 1347 q 730 1318 730 1344 q 666 1184 730 1239 q 500 1127 600 1127 z "},"":{"ha":810,"x_min":77,"x_max":734,"o":"m 239 345 l 238 332 q 297 183 238 239 q 465 123 359 123 q 644 181 561 123 q 671 192 659 192 q 709 167 696 192 l 728 129 q 734 100 734 115 q 720 67 734 84 q 684 37 706 51 q 632 14 661 24 q 571 -3 602 3 q 441 -17 509 -17 q 304 9 373 -17 q 185 84 235 35 q 77 368 77 189 q 298 759 77 682 q 440 783 368 783 q 565 767 513 783 q 653 721 616 751 q 732 541 732 656 q 640 368 732 428 q 427 316 559 316 q 239 345 345 316 m 572 543 q 442 640 572 640 q 269 549 318 640 q 245 471 251 517 q 394 441 304 441 q 572 543 572 441 m 277 1120 l 293 1121 q 320 1100 318 1121 q 423 989 330 989 q 525 1097 513 989 q 557 1121 527 1121 l 620 1118 q 653 1089 653 1115 q 590 941 653 1003 q 422 875 523 875 q 204 1007 264 875 q 187 1073 187 1045 q 193 1108 187 1100 q 223 1118 199 1116 l 277 1120 z "},"":{"ha":924,"x_min":159,"x_max":832,"o":"m 159 996 q 170 1027 159 1014 q 197 1040 181 1040 l 793 1040 q 820 1028 810 1040 q 829 1001 829 1017 l 829 928 q 820 901 829 912 q 793 890 810 890 l 329 890 l 329 593 l 698 593 q 725 582 715 593 q 734 554 734 570 l 734 481 q 725 454 734 465 q 698 443 715 443 l 329 443 l 329 150 l 796 150 q 823 139 814 150 q 832 111 832 127 l 832 38 q 823 11 832 22 q 796 0 814 0 l 196 0 q 170 13 180 0 q 159 43 159 26 l 159 996 m 503 1131 q 424 1162 456 1131 q 391 1241 391 1194 q 424 1320 391 1287 q 503 1351 455 1351 q 604 1284 575 1351 q 613 1241 613 1265 q 581 1162 613 1194 q 503 1131 548 1131 z "},"":{"ha":810,"x_min":77,"x_max":734,"o":"m 239 345 l 238 332 q 297 183 238 239 q 465 123 359 123 q 644 181 561 123 q 671 192 659 192 q 709 167 696 192 l 728 129 q 734 100 734 115 q 720 67 734 84 q 684 37 706 51 q 632 14 661 24 q 571 -3 602 3 q 441 -17 509 -17 q 304 9 373 -17 q 185 84 235 35 q 77 368 77 189 q 298 759 77 682 q 440 783 368 783 q 565 767 513 783 q 653 721 616 751 q 732 541 732 656 q 640 368 732 428 q 427 316 559 316 q 239 345 345 316 m 572 543 q 442 640 572 640 q 269 549 318 640 q 245 471 251 517 q 394 441 304 441 q 572 543 572 441 m 425 886 q 346 917 378 886 q 313 996 313 949 q 346 1075 313 1042 q 425 1106 377 1106 q 526 1040 497 1106 q 535 996 535 1020 q 503 917 535 949 q 425 886 470 886 z "},"":{"ha":924,"x_min":159,"x_max":835,"o":"m 802 -189 q 835 -250 835 -189 q 823 -287 835 -271 q 776 -315 810 -304 q 707 -326 741 -326 q 644 -318 673 -326 q 591 -294 616 -311 q 534 -185 534 -255 q 617 -34 534 -101 q 666 0 641 -14 l 196 0 q 170 13 180 0 q 159 43 159 26 l 159 996 q 170 1027 159 1014 q 197 1040 181 1040 l 793 1040 q 820 1028 810 1040 q 829 1001 829 1017 l 829 928 q 820 901 829 912 q 793 890 810 890 l 329 890 l 329 593 l 698 593 q 725 582 715 593 q 734 554 734 570 l 734 481 q 725 454 734 465 q 698 443 715 443 l 329 443 l 329 150 l 796 150 q 823 139 814 150 q 832 111 832 127 l 832 38 q 815 4 832 11 q 772 -19 798 -3 q 723 -58 747 -36 q 665 -160 665 -113 q 723 -206 665 -206 q 770 -198 744 -206 q 802 -189 797 -189 z "},"":{"ha":810,"x_min":77,"x_max":734,"o":"m 391 -184 q 491 -15 391 -91 q 453 -17 471 -17 q 185 84 288 -17 q 77 368 77 189 q 298 759 77 682 q 440 783 368 783 q 565 767 513 783 q 653 721 616 751 q 732 541 732 656 q 640 368 732 428 q 427 316 559 316 q 239 345 345 316 l 238 332 q 297 183 238 239 q 465 123 359 123 q 644 181 561 123 q 671 192 659 192 q 709 167 696 192 l 728 129 q 734 104 734 115 q 673 31 734 63 l 674 31 q 583 -44 620 -1 q 534 -109 547 -86 q 522 -156 522 -131 q 580 -206 522 -206 q 629 -198 600 -206 q 664 -189 659 -189 q 697 -249 697 -189 q 597 -321 697 -309 q 553 -324 576 -324 q 501 -317 530 -324 q 448 -293 473 -309 q 391 -184 391 -254 m 572 543 q 442 640 572 640 q 269 549 318 640 q 245 471 251 517 q 394 441 304 441 q 572 543 572 441 z "},"":{"ha":924,"x_min":159,"x_max":832,"o":"m 159 996 q 170 1027 159 1014 q 197 1040 181 1040 l 793 1040 q 820 1028 810 1040 q 829 1001 829 1017 l 829 928 q 820 901 829 912 q 793 890 810 890 l 329 890 l 329 593 l 698 593 q 725 582 715 593 q 734 554 734 570 l 734 481 q 725 454 734 465 q 698 443 715 443 l 329 443 l 329 150 l 796 150 q 823 139 814 150 q 832 111 832 127 l 832 38 q 823 11 832 22 q 796 0 814 0 l 196 0 q 170 13 180 0 q 159 43 159 26 l 159 996 m 434 1124 q 397 1140 414 1124 l 262 1261 q 251 1282 251 1270 q 260 1305 251 1295 l 288 1335 q 308 1345 298 1345 q 326 1341 319 1345 l 498 1228 l 667 1345 q 684 1351 674 1351 q 703 1342 694 1351 l 739 1303 q 745 1285 745 1296 q 736 1267 745 1274 l 594 1140 q 558 1124 577 1124 l 434 1124 z "},"":{"ha":810,"x_min":77,"x_max":734,"o":"m 239 345 l 238 332 q 297 183 238 239 q 465 123 359 123 q 644 181 561 123 q 671 192 659 192 q 709 167 696 192 l 728 129 q 734 100 734 115 q 720 67 734 84 q 684 37 706 51 q 632 14 661 24 q 571 -3 602 3 q 441 -17 509 -17 q 304 9 373 -17 q 185 84 235 35 q 77 368 77 189 q 298 759 77 682 q 440 783 368 783 q 565 767 513 783 q 653 721 616 751 q 732 541 732 656 q 640 368 732 428 q 427 316 559 316 q 239 345 345 316 m 572 543 q 442 640 572 640 q 269 549 318 640 q 245 471 251 517 q 394 441 304 441 q 572 543 572 441 m 393 868 q 334 900 362 868 l 206 1055 q 197 1075 197 1065 q 208 1097 197 1085 l 245 1135 q 285 1139 267 1156 l 429 1001 l 574 1141 q 596 1151 585 1151 q 616 1142 608 1151 l 659 1098 q 658 1061 675 1082 l 521 899 q 463 868 495 868 l 393 868 z "},"":{"ha":1040,"x_min":94,"x_max":975,"o":"m 224 128 q 193 163 224 128 q 129 300 163 199 q 94 528 94 402 q 130 751 94 653 q 229 916 165 848 q 582 1057 362 1057 q 865 972 760 1057 q 931 894 910 936 q 953 829 953 852 q 952 793 953 806 q 944 766 951 779 q 880 736 927 736 l 822 736 q 795 747 802 736 q 785 784 788 761 q 772 827 783 806 q 738 867 762 848 q 591 909 682 909 q 444 881 500 909 q 350 801 387 852 q 277 531 277 700 q 343 256 277 362 q 570 135 420 135 q 770 222 732 135 q 782 272 782 248 q 775 319 782 296 q 751 365 768 343 q 638 435 713 416 q 599 455 616 440 q 582 498 582 471 l 582 522 q 593 546 582 536 q 619 555 604 555 l 937 555 q 975 522 975 555 l 975 448 q 963 427 975 435 q 937 418 952 418 l 838 418 q 939 305 913 385 q 948 246 948 276 q 940 188 948 216 q 913 132 932 160 q 866 76 895 103 q 793 28 836 50 q 578 -17 699 -17 q 372 20 458 -17 q 224 128 286 58 m 378 1128 q 361 1122 371 1122 q 342 1131 351 1122 l 307 1170 q 300 1188 300 1177 q 309 1206 300 1199 l 445 1329 q 481 1344 462 1344 l 605 1344 q 642 1329 625 1344 l 777 1208 q 788 1186 788 1199 q 779 1164 788 1174 l 751 1134 q 731 1123 741 1123 q 713 1128 720 1123 l 542 1240 l 378 1128 z "},"":{"ha":809,"x_min":74,"x_max":775,"o":"m 311 73 q 447 104 375 104 q 574 91 518 104 q 675 49 630 77 q 775 -130 775 -15 q 661 -321 775 -249 q 418 -385 560 -385 q 178 -323 274 -385 q 74 -138 74 -255 q 224 136 74 3 q 353 227 282 186 q 164 305 242 237 q 77 496 77 382 q 175 708 77 627 q 390 782 265 782 q 601 709 524 782 q 639 659 625 687 q 623 788 639 721 q 607 867 607 854 q 612 888 607 880 q 624 900 617 896 q 647 906 634 906 l 705 906 q 762 749 762 906 q 711 518 762 624 q 713 479 713 503 q 702 422 713 454 q 673 361 691 389 q 632 309 655 333 q 582 265 608 286 q 530 228 556 245 q 352 110 381 134 q 311 73 323 87 m 280 388 q 292 378 280 388 q 334 357 303 368 q 400 347 365 347 q 464 357 435 347 q 515 388 493 368 q 563 498 563 431 q 510 606 563 566 q 395 640 463 640 q 245 559 286 640 q 231 498 231 533 q 244 435 231 463 q 280 388 257 408 m 248 -53 q 222 -116 222 -81 q 239 -175 222 -151 q 284 -216 256 -199 q 418 -246 338 -246 q 596 -183 546 -246 q 612 -130 612 -162 q 592 -76 612 -98 q 543 -41 572 -54 q 414 -21 493 -21 q 248 -53 292 -21 m 218 873 q 197 882 208 873 l 159 914 q 147 934 147 924 q 156 956 147 945 l 290 1120 q 349 1151 315 1151 l 418 1151 q 477 1119 450 1151 l 606 956 q 614 933 614 944 q 603 913 614 922 l 567 884 q 544 872 553 872 q 527 880 535 872 l 382 1018 l 239 883 q 218 873 228 873 z "},"":{"ha":1040,"x_min":94,"x_max":975,"o":"m 224 128 q 193 163 224 128 q 129 300 163 199 q 94 528 94 402 q 130 751 94 653 q 229 916 165 848 q 582 1057 362 1057 q 865 972 760 1057 q 931 894 910 936 q 953 829 953 852 q 952 793 953 806 q 944 766 951 779 q 880 736 927 736 l 822 736 q 795 747 802 736 q 785 784 788 761 q 772 827 783 806 q 738 867 762 848 q 591 909 682 909 q 444 881 500 909 q 350 801 387 852 q 277 531 277 700 q 343 256 277 362 q 570 135 420 135 q 770 222 732 135 q 782 272 782 248 q 775 319 782 296 q 751 365 768 343 q 638 435 713 416 q 599 455 616 440 q 582 498 582 471 l 582 522 q 593 546 582 536 q 619 555 604 555 l 937 555 q 975 522 975 555 l 975 448 q 963 427 975 435 q 937 418 952 418 l 838 418 q 939 305 913 385 q 948 246 948 276 q 940 188 948 216 q 913 132 932 160 q 866 76 895 103 q 793 28 836 50 q 578 -17 699 -17 q 372 20 458 -17 q 224 128 286 58 m 538 1127 q 446 1142 488 1127 q 372 1182 404 1156 q 302 1322 302 1238 q 338 1347 302 1345 l 412 1350 q 439 1329 437 1352 q 477 1257 442 1279 q 536 1242 501 1242 q 621 1279 596 1242 q 635 1318 632 1295 q 671 1350 638 1352 l 735 1347 q 768 1318 768 1344 q 704 1184 768 1239 q 538 1127 637 1127 z "},"":{"ha":809,"x_min":74,"x_max":775,"o":"m 311 73 q 447 104 375 104 q 574 91 518 104 q 675 49 630 77 q 775 -130 775 -15 q 661 -321 775 -249 q 418 -385 560 -385 q 178 -323 274 -385 q 74 -138 74 -255 q 224 136 74 3 q 353 227 282 186 q 164 305 242 237 q 77 496 77 382 q 175 708 77 627 q 390 782 265 782 q 601 709 524 782 q 639 659 625 687 q 623 788 639 721 q 607 867 607 854 q 612 888 607 880 q 624 900 617 896 q 647 906 634 906 l 705 906 q 762 749 762 906 q 711 518 762 624 q 713 479 713 503 q 702 422 713 454 q 673 361 691 389 q 632 309 655 333 q 582 265 608 286 q 530 228 556 245 q 352 110 381 134 q 311 73 323 87 m 280 388 q 292 378 280 388 q 334 357 303 368 q 400 347 365 347 q 464 357 435 347 q 515 388 493 368 q 563 498 563 431 q 510 606 563 566 q 395 640 463 640 q 245 559 286 640 q 231 498 231 533 q 244 435 231 463 q 280 388 257 408 m 248 -53 q 222 -116 222 -81 q 239 -175 222 -151 q 284 -216 256 -199 q 418 -246 338 -246 q 596 -183 546 -246 q 612 -130 612 -162 q 592 -76 612 -98 q 543 -41 572 -54 q 414 -21 493 -21 q 248 -53 292 -21 m 239 1120 l 254 1121 q 281 1100 279 1121 q 385 989 291 989 q 486 1097 475 989 q 518 1121 488 1121 l 581 1118 q 614 1089 614 1115 q 551 941 614 1003 q 384 875 484 875 q 165 1007 225 875 q 149 1073 149 1045 q 155 1108 149 1100 q 184 1118 161 1116 l 239 1120 z "},"":{"ha":1040,"x_min":94,"x_max":975,"o":"m 224 128 q 193 163 224 128 q 129 300 163 199 q 94 528 94 402 q 130 751 94 653 q 229 916 165 848 q 582 1057 362 1057 q 865 972 760 1057 q 931 894 910 936 q 953 829 953 852 q 952 793 953 806 q 944 766 951 779 q 880 736 927 736 l 822 736 q 795 747 802 736 q 785 784 788 761 q 772 827 783 806 q 738 867 762 848 q 591 909 682 909 q 444 881 500 909 q 350 801 387 852 q 277 531 277 700 q 343 256 277 362 q 570 135 420 135 q 770 222 732 135 q 782 272 782 248 q 775 319 782 296 q 751 365 768 343 q 638 435 713 416 q 599 455 616 440 q 582 498 582 471 l 582 522 q 593 546 582 536 q 619 555 604 555 l 937 555 q 975 522 975 555 l 975 448 q 963 427 975 435 q 937 418 952 418 l 838 418 q 939 305 913 385 q 948 246 948 276 q 940 188 948 216 q 913 132 932 160 q 866 76 895 103 q 793 28 836 50 q 578 -17 699 -17 q 372 20 458 -17 q 224 128 286 58 m 574 1131 q 495 1162 528 1131 q 463 1241 463 1194 q 495 1320 463 1287 q 574 1351 526 1351 q 675 1284 646 1351 q 684 1241 684 1265 q 652 1162 684 1194 q 574 1131 619 1131 z "},"":{"ha":809,"x_min":74,"x_max":775,"o":"m 311 73 q 447 104 375 104 q 574 91 518 104 q 675 49 630 77 q 775 -130 775 -15 q 661 -321 775 -249 q 418 -385 560 -385 q 178 -323 274 -385 q 74 -138 74 -255 q 224 136 74 3 q 353 227 282 186 q 164 305 242 237 q 77 496 77 382 q 175 708 77 627 q 390 782 265 782 q 601 709 524 782 q 639 659 625 687 q 623 788 639 721 q 607 867 607 854 q 612 888 607 880 q 624 900 617 896 q 647 906 634 906 l 705 906 q 762 749 762 906 q 711 518 762 624 q 713 479 713 503 q 702 422 713 454 q 673 361 691 389 q 632 309 655 333 q 582 265 608 286 q 530 228 556 245 q 352 110 381 134 q 311 73 323 87 m 280 388 q 292 378 280 388 q 334 357 303 368 q 400 347 365 347 q 464 357 435 347 q 515 388 493 368 q 563 498 563 431 q 510 606 563 566 q 395 640 463 640 q 245 559 286 640 q 231 498 231 533 q 244 435 231 463 q 280 388 257 408 m 248 -53 q 222 -116 222 -81 q 239 -175 222 -151 q 284 -216 256 -199 q 418 -246 338 -246 q 596 -183 546 -246 q 612 -130 612 -162 q 592 -76 612 -98 q 543 -41 572 -54 q 414 -21 493 -21 q 248 -53 292 -21 m 406 886 q 328 917 360 886 q 295 996 295 949 q 328 1075 295 1042 q 406 1106 359 1106 q 508 1040 479 1106 q 517 996 517 1020 q 484 917 517 949 q 406 886 452 886 z "},"":{"ha":1040,"x_min":94,"x_max":975,"o":"m 224 128 q 193 163 224 128 q 129 300 163 199 q 94 528 94 402 q 130 751 94 653 q 229 916 165 848 q 582 1057 362 1057 q 865 972 760 1057 q 931 894 910 936 q 953 829 953 852 q 952 793 953 806 q 944 766 951 779 q 880 736 927 736 l 822 736 q 795 747 802 736 q 785 784 788 761 q 772 827 783 806 q 738 867 762 848 q 591 909 682 909 q 444 881 500 909 q 350 801 387 852 q 277 531 277 700 q 343 256 277 362 q 570 135 420 135 q 770 222 732 135 q 782 272 782 248 q 775 319 782 296 q 751 365 768 343 q 638 435 713 416 q 599 455 616 440 q 582 498 582 471 l 582 522 q 593 546 582 536 q 619 555 604 555 l 937 555 q 975 522 975 555 l 975 448 q 963 427 975 435 q 937 418 952 418 l 838 418 q 939 305 913 385 q 948 246 948 276 q 940 188 948 216 q 913 132 932 160 q 866 76 895 103 q 793 28 836 50 q 578 -17 699 -17 q 372 20 458 -17 q 224 128 286 58 m 471 -178 q 465 -146 465 -164 q 474 -113 465 -128 q 497 -88 483 -98 q 555 -69 526 -69 q 604 -76 585 -69 q 637 -96 623 -83 q 669 -172 669 -126 q 598 -347 669 -245 q 541 -385 572 -385 q 522 -380 531 -385 l 499 -370 q 485 -351 485 -362 q 491 -327 485 -336 q 503 -305 497 -317 q 515 -279 509 -293 q 532 -227 530 -241 q 471 -178 488 -220 z "},"":{"ha":809,"x_min":74,"x_max":775,"o":"m 311 73 q 447 104 375 104 q 574 91 518 104 q 675 49 630 77 q 775 -130 775 -15 q 661 -321 775 -249 q 418 -385 560 -385 q 178 -323 274 -385 q 74 -138 74 -255 q 224 136 74 3 q 353 227 282 186 q 164 305 242 237 q 77 496 77 382 q 175 708 77 627 q 390 782 265 782 q 601 709 524 782 q 639 659 625 687 q 623 788 639 721 q 607 867 607 854 q 612 888 607 880 q 624 900 617 896 q 647 906 634 906 l 705 906 q 762 749 762 906 q 711 518 762 624 q 713 479 713 503 q 702 422 713 454 q 673 361 691 389 q 632 309 655 333 q 582 265 608 286 q 530 228 556 245 q 352 110 381 134 q 311 73 323 87 m 280 388 q 292 378 280 388 q 334 357 303 368 q 400 347 365 347 q 464 357 435 347 q 515 388 493 368 q 563 498 563 431 q 510 606 563 566 q 395 640 463 640 q 245 559 286 640 q 231 498 231 533 q 244 435 231 463 q 280 388 257 408 m 248 -53 q 222 -116 222 -81 q 239 -175 222 -151 q 284 -216 256 -199 q 418 -246 338 -246 q 596 -183 546 -246 q 612 -130 612 -162 q 592 -76 612 -98 q 543 -41 572 -54 q 414 -21 493 -21 q 248 -53 292 -21 m 498 986 q 504 955 504 972 q 495 921 504 937 q 472 897 486 906 q 414 878 444 878 q 366 885 385 878 q 332 905 347 892 q 300 981 300 935 q 371 1155 300 1054 q 429 1194 397 1194 q 448 1189 438 1194 l 470 1178 q 484 1160 484 1171 q 478 1135 484 1145 q 466 1113 472 1125 q 454 1087 460 1101 q 437 1036 439 1050 q 498 986 481 1029 z "},"":{"ha":1152,"x_min":153,"x_max":999,"o":"m 153 996 q 164 1027 153 1014 q 191 1040 176 1040 l 286 1040 q 313 1027 302 1040 q 323 996 323 1014 l 323 591 l 829 591 l 829 996 q 840 1027 829 1014 q 867 1040 851 1040 l 962 1040 q 988 1027 977 1040 q 999 996 999 1014 l 999 44 q 988 14 999 26 q 961 1 977 1 l 866 1 q 840 14 850 1 q 829 44 829 26 l 829 441 l 323 441 l 323 43 q 312 13 323 26 q 286 0 301 0 l 191 0 q 164 13 175 0 q 153 43 153 26 l 153 996 m 417 1128 q 399 1122 410 1122 q 381 1131 389 1122 l 345 1170 q 339 1188 339 1177 q 348 1206 339 1199 l 484 1329 q 519 1344 500 1344 l 644 1344 q 681 1329 664 1344 l 815 1208 q 827 1186 827 1199 q 817 1164 827 1174 l 790 1134 q 769 1123 780 1123 q 752 1128 759 1123 l 581 1240 l 417 1128 z "},"":{"ha":925,"x_min":145,"x_max":804,"o":"m 416 1101 q 395 1109 406 1101 l 357 1142 q 345 1162 345 1152 q 354 1183 345 1173 l 460 1315 q 518 1345 484 1345 l 587 1345 q 646 1314 620 1345 l 750 1185 q 759 1162 759 1173 q 747 1141 759 1151 l 711 1112 q 688 1101 697 1101 q 671 1108 680 1101 l 551 1216 l 437 1111 q 416 1101 426 1101 m 145 1160 q 156 1190 145 1178 q 181 1202 166 1202 l 274 1202 q 300 1190 290 1202 q 310 1160 310 1178 l 310 646 q 481 773 368 745 q 573 782 517 782 q 676 758 628 782 q 753 692 724 734 q 804 466 804 615 l 804 45 q 791 12 804 24 q 755 0 779 0 l 689 0 q 651 13 663 0 q 639 45 639 26 l 639 467 q 511 640 639 640 q 377 578 440 640 q 310 422 310 510 l 310 45 q 298 13 310 26 q 261 0 287 0 l 187 0 q 156 13 168 0 q 145 45 145 26 l 145 1160 z "},"":{"ha":1152,"x_min":61,"x_max":1080,"o":"m 153 745 l 90 745 q 70 752 79 745 q 61 771 61 760 l 61 851 q 70 869 61 862 q 90 876 79 876 l 153 876 l 153 996 q 164 1027 153 1014 q 191 1040 176 1040 l 286 1040 q 313 1027 302 1040 q 323 996 323 1014 l 323 876 l 829 876 l 829 996 q 840 1027 829 1014 q 867 1040 851 1040 l 962 1040 q 988 1027 977 1040 q 999 996 999 1014 l 999 876 l 1050 876 q 1071 869 1062 876 q 1080 850 1080 862 l 1080 770 q 1071 752 1080 760 q 1050 745 1062 745 l 999 745 l 999 44 q 988 14 999 26 q 961 1 977 1 l 866 1 q 840 14 850 1 q 829 44 829 26 l 829 441 l 323 441 l 323 43 q 312 13 323 26 q 286 0 301 0 l 191 0 q 164 13 175 0 q 153 43 153 26 l 153 745 m 829 591 l 829 745 l 323 745 l 323 591 l 829 591 z "},"":{"ha":925,"x_min":20,"x_max":804,"o":"m 145 941 l 50 941 q 29 948 38 941 q 20 966 20 955 l 20 1043 q 29 1061 20 1054 q 50 1068 38 1068 l 145 1068 l 145 1160 q 156 1190 145 1178 q 181 1202 166 1202 l 274 1202 q 300 1190 290 1202 q 310 1160 310 1178 l 310 1068 l 535 1068 q 556 1061 547 1068 q 565 1042 565 1054 l 565 966 q 556 948 565 955 q 535 941 547 941 l 310 941 l 310 646 q 481 773 368 745 q 573 782 517 782 q 676 758 628 782 q 753 692 724 734 q 804 466 804 615 l 804 45 q 791 12 804 24 q 755 0 779 0 l 689 0 q 651 13 663 0 q 639 45 639 26 l 639 467 q 511 640 639 640 q 377 578 440 640 q 310 422 310 510 l 310 45 q 298 13 310 26 q 261 0 287 0 l 187 0 q 156 13 168 0 q 145 45 145 26 l 145 941 z "},"":{"ha":463,"x_min":-39,"x_max":485,"o":"m 146 996 q 158 1027 146 1014 q 184 1040 169 1040 l 279 1040 q 306 1027 295 1040 q 317 996 317 1014 l 317 43 q 306 13 317 26 q 279 0 294 0 l 184 0 q 157 13 168 0 q 146 43 146 26 l 146 996 m -9 1147 q -32 1183 -39 1154 q -11 1238 -24 1212 q 23 1286 3 1264 q 124 1336 68 1336 q 228 1295 171 1336 l 269 1267 q 300 1254 287 1254 q 322 1259 314 1254 q 336 1272 330 1264 q 355 1304 350 1286 q 367 1336 359 1321 q 386 1350 374 1350 q 405 1348 397 1350 l 456 1335 q 482 1318 479 1328 q 481 1282 485 1309 q 463 1224 477 1255 q 427 1172 448 1194 q 323 1122 380 1122 q 213 1161 271 1122 l 174 1189 q 95 1173 127 1221 q 85 1153 89 1164 q 69 1133 81 1141 q 37 1130 56 1125 l -9 1147 z "},"":{"ha":463,"x_min":-36,"x_max":481,"o":"m 287 186 q 319 138 287 138 q 343 144 330 138 q 379 156 370 156 q 402 136 393 156 l 423 89 q 429 67 429 77 q 378 13 429 38 q 284 -12 331 -12 q 210 -1 238 -12 q 163 33 182 9 q 123 191 123 81 l 123 720 q 134 752 123 739 q 160 765 145 765 l 251 765 q 277 752 267 765 q 287 720 287 739 l 287 186 m 82 926 q 69 906 78 915 q 53 898 60 898 q 42 898 45 898 q 34 901 40 899 q 16 907 28 903 l -14 918 q -36 946 -36 925 q -24 995 -36 968 q 9 1047 -12 1022 q 120 1107 60 1107 q 224 1066 167 1107 l 264 1038 q 296 1025 283 1025 q 318 1030 310 1025 q 332 1042 326 1035 q 351 1075 346 1057 q 363 1106 355 1093 q 389 1120 371 1120 q 399 1119 391 1120 l 419 1114 q 474 1095 468 1103 q 481 1067 481 1086 q 469 1016 481 1048 q 435 956 457 984 q 319 893 387 893 q 209 933 267 893 l 170 961 q 134 974 151 974 q 82 926 98 974 z "},"":{"ha":463,"x_min":26,"x_max":436,"o":"m 146 996 q 158 1027 146 1014 q 184 1040 169 1040 l 279 1040 q 306 1027 295 1040 q 317 996 317 1014 l 317 43 q 306 13 317 26 q 279 0 294 0 l 184 0 q 157 13 168 0 q 146 43 146 26 l 146 996 m 55 1162 q 35 1170 43 1162 q 26 1188 26 1177 l 26 1284 q 35 1302 26 1295 q 55 1310 43 1310 l 406 1310 q 427 1302 418 1310 q 436 1284 436 1295 l 436 1187 q 427 1170 436 1177 q 406 1162 418 1162 l 55 1162 z "},"":{"ha":463,"x_min":2,"x_max":429,"o":"m 287 186 q 319 138 287 138 q 343 144 330 138 q 379 156 370 156 q 402 136 393 156 l 423 89 q 429 67 429 77 q 378 13 429 38 q 284 -12 331 -12 q 210 -1 238 -12 q 163 33 182 9 q 123 191 123 81 l 123 720 q 134 752 123 739 q 160 765 145 765 l 251 765 q 277 752 267 765 q 287 720 287 739 l 287 186 m 31 930 q 11 937 20 930 q 2 956 2 944 l 2 1044 q 11 1062 2 1055 q 31 1069 20 1069 l 382 1069 q 404 1062 395 1069 q 412 1043 412 1055 l 412 955 q 404 937 412 944 q 382 930 395 930 l 31 930 z "},"":{"ha":463,"x_min":0,"x_max":466,"o":"m 146 996 q 158 1027 146 1014 q 184 1040 169 1040 l 279 1040 q 306 1027 295 1040 q 317 996 317 1014 l 317 43 q 306 13 317 26 q 279 0 294 0 l 184 0 q 157 13 168 0 q 146 43 146 26 l 146 996 m 235 1127 q 143 1142 186 1127 q 69 1182 101 1156 q 0 1322 0 1238 q 36 1347 0 1345 l 109 1350 q 136 1329 134 1352 q 175 1257 140 1279 q 233 1242 199 1242 q 319 1279 294 1242 q 332 1318 330 1295 q 369 1350 336 1352 l 433 1347 q 466 1318 466 1344 q 401 1184 466 1239 q 235 1127 335 1127 z "},"":{"ha":463,"x_min":-19,"x_max":447,"o":"m 287 186 q 319 138 287 138 q 343 144 330 138 q 379 156 370 156 q 402 136 393 156 l 423 89 q 429 67 429 77 q 378 13 429 38 q 284 -12 331 -12 q 210 -1 238 -12 q 163 33 182 9 q 123 191 123 81 l 123 720 q 134 752 123 739 q 160 765 145 765 l 251 765 q 277 752 267 765 q 287 720 287 739 l 287 186 m 71 1120 l 87 1121 q 114 1100 112 1121 q 217 989 123 989 q 319 1097 307 989 q 351 1121 321 1121 l 414 1118 q 447 1089 447 1115 q 384 941 447 1003 q 216 875 317 875 q -2 1007 58 875 q -19 1073 -19 1045 q -13 1108 -19 1100 q 17 1118 -7 1116 l 71 1120 z "},"":{"ha":463,"x_min":85,"x_max":390,"o":"m 357 -189 q 390 -250 390 -189 q 290 -323 390 -310 q 242 -326 269 -326 q 186 -316 215 -326 q 134 -288 157 -306 q 85 -186 85 -246 q 191 0 85 -69 q 149 28 156 0 q 146 43 146 36 l 146 996 q 158 1027 146 1014 q 184 1040 169 1040 l 279 1040 q 306 1027 295 1040 q 317 996 317 1014 l 317 43 q 298 3 317 18 q 263 -31 279 -12 q 236 -70 247 -50 q 212 -141 212 -111 q 273 -206 212 -206 q 322 -198 293 -206 q 357 -189 352 -189 z "},"":{"ha":463,"x_min":96,"x_max":429,"o":"m 208 896 q 129 928 161 896 q 96 1006 96 959 q 129 1085 96 1053 q 208 1116 160 1116 q 309 1050 280 1116 q 318 1006 318 1030 q 286 928 318 959 q 208 896 253 896 m 394 -189 q 427 -250 427 -189 q 327 -323 427 -310 q 283 -326 306 -326 q 231 -318 260 -326 q 178 -294 203 -311 q 121 -185 121 -255 q 233 -7 121 -84 q 123 191 123 13 l 123 720 q 134 752 123 739 q 160 765 145 765 l 251 765 q 277 752 267 765 q 287 720 287 739 l 287 186 q 319 138 287 138 q 343 144 330 138 q 379 156 370 156 q 402 136 393 156 l 423 89 q 429 67 429 77 q 381 14 429 40 q 264 -110 301 -45 q 252 -159 252 -132 q 310 -206 252 -206 q 359 -198 330 -206 q 394 -189 389 -189 z "},"":{"ha":463,"x_min":120,"x_max":342,"o":"m 146 996 q 158 1027 146 1014 q 184 1040 169 1040 l 279 1040 q 306 1027 295 1040 q 317 996 317 1014 l 317 43 q 306 13 317 26 q 279 0 294 0 l 184 0 q 157 13 168 0 q 146 43 146 26 l 146 996 m 231 1131 q 153 1162 185 1131 q 120 1241 120 1194 q 153 1320 120 1287 q 231 1351 184 1351 q 333 1284 304 1351 q 342 1241 342 1265 q 309 1162 342 1194 q 231 1131 277 1131 z "},"":{"ha":463,"x_min":123,"x_max":429,"o":"m 287 186 q 319 138 287 138 q 343 144 330 138 q 379 156 370 156 q 402 136 393 156 l 423 89 q 429 67 429 77 q 378 13 429 38 q 284 -12 331 -12 q 210 -1 238 -12 q 163 33 182 9 q 123 191 123 81 l 123 720 q 134 752 123 739 q 160 765 145 765 l 251 765 q 277 752 267 765 q 287 720 287 739 l 287 186 z "},"":{"ha":1040,"x_min":146,"x_max":916,"o":"m 146 996 q 158 1027 146 1014 q 184 1040 169 1040 l 279 1040 q 306 1027 295 1040 q 317 996 317 1014 l 317 43 q 306 13 317 26 q 279 0 294 0 l 184 0 q 157 13 168 0 q 146 43 146 26 l 146 996 m 627 123 q 747 317 747 123 l 747 996 q 757 1027 747 1014 q 783 1040 767 1040 l 880 1040 q 905 1027 895 1040 q 916 996 916 1014 l 916 280 q 842 52 916 130 q 659 -18 775 -18 q 549 -2 587 -18 q 498 27 512 13 q 484 55 484 41 q 488 81 484 70 l 494 101 q 529 145 507 145 q 544 142 535 145 l 565 134 q 627 123 596 123 z "},"":{"ha":926,"x_min":96,"x_max":810,"o":"m 208 896 q 129 928 161 896 q 96 1006 96 959 q 129 1085 96 1053 q 208 1116 160 1116 q 309 1050 280 1116 q 318 1006 318 1030 q 286 928 318 959 q 208 896 253 896 m 287 186 q 319 138 287 138 q 343 144 330 138 q 379 156 370 156 q 402 136 393 156 l 423 89 q 429 67 429 77 q 378 13 429 38 q 284 -12 331 -12 q 210 -1 238 -12 q 163 33 182 9 q 123 191 123 81 l 123 720 q 134 752 123 739 q 160 765 145 765 l 251 765 q 277 752 267 765 q 287 720 287 739 l 287 186 m 700 896 q 621 928 654 896 q 589 1006 589 959 q 621 1085 589 1053 q 700 1116 652 1116 q 802 1050 772 1116 q 810 1006 810 1030 q 778 928 810 959 q 700 896 745 896 m 549 -244 q 619 -116 619 -244 l 619 720 q 629 752 619 740 q 655 765 640 765 l 748 765 q 774 752 763 765 q 785 720 785 740 l 785 -89 q 726 -311 785 -233 q 575 -385 671 -385 q 449 -350 496 -385 q 424 -307 424 -329 q 432 -267 424 -296 q 449 -226 441 -238 q 469 -214 456 -214 q 490 -218 481 -214 q 508 -229 499 -223 q 549 -244 532 -244 z "},"":{"ha":576,"x_min":21,"x_max":606,"o":"m 164 123 q 283 317 283 123 l 283 996 q 294 1027 283 1014 q 319 1040 304 1040 l 417 1040 q 442 1027 432 1040 q 452 996 452 1014 l 452 280 q 378 52 452 130 q 196 -18 312 -18 q 86 -2 123 -18 q 35 27 49 13 q 21 55 21 41 q 24 81 21 70 l 31 101 q 66 145 44 145 q 81 142 72 145 l 102 134 q 164 123 133 123 m 197 1128 q 179 1122 189 1122 q 161 1131 169 1122 l 125 1170 q 119 1188 119 1177 q 127 1206 119 1199 l 263 1329 q 299 1344 280 1344 l 423 1344 q 460 1329 444 1344 l 595 1208 q 606 1186 606 1199 q 597 1164 606 1174 l 570 1134 q 549 1123 559 1123 q 532 1128 538 1123 l 360 1240 l 197 1128 z "},"":{"ha":463,"x_min":-39,"x_max":465,"o":"m 86 -244 q 156 -116 156 -244 l 156 720 q 166 752 156 740 q 192 765 176 765 l 285 765 q 311 752 300 765 q 321 720 321 740 l 321 -89 q 263 -311 321 -233 q 112 -385 208 -385 q -14 -350 33 -385 q -39 -307 -39 -329 q -31 -267 -39 -296 q -15 -226 -22 -238 q 6 -214 -7 -214 q 27 -218 18 -214 q 45 -229 36 -223 q 86 -244 69 -244 m 68 873 q 47 882 58 873 l 9 914 q -3 934 -3 924 q 6 956 -3 945 l 140 1120 q 199 1151 165 1151 l 268 1151 q 327 1119 300 1151 l 456 956 q 465 933 465 944 q 453 913 465 922 l 417 884 q 394 872 403 872 q 377 880 385 872 l 232 1018 l 90 883 q 68 873 78 873 z "},"":{"ha":925,"x_min":146,"x_max":937,"o":"m 404 -178 q 399 -146 399 -164 q 408 -113 399 -128 q 431 -88 416 -98 q 489 -69 459 -69 q 537 -76 518 -69 q 570 -96 556 -83 q 602 -172 602 -126 q 532 -347 602 -245 q 474 -385 506 -385 q 455 -380 465 -385 l 433 -370 q 418 -351 418 -362 q 425 -327 418 -336 q 436 -305 431 -317 q 448 -279 442 -293 q 465 -227 464 -241 q 404 -178 421 -220 m 861 144 l 888 145 q 925 119 918 145 q 933 89 929 103 q 937 58 937 75 q 927 28 937 41 q 901 7 917 16 q 666 56 793 -51 q 441 341 562 142 l 347 504 q 385 575 363 537 q 533 803 477 729 q 720 1017 646 954 q 768 1044 751 1044 q 827 1023 800 1044 l 849 1006 q 873 939 897 970 q 843 908 861 923 q 808 877 825 893 q 712 775 746 813 q 599 640 631 680 l 545 570 q 508 514 523 538 l 571 420 l 615 358 q 834 146 756 163 q 861 144 847 144 m 146 996 q 158 1027 146 1014 q 184 1040 169 1040 l 279 1040 q 306 1027 295 1040 q 317 996 317 1014 l 317 43 q 306 13 317 26 q 279 0 294 0 l 184 0 q 157 13 168 0 q 146 43 146 26 l 146 996 z "},"":{"ha":811,"x_min":129,"x_max":792,"o":"m 695 138 l 752 149 q 782 117 776 149 l 791 68 q 792 54 792 65 q 784 30 792 43 q 761 8 775 17 q 682 -12 730 -12 q 522 81 586 -12 q 496 122 511 97 l 403 288 l 362 232 q 262 44 279 115 q 249 13 257 26 q 219 0 240 0 l 165 0 q 139 13 150 0 q 129 44 129 25 l 129 1160 q 139 1190 129 1178 q 165 1202 150 1202 l 258 1202 q 284 1190 274 1202 q 294 1160 294 1178 l 296 588 q 284 415 296 513 q 269 286 273 317 l 269 283 q 272 278 269 278 q 288 296 278 278 q 627 763 423 541 q 663 784 646 784 q 709 762 689 784 l 740 728 q 762 688 762 701 q 745 648 764 665 l 623 528 q 504 394 560 464 l 555 307 q 695 138 651 138 m 309 -178 q 304 -146 304 -164 q 313 -113 304 -128 q 336 -88 321 -98 q 394 -69 364 -69 q 442 -76 423 -69 q 475 -96 461 -83 q 507 -172 507 -126 q 437 -347 507 -245 q 379 -385 411 -385 q 360 -380 370 -385 l 338 -370 q 323 -351 323 -362 q 330 -327 323 -336 q 341 -305 336 -317 q 353 -279 347 -293 q 370 -227 369 -241 q 309 -178 326 -220 z "},"":{"ha":811,"x_min":129,"x_max":792,"o":"m 695 138 l 752 149 q 782 117 776 149 l 791 68 q 792 54 792 65 q 784 30 792 43 q 761 8 775 17 q 682 -12 730 -12 q 522 81 586 -12 q 496 122 511 97 l 403 288 l 362 232 q 262 44 279 115 q 249 13 257 26 q 219 0 240 0 l 165 0 q 139 13 150 0 q 129 44 129 25 l 129 722 q 139 753 129 741 q 165 765 150 765 l 258 765 q 284 753 274 765 q 294 722 294 741 l 296 588 q 285 415 298 513 q 269 286 273 317 l 269 283 q 272 278 269 278 q 288 296 278 278 q 633 768 408 520 q 664 784 650 784 q 709 762 689 784 l 740 728 q 762 688 762 701 q 745 648 764 665 l 623 528 q 504 394 560 464 l 555 307 q 695 138 651 138 z "},"":{"ha":810,"x_min":162,"x_max":736,"o":"m 162 996 q 173 1027 162 1014 q 200 1040 184 1040 l 295 1040 q 321 1027 311 1040 q 332 996 332 1014 l 332 151 l 700 151 q 727 140 718 151 q 736 113 736 129 l 736 38 q 727 11 736 22 q 700 0 718 0 l 199 0 q 173 13 184 0 q 162 43 162 26 l 162 996 m 249 1106 q 210 1120 222 1097 l 189 1165 q 199 1197 179 1185 l 448 1340 q 479 1351 465 1351 q 513 1333 506 1351 l 550 1255 q 555 1235 555 1244 q 526 1200 555 1210 l 249 1106 z "},"":{"ha":463,"x_min":106,"x_max":483,"o":"m 290 186 q 324 138 290 138 q 352 144 335 138 q 390 156 383 156 q 414 136 406 156 l 435 88 q 439 69 439 78 q 414 31 439 54 q 279 -12 362 -12 q 127 191 127 -12 l 127 1010 q 138 1041 127 1028 q 163 1054 149 1054 l 254 1054 q 280 1041 270 1054 q 290 1010 290 1028 l 290 186 m 176 1105 q 138 1118 149 1095 l 117 1164 q 127 1196 106 1184 l 376 1339 q 406 1350 392 1350 q 441 1332 433 1350 l 477 1254 q 483 1234 483 1243 q 454 1198 483 1208 l 176 1105 z "},"":{"ha":810,"x_min":162,"x_max":736,"o":"m 162 996 q 173 1027 162 1014 q 200 1040 184 1040 l 295 1040 q 321 1027 311 1040 q 332 996 332 1014 l 332 151 l 700 151 q 727 140 718 151 q 736 113 736 129 l 736 38 q 727 11 736 22 q 700 0 718 0 l 199 0 q 173 13 184 0 q 162 43 162 26 l 162 996 m 359 -178 q 353 -146 353 -164 q 362 -113 353 -128 q 385 -88 371 -98 q 443 -69 414 -69 q 492 -76 473 -69 q 525 -96 511 -83 q 557 -172 557 -126 q 486 -347 557 -245 q 429 -385 460 -385 q 410 -380 419 -385 l 387 -370 q 373 -351 373 -362 q 379 -327 373 -336 q 391 -305 385 -317 q 403 -279 397 -293 q 420 -227 418 -241 q 359 -178 376 -220 z "},"":{"ha":463,"x_min":127,"x_max":439,"o":"m 290 186 q 324 138 290 138 q 352 144 335 138 q 390 156 383 156 q 414 136 406 156 l 435 88 q 439 69 439 78 q 414 31 439 54 q 279 -12 362 -12 q 127 191 127 -12 l 127 1158 q 138 1190 127 1177 q 163 1202 149 1202 l 254 1202 q 280 1190 270 1202 q 290 1158 290 1177 l 290 186 m 189 -178 q 183 -146 183 -164 q 192 -113 183 -128 q 215 -88 201 -98 q 273 -69 243 -69 q 321 -76 302 -69 q 355 -96 340 -83 q 387 -172 387 -126 q 316 -347 387 -245 q 258 -385 290 -385 q 239 -380 249 -385 l 217 -370 q 203 -351 203 -362 q 209 -327 203 -336 q 221 -305 215 -317 q 233 -279 227 -293 q 250 -227 248 -241 q 189 -178 205 -220 z "},"":{"ha":810,"x_min":162,"x_max":736,"o":"m 162 996 q 173 1027 162 1014 q 200 1040 184 1040 l 295 1040 q 321 1027 311 1040 q 332 996 332 1014 l 332 151 l 700 151 q 727 140 718 151 q 736 113 736 129 l 736 38 q 727 11 736 22 q 700 0 718 0 l 199 0 q 173 13 184 0 q 162 43 162 26 l 162 996 m 580 878 q 528 962 528 894 q 586 1043 528 1021 q 624 1050 603 1050 q 662 1041 645 1050 q 691 1017 679 1032 q 715 954 715 987 q 708 894 715 921 q 691 840 702 867 q 646 747 668 780 q 617 707 624 713 q 591 690 602 690 q 557 699 574 690 q 531 726 531 711 q 538 752 531 734 l 551 781 q 580 878 571 829 z "},"":{"ha":581,"x_min":127,"x_max":582,"o":"m 290 186 q 324 138 290 138 q 352 144 335 138 q 390 156 383 156 q 414 136 406 156 l 435 88 q 439 69 439 78 q 414 31 439 54 q 279 -12 362 -12 q 127 191 127 -12 l 127 1158 q 138 1190 127 1177 q 163 1202 149 1202 l 254 1202 q 280 1190 270 1202 q 290 1158 290 1177 l 290 186 m 447 1038 q 395 1122 395 1054 q 453 1203 395 1181 q 491 1210 470 1210 q 529 1201 512 1210 q 558 1177 546 1192 q 582 1114 582 1147 q 575 1054 582 1081 q 558 1000 569 1027 q 513 907 535 940 q 484 867 491 873 q 458 850 469 850 q 424 859 441 850 q 398 886 398 871 q 406 912 398 895 l 418 941 q 447 1038 438 989 z "},"":{"ha":810,"x_min":163,"x_max":753,"o":"m 163 996 q 174 1027 163 1014 q 201 1040 185 1040 l 296 1040 q 322 1027 311 1040 q 333 996 333 1014 l 333 151 l 701 151 q 727 140 718 151 q 736 113 736 129 l 736 38 q 727 11 736 22 q 701 0 718 0 l 200 0 q 174 13 184 0 q 163 43 163 26 l 163 996 m 642 416 q 564 448 596 416 q 531 527 531 479 q 564 606 531 573 q 642 637 595 637 q 744 571 715 637 q 753 527 753 551 q 720 448 753 479 q 642 416 688 416 z "},"":{"ha":811,"x_min":127,"x_max":725,"o":"m 290 186 q 324 138 290 138 q 352 144 335 138 q 390 156 383 156 q 414 136 406 156 l 435 88 q 439 69 439 78 q 414 31 439 54 q 279 -12 362 -12 q 127 191 127 -12 l 127 1158 q 138 1190 127 1177 q 163 1202 149 1202 l 254 1202 q 280 1190 270 1202 q 290 1158 290 1177 l 290 186 m 614 416 q 536 448 568 416 q 503 527 503 479 q 536 606 503 573 q 614 637 567 637 q 716 571 687 637 q 725 527 725 551 q 692 448 725 479 q 614 416 660 416 z "},"":{"ha":810,"x_min":47,"x_max":736,"o":"m 108 264 q 90 258 100 258 q 72 266 80 258 q 61 287 64 274 l 48 348 q 47 359 47 351 q 67 393 47 376 l 502 692 q 530 704 516 704 q 554 694 545 704 q 566 666 564 684 l 572 606 l 572 602 q 553 564 572 578 l 108 264 m 162 996 q 173 1027 162 1014 q 200 1040 184 1040 l 295 1040 q 321 1027 311 1040 q 332 996 332 1014 l 332 151 l 700 151 q 727 140 718 151 q 736 113 736 129 l 736 38 q 727 11 736 22 q 700 0 718 0 l 199 0 q 173 13 184 0 q 162 43 162 26 l 162 996 z "},"":{"ha":463,"x_min":16,"x_max":449,"o":"m 293 186 q 328 138 293 138 q 357 144 340 138 q 397 156 389 156 q 421 136 412 156 l 442 88 q 446 69 446 78 q 420 31 446 54 q 286 -12 369 -12 q 134 191 134 -12 l 134 446 l 64 396 q 50 392 58 392 q 27 414 31 392 l 20 450 q 16 475 16 466 q 33 507 16 493 l 134 581 l 134 1158 q 144 1190 134 1177 q 170 1202 155 1202 l 257 1202 q 283 1190 273 1202 q 293 1158 293 1177 l 293 701 l 391 774 q 408 779 399 779 q 435 756 430 779 l 447 704 q 449 682 449 694 q 433 659 449 670 l 293 559 l 293 186 z "},"":{"ha":1154,"x_min":163,"x_max":996,"o":"m 163 956 q 237 1040 163 1040 l 264 1040 q 303 1033 292 1040 q 341 994 323 1021 l 778 351 q 817 284 803 315 l 845 226 q 847 224 846 224 q 848 242 849 224 q 841 293 846 260 q 836 360 836 327 l 836 998 q 846 1028 836 1016 q 871 1040 857 1040 l 961 1040 q 986 1028 975 1040 q 996 998 996 1016 l 996 68 q 979 26 996 41 q 928 0 951 0 l 886 0 q 837 11 852 0 q 780 77 814 28 q 365 689 393 644 l 309 783 q 305 785 307 785 q 304 775 302 785 q 310 741 307 765 q 317 688 314 717 q 324 562 324 620 l 324 41 q 314 12 324 24 q 288 0 303 0 l 199 0 q 174 12 184 0 q 163 41 163 24 l 163 956 m 535 1106 q 496 1120 508 1097 l 475 1165 q 486 1197 465 1185 l 734 1340 q 765 1351 751 1351 q 800 1333 792 1351 l 836 1255 q 842 1235 842 1244 q 812 1200 842 1210 l 535 1106 z "},"":{"ha":925,"x_min":125,"x_max":802,"o":"m 125 716 q 172 765 125 765 l 209 765 q 260 736 247 765 q 293 629 279 696 q 475 772 354 741 q 569 782 513 782 q 674 758 626 782 q 750 692 722 734 q 802 466 802 615 l 802 45 q 789 13 802 26 q 753 0 777 0 l 687 0 q 649 13 661 0 q 637 45 637 26 l 637 467 q 509 640 637 640 q 373 578 435 640 q 307 422 307 511 l 307 45 q 296 13 307 26 q 260 0 284 0 l 191 0 q 155 13 167 0 q 142 45 142 26 l 142 461 q 134 651 142 597 q 125 716 125 705 m 425 874 q 404 869 416 869 q 387 878 393 869 l 353 924 q 349 940 349 931 q 362 962 349 949 l 572 1152 q 604 1168 589 1168 q 639 1153 627 1168 l 690 1088 q 697 1067 698 1078 q 671 1024 696 1040 l 425 874 z "},"":{"ha":1154,"x_min":163,"x_max":996,"o":"m 163 956 q 237 1040 163 1040 l 264 1040 q 303 1033 292 1040 q 341 994 323 1021 l 778 351 q 817 284 803 315 l 845 226 q 847 224 846 224 q 848 242 849 224 q 841 293 846 260 q 836 360 836 327 l 836 998 q 846 1028 836 1016 q 871 1040 857 1040 l 961 1040 q 986 1028 975 1040 q 996 998 996 1016 l 996 68 q 979 26 996 41 q 928 0 951 0 l 886 0 q 837 11 852 0 q 780 77 814 28 q 365 689 393 644 l 309 783 q 305 785 307 785 q 304 775 302 785 q 310 741 307 765 q 317 688 314 717 q 324 562 324 620 l 324 41 q 314 12 324 24 q 288 0 303 0 l 199 0 q 174 12 184 0 q 163 41 163 24 l 163 956 m 486 -178 q 480 -146 480 -164 q 489 -113 480 -128 q 512 -88 498 -98 q 570 -69 541 -69 q 618 -76 600 -69 q 652 -96 637 -83 q 684 -172 684 -126 q 613 -347 684 -245 q 555 -385 587 -385 q 536 -380 546 -385 l 514 -370 q 500 -351 500 -362 q 506 -327 500 -336 q 518 -305 512 -317 q 530 -279 524 -293 q 547 -227 545 -241 q 486 -178 503 -220 z "},"":{"ha":925,"x_min":125,"x_max":802,"o":"m 125 716 q 172 765 125 765 l 209 765 q 260 736 247 765 q 293 629 279 696 q 475 772 354 741 q 569 782 513 782 q 674 758 626 782 q 750 692 722 734 q 802 466 802 615 l 802 45 q 789 13 802 26 q 753 0 777 0 l 687 0 q 649 13 661 0 q 637 45 637 26 l 637 467 q 509 640 637 640 q 373 578 435 640 q 307 422 307 511 l 307 45 q 296 13 307 26 q 260 0 284 0 l 191 0 q 155 13 167 0 q 142 45 142 26 l 142 461 q 134 651 142 597 q 125 716 125 705 m 383 -178 q 378 -146 378 -164 q 387 -113 378 -128 q 410 -88 395 -98 q 468 -69 438 -69 q 516 -76 497 -69 q 549 -96 535 -83 q 581 -172 581 -126 q 511 -347 581 -245 q 453 -385 485 -385 q 434 -380 444 -385 l 412 -370 q 397 -351 397 -362 q 404 -327 397 -336 q 415 -305 410 -317 q 427 -279 421 -293 q 444 -227 443 -241 q 383 -178 400 -220 z "},"":{"ha":1154,"x_min":163,"x_max":996,"o":"m 163 956 q 237 1040 163 1040 l 264 1040 q 303 1033 292 1040 q 341 994 323 1021 l 778 351 q 817 284 803 315 l 845 226 q 847 224 846 224 q 848 242 849 224 q 841 293 846 260 q 836 360 836 327 l 836 998 q 846 1028 836 1016 q 871 1040 857 1040 l 961 1040 q 986 1028 975 1040 q 996 998 996 1016 l 996 68 q 979 26 996 41 q 928 0 951 0 l 886 0 q 837 11 852 0 q 780 77 814 28 q 365 689 393 644 l 309 783 q 305 785 307 785 q 304 775 302 785 q 310 741 307 765 q 317 688 314 717 q 324 562 324 620 l 324 41 q 314 12 324 24 q 288 0 303 0 l 199 0 q 174 12 184 0 q 163 41 163 24 l 163 956 m 531 1118 q 494 1134 511 1118 l 359 1255 q 348 1276 348 1264 q 357 1299 348 1289 l 385 1329 q 405 1339 395 1339 q 422 1335 416 1339 l 595 1222 l 764 1339 q 781 1345 771 1345 q 800 1336 791 1345 l 836 1297 q 842 1279 842 1290 q 833 1261 842 1268 l 691 1134 q 655 1118 674 1118 l 531 1118 z "},"":{"ha":925,"x_min":125,"x_max":802,"o":"m 125 716 q 172 765 125 765 l 209 765 q 260 736 247 765 q 293 629 279 696 q 475 772 354 741 q 569 782 513 782 q 674 758 626 782 q 750 692 722 734 q 802 466 802 615 l 802 45 q 789 13 802 26 q 753 0 777 0 l 687 0 q 649 13 661 0 q 637 45 637 26 l 637 467 q 509 640 637 640 q 373 578 435 640 q 307 422 307 511 l 307 45 q 296 13 307 26 q 260 0 284 0 l 191 0 q 155 13 167 0 q 142 45 142 26 l 142 461 q 134 651 142 597 q 125 716 125 705 m 437 868 q 378 900 406 868 l 250 1055 q 241 1075 241 1065 q 252 1097 241 1085 l 289 1135 q 329 1139 311 1156 l 473 1001 l 618 1141 q 641 1151 629 1151 q 661 1142 652 1151 l 703 1098 q 702 1061 720 1082 l 565 899 q 507 868 539 868 l 437 868 z "},"":{"ha":1154,"x_min":163,"x_max":997,"o":"m 715 -245 q 835 -50 835 -245 l 835 27 l 997 128 l 997 -87 q 924 -315 997 -238 q 747 -385 857 -385 q 586 -341 629 -385 q 572 -309 572 -327 q 577 -275 572 -291 q 589 -248 582 -259 q 618 -222 604 -222 q 628 -226 621 -222 q 648 -233 636 -229 q 715 -245 680 -245 m 163 956 q 237 1040 163 1040 l 264 1040 q 303 1033 292 1040 q 341 994 323 1021 l 778 351 q 817 284 803 315 l 845 226 q 847 224 846 224 q 848 242 849 224 q 841 293 846 260 q 836 360 836 327 l 836 998 q 846 1028 836 1016 q 871 1040 857 1040 l 961 1040 q 986 1028 975 1040 q 996 998 996 1016 l 996 68 q 979 26 996 41 q 928 0 951 0 l 886 0 q 837 11 852 0 q 780 77 814 28 q 365 689 393 644 l 309 783 q 305 785 307 785 q 304 775 302 785 q 310 741 307 765 q 317 688 314 717 q 324 562 324 620 l 324 41 q 314 12 324 24 q 288 0 303 0 l 199 0 q 174 12 184 0 q 163 41 163 24 l 163 956 z "},"":{"ha":925,"x_min":125,"x_max":802,"o":"m 567 -244 q 637 -116 637 -244 l 637 467 q 509 640 637 640 q 373 582 435 640 q 307 441 307 521 l 307 45 q 296 13 307 26 q 260 0 284 0 l 191 0 q 155 13 167 0 q 142 45 142 26 l 142 461 q 134 651 142 597 q 125 716 125 705 q 172 765 125 765 l 209 765 q 260 736 247 765 q 293 629 279 696 q 553 782 385 782 q 790 591 752 782 q 802 466 802 534 l 802 -89 q 743 -311 802 -232 q 593 -385 689 -385 q 467 -350 513 -385 q 441 -307 441 -329 q 450 -267 441 -296 q 466 -226 458 -238 q 487 -214 474 -214 q 508 -218 499 -214 q 526 -229 517 -223 q 567 -244 550 -244 z "},"":{"ha":1159,"x_min":78,"x_max":1081,"o":"m 138 257 q 123 287 138 257 q 93 386 109 317 q 78 549 78 455 q 114 740 78 643 q 217 907 151 837 q 581 1057 357 1057 q 953 904 818 1057 q 1081 527 1081 760 q 940 141 1081 296 q 781 25 873 68 q 592 -17 688 -17 q 430 3 497 -17 q 308 59 363 23 q 210 146 252 96 q 138 257 167 196 m 262 532 q 280 384 262 454 q 338 259 299 314 q 578 139 423 139 q 819 254 734 139 q 897 528 897 359 q 818 789 897 686 q 579 901 730 901 q 347 797 433 901 q 262 532 262 694 m 402 1162 q 382 1170 391 1162 q 373 1188 373 1177 l 373 1284 q 382 1302 373 1295 q 402 1310 391 1310 l 753 1310 q 774 1302 766 1310 q 783 1284 783 1295 l 783 1187 q 774 1170 783 1177 q 753 1162 766 1162 l 402 1162 z "},"":{"ha":926,"x_min":81,"x_max":846,"o":"m 81 385 q 111 547 81 473 q 192 673 140 621 q 464 782 300 782 q 749 673 648 782 q 846 384 846 568 q 736 94 846 206 q 464 -17 628 -17 q 186 96 291 -17 q 81 385 81 207 m 299 558 q 287 539 299 558 q 262 472 274 520 q 251 375 251 425 q 264 281 251 326 q 304 201 277 236 q 467 123 362 123 q 628 199 573 123 q 677 380 677 266 q 564 617 677 552 q 464 641 523 641 q 365 618 406 641 q 299 558 325 595 m 291 930 q 271 937 279 930 q 262 956 262 944 l 262 1044 q 271 1062 262 1055 q 291 1069 279 1069 l 642 1069 q 663 1062 654 1069 q 672 1043 672 1055 l 672 955 q 663 937 672 944 q 642 930 654 930 l 291 930 z "},"":{"ha":1159,"x_min":78,"x_max":1081,"o":"m 138 257 q 123 287 138 257 q 93 386 109 317 q 78 549 78 455 q 114 740 78 643 q 217 907 151 837 q 581 1057 357 1057 q 953 904 818 1057 q 1081 527 1081 760 q 940 141 1081 296 q 781 25 873 68 q 592 -17 688 -17 q 430 3 497 -17 q 308 59 363 23 q 210 146 252 96 q 138 257 167 196 m 262 532 q 280 384 262 454 q 338 259 299 314 q 578 139 423 139 q 819 254 734 139 q 897 528 897 359 q 818 789 897 686 q 579 901 730 901 q 347 797 433 901 q 262 532 262 694 m 578 1127 q 486 1142 528 1127 q 412 1182 444 1156 q 342 1322 342 1238 q 378 1347 342 1345 l 452 1350 q 479 1329 477 1352 q 517 1257 482 1279 q 576 1242 541 1242 q 661 1279 636 1242 q 675 1318 672 1295 q 711 1350 678 1352 l 775 1347 q 808 1318 808 1344 q 744 1184 808 1239 q 578 1127 677 1127 z "},"":{"ha":926,"x_min":81,"x_max":846,"o":"m 81 385 q 111 547 81 473 q 192 673 140 621 q 464 782 300 782 q 749 673 648 782 q 846 384 846 568 q 736 94 846 206 q 464 -17 628 -17 q 186 96 291 -17 q 81 385 81 207 m 299 558 q 287 539 299 558 q 262 472 274 520 q 251 375 251 425 q 264 281 251 326 q 304 201 277 236 q 467 123 362 123 q 628 199 573 123 q 677 380 677 266 q 564 617 677 552 q 464 641 523 641 q 365 618 406 641 q 299 558 325 595 m 323 1120 l 338 1121 q 366 1100 363 1121 q 469 989 375 989 q 570 1097 559 989 q 602 1121 572 1121 l 665 1118 q 699 1089 699 1115 q 635 941 699 1003 q 468 875 568 875 q 250 1007 309 875 q 233 1073 233 1045 q 239 1108 233 1100 q 269 1118 245 1116 l 323 1120 z "},"":{"ha":1159,"x_min":78,"x_max":1081,"o":"m 138 257 q 123 287 138 257 q 93 386 109 317 q 78 549 78 455 q 114 740 78 643 q 217 907 151 837 q 581 1057 357 1057 q 953 904 818 1057 q 1081 527 1081 760 q 940 141 1081 296 q 781 25 873 68 q 592 -17 688 -17 q 430 3 497 -17 q 308 59 363 23 q 210 146 252 96 q 138 257 167 196 m 262 532 q 280 384 262 454 q 338 259 299 314 q 578 139 423 139 q 819 254 734 139 q 897 528 897 359 q 818 789 897 686 q 579 901 730 901 q 347 797 433 901 q 262 532 262 694 m 684 1156 q 677 1177 677 1166 q 688 1196 677 1189 l 886 1341 q 910 1350 897 1350 q 947 1333 934 1350 l 983 1280 q 990 1256 990 1268 q 969 1220 990 1230 l 751 1112 q 728 1106 740 1106 q 709 1118 717 1106 l 684 1156 m 441 1112 q 418 1105 429 1105 q 395 1118 406 1105 l 372 1144 q 363 1161 363 1154 q 372 1183 363 1172 l 534 1335 q 567 1350 549 1350 q 594 1340 584 1350 l 640 1294 q 654 1262 654 1280 q 631 1228 654 1244 l 441 1112 z "},"":{"ha":926,"x_min":81,"x_max":865,"o":"m 81 385 q 111 547 81 473 q 192 673 140 621 q 464 782 300 782 q 749 673 648 782 q 846 384 846 568 q 736 94 846 206 q 464 -17 628 -17 q 186 96 291 -17 q 81 385 81 207 m 299 558 q 287 539 299 558 q 262 472 274 520 q 251 375 251 425 q 264 281 251 326 q 304 201 277 236 q 467 123 362 123 q 628 199 573 123 q 677 380 677 266 q 564 617 677 552 q 464 641 523 641 q 365 618 406 641 q 299 558 325 595 m 581 915 q 574 929 574 921 q 586 956 574 943 l 738 1147 q 768 1168 754 1168 q 809 1150 788 1168 l 854 1108 q 865 1085 865 1097 q 837 1038 865 1063 l 659 876 q 638 868 650 868 q 618 877 627 868 l 581 915 m 368 878 q 346 869 358 869 q 325 877 334 869 l 292 906 q 283 922 283 914 q 293 949 283 937 l 425 1144 q 459 1168 441 1168 q 492 1156 477 1168 l 538 1119 q 553 1093 553 1107 q 532 1048 553 1069 l 368 878 z "},"":{"ha":1501,"x_min":78,"x_max":1410,"o":"m 771 0 q 581 -17 665 -17 q 431 3 498 -17 q 308 60 363 24 q 210 147 253 96 q 138 258 168 197 q 78 513 78 382 q 114 742 78 645 q 217 908 151 838 q 581 1057 357 1057 q 773 1040 687 1057 l 1371 1040 q 1397 1028 1388 1040 q 1407 1001 1407 1017 l 1407 928 q 1397 901 1407 912 q 1371 890 1388 890 l 907 890 l 907 593 l 1276 593 q 1302 582 1293 593 q 1312 554 1312 570 l 1312 481 q 1302 454 1312 465 q 1276 443 1293 443 l 907 443 l 907 150 l 1374 150 q 1401 139 1392 150 q 1410 111 1410 127 l 1410 38 q 1401 11 1410 22 q 1374 0 1392 0 l 771 0 m 736 889 q 582 909 659 909 q 447 881 505 909 q 347 802 388 852 q 262 530 262 697 q 336 259 262 368 q 576 130 421 138 q 736 149 641 127 l 736 889 z "},"":{"ha":1386,"x_min":81,"x_max":1308,"o":"m 746 121 q 464 -17 647 -17 q 186 96 291 -17 q 81 384 81 207 q 192 673 81 561 q 464 782 300 782 q 757 646 667 782 q 1028 783 844 783 q 1229 721 1154 783 q 1308 541 1308 656 q 1217 368 1308 427 q 1004 317 1137 317 q 821 345 925 317 q 875 187 817 249 q 1041 123 935 123 q 1218 178 1128 123 q 1247 189 1235 189 q 1282 168 1272 189 l 1301 134 q 1307 106 1307 123 q 1293 72 1307 89 q 1257 41 1280 55 q 1206 16 1235 26 q 1146 -2 1177 5 q 1029 -17 1084 -17 q 746 121 829 -17 m 298 558 q 286 539 298 558 q 262 472 273 520 q 251 376 251 425 q 263 282 251 327 q 302 201 276 237 q 464 123 360 123 q 624 199 569 123 q 673 380 673 269 q 563 617 673 555 q 461 641 521 641 q 362 618 401 641 q 298 558 323 595 m 1148 543 q 1018 638 1148 638 q 891 592 939 638 q 828 465 844 547 q 906 444 862 450 q 977 438 950 438 q 1037 444 1004 438 q 1093 461 1069 449 q 1148 543 1148 489 z "},"":{"ha":1040,"x_min":159,"x_max":972,"o":"m 854 146 l 924 155 q 950 142 943 155 q 962 115 958 130 q 969 89 966 100 q 972 64 972 77 q 959 36 972 50 q 926 12 946 22 q 835 -12 882 -12 q 750 -1 788 -12 q 678 29 712 10 q 570 113 625 59 q 482 206 515 168 l 370 345 q 328 391 347 373 l 328 43 q 309 4 328 16 q 294 0 302 0 l 197 0 q 171 11 178 0 q 159 43 159 28 l 159 980 q 171 1022 159 1004 q 212 1040 184 1040 l 515 1040 q 918 721 918 1040 q 810 475 918 574 q 568 380 707 380 q 522 384 544 380 l 605 296 q 717 194 677 220 q 854 146 789 146 m 328 520 q 466 503 404 503 q 577 514 528 503 q 664 551 626 526 q 748 711 748 605 q 675 853 748 807 q 510 892 614 892 l 328 892 l 328 520 m 464 1106 q 425 1120 437 1097 l 404 1165 q 414 1197 394 1185 l 663 1340 q 694 1351 680 1351 q 728 1333 721 1351 l 765 1255 q 770 1235 770 1244 q 741 1200 770 1210 l 464 1106 z "},"":{"ha":578,"x_min":108,"x_max":578,"o":"m 108 716 q 151 765 108 765 l 187 765 q 240 732 224 765 q 273 602 262 685 q 274 600 273 600 q 278 623 275 600 q 298 680 281 646 q 338 736 314 713 q 456 782 386 782 q 564 756 534 782 q 576 724 578 745 l 565 639 q 530 604 561 604 q 493 610 515 604 q 427 621 451 621 q 375 600 402 621 q 328 547 348 578 q 288 405 288 480 l 288 45 q 277 13 288 26 q 246 0 267 0 l 168 0 q 135 13 146 0 q 123 45 123 26 l 123 512 q 116 670 123 631 q 108 716 108 708 m 277 874 q 256 869 268 869 q 239 878 245 869 l 205 924 q 201 940 201 931 q 214 962 201 949 l 424 1152 q 456 1168 441 1168 q 491 1153 479 1168 l 542 1088 q 549 1067 550 1078 q 523 1024 549 1040 l 277 874 z "},"":{"ha":1040,"x_min":159,"x_max":972,"o":"m 854 146 l 924 155 q 950 142 943 155 q 962 115 958 130 q 969 89 966 100 q 972 64 972 77 q 959 36 972 50 q 926 12 946 22 q 835 -12 882 -12 q 750 -1 788 -12 q 678 29 712 10 q 570 113 625 59 q 482 206 515 168 l 370 345 q 328 391 347 373 l 328 43 q 309 4 328 16 q 294 0 302 0 l 197 0 q 171 11 178 0 q 159 43 159 28 l 159 980 q 171 1022 159 1004 q 212 1040 184 1040 l 515 1040 q 918 721 918 1040 q 810 475 918 574 q 568 380 707 380 q 522 384 544 380 l 605 296 q 717 194 677 220 q 854 146 789 146 m 328 520 q 466 503 404 503 q 577 514 528 503 q 664 551 626 526 q 748 711 748 605 q 675 853 748 807 q 510 892 614 892 l 328 892 l 328 520 m 409 -178 q 404 -146 404 -164 q 412 -113 404 -128 q 435 -88 421 -98 q 493 -69 464 -69 q 542 -76 523 -69 q 575 -96 561 -83 q 607 -172 607 -126 q 536 -347 607 -245 q 479 -385 511 -385 q 460 -380 469 -385 l 437 -370 q 423 -351 423 -362 q 429 -327 423 -336 q 441 -305 435 -317 q 453 -279 447 -293 q 470 -227 469 -241 q 409 -178 426 -220 z "},"":{"ha":578,"x_min":108,"x_max":578,"o":"m 108 716 q 151 765 108 765 l 187 765 q 240 732 224 765 q 273 602 262 685 q 274 600 273 600 q 278 623 275 600 q 298 680 281 646 q 338 736 314 713 q 456 782 386 782 q 564 756 534 782 q 576 724 578 745 l 565 639 q 530 604 561 604 q 493 610 515 604 q 427 621 451 621 q 375 600 402 621 q 328 547 348 578 q 288 405 288 480 l 288 45 q 277 13 288 26 q 246 0 267 0 l 168 0 q 135 13 146 0 q 123 45 123 26 l 123 512 q 116 670 123 631 q 108 716 108 708 m 115 -177 q 109 -145 109 -163 q 118 -112 109 -127 q 141 -87 127 -97 q 199 -68 170 -68 q 248 -76 229 -68 q 281 -96 267 -83 q 313 -172 313 -125 q 242 -346 313 -245 q 184 -385 216 -385 q 165 -380 175 -385 l 143 -369 q 129 -351 129 -361 q 135 -326 129 -336 q 147 -304 141 -316 q 159 -278 153 -292 q 176 -227 174 -241 q 115 -177 132 -220 z "},"":{"ha":1040,"x_min":159,"x_max":972,"o":"m 854 146 l 924 155 q 950 142 943 155 q 962 115 958 130 q 969 89 966 100 q 972 64 972 77 q 959 36 972 50 q 926 12 946 22 q 835 -12 882 -12 q 750 -1 788 -12 q 678 29 712 10 q 570 113 625 59 q 482 206 515 168 l 370 345 q 328 391 347 373 l 328 43 q 309 4 328 16 q 294 0 302 0 l 197 0 q 171 11 178 0 q 159 43 159 28 l 159 980 q 171 1022 159 1004 q 212 1040 184 1040 l 515 1040 q 918 721 918 1040 q 810 475 918 574 q 568 380 707 380 q 522 384 544 380 l 605 296 q 717 194 677 220 q 854 146 789 146 m 328 520 q 466 503 404 503 q 577 514 528 503 q 664 551 626 526 q 748 711 748 605 q 675 853 748 807 q 510 892 614 892 l 328 892 l 328 520 m 444 1124 q 406 1140 423 1124 l 272 1261 q 260 1282 260 1270 q 270 1305 260 1295 l 297 1335 q 318 1345 307 1345 q 335 1341 328 1345 l 508 1228 l 676 1345 q 694 1351 684 1351 q 712 1342 704 1351 l 748 1303 q 754 1285 754 1296 q 745 1267 754 1274 l 604 1140 q 568 1124 587 1124 l 444 1124 z "},"":{"ha":578,"x_min":91,"x_max":578,"o":"m 108 716 q 151 765 108 765 l 187 765 q 240 732 224 765 q 273 602 262 685 q 274 600 273 600 q 278 623 275 600 q 298 680 281 646 q 338 736 314 713 q 456 782 386 782 q 564 756 534 782 q 576 724 578 745 l 565 639 q 530 604 561 604 q 493 610 515 604 q 427 621 451 621 q 375 600 402 621 q 328 547 348 578 q 288 405 288 480 l 288 45 q 277 13 288 26 q 246 0 267 0 l 168 0 q 135 13 146 0 q 123 45 123 26 l 123 512 q 116 670 123 631 q 108 716 108 708 m 288 868 q 229 900 256 868 l 100 1055 q 91 1075 91 1065 q 102 1097 91 1085 l 139 1135 q 179 1139 161 1156 l 323 1001 l 469 1141 q 491 1151 479 1151 q 511 1142 502 1151 l 553 1098 q 552 1061 570 1082 l 415 899 q 357 868 389 868 l 288 868 z "},"":{"ha":810,"x_min":75,"x_max":742,"o":"m 75 107 q 75 119 75 107 q 94 164 75 131 q 121 205 114 197 q 148 221 134 221 q 178 212 162 221 q 219 190 193 203 q 275 165 245 177 q 392 140 342 140 q 473 149 441 140 q 526 176 504 158 q 572 280 572 213 q 444 425 572 365 q 362 459 408 441 q 266 505 316 476 q 175 574 215 534 q 86 781 86 662 q 190 985 86 908 q 418 1057 287 1057 q 659 993 565 1057 q 711 930 711 959 q 692 880 711 914 q 663 833 674 845 q 642 821 652 821 q 598 839 625 821 q 519 879 570 857 q 423 901 469 901 q 350 893 378 901 q 302 871 323 886 q 260 778 260 839 q 381 638 260 690 l 447 611 q 648 498 579 560 q 742 289 742 413 q 637 64 742 151 q 412 -17 541 -17 q 129 52 245 -17 q 75 107 75 83 m 356 1106 q 317 1120 329 1097 l 296 1165 q 307 1197 286 1185 l 555 1340 q 586 1351 572 1351 q 621 1333 613 1351 l 657 1255 q 663 1235 663 1244 q 633 1200 663 1210 l 356 1106 z "},"":{"ha":694,"x_min":79,"x_max":626,"o":"m 337 122 q 467 210 467 122 q 393 291 467 258 q 325 317 362 305 q 254 347 288 330 q 191 384 220 363 q 140 429 161 404 q 95 567 95 484 q 180 728 95 669 q 365 782 255 782 q 562 736 483 782 q 589 699 589 720 q 573 633 589 669 q 536 597 557 597 q 497 606 515 597 q 466 622 480 615 q 437 632 452 628 q 374 642 403 642 q 328 638 345 642 q 296 625 310 634 q 261 574 261 604 q 275 527 261 543 q 313 497 289 511 q 372 470 338 484 l 445 439 q 565 370 534 401 q 626 225 626 307 q 555 56 626 122 q 334 -17 477 -17 q 115 39 188 -17 q 79 88 79 66 q 86 127 79 110 q 107 168 94 144 q 141 191 119 191 q 186 172 162 191 q 252 137 210 153 q 337 122 294 122 m 311 874 q 290 869 302 869 q 273 878 279 869 l 239 924 q 235 940 235 931 q 248 962 235 949 l 458 1152 q 490 1168 475 1168 q 525 1153 513 1168 l 576 1088 q 583 1067 584 1078 q 557 1024 583 1040 l 311 874 z "},"":{"ha":810,"x_min":75,"x_max":742,"o":"m 75 107 q 75 119 75 107 q 94 164 75 131 q 121 205 114 197 q 148 221 134 221 q 178 212 162 221 q 219 190 193 203 q 275 165 245 177 q 392 140 342 140 q 473 149 441 140 q 526 176 504 158 q 572 280 572 213 q 444 425 572 365 q 362 459 408 441 q 266 505 316 476 q 175 574 215 534 q 86 781 86 662 q 190 985 86 908 q 418 1057 287 1057 q 659 993 565 1057 q 711 930 711 959 q 692 880 711 914 q 663 833 674 845 q 642 821 652 821 q 598 839 625 821 q 519 879 570 857 q 423 901 469 901 q 350 893 378 901 q 302 871 323 886 q 260 778 260 839 q 381 638 260 690 l 447 611 q 648 498 579 560 q 742 289 742 413 q 637 64 742 151 q 412 -17 541 -17 q 129 52 245 -17 q 75 107 75 83 m 250 1128 q 232 1122 242 1122 q 214 1131 222 1122 l 178 1170 q 172 1188 172 1177 q 180 1206 172 1199 l 316 1329 q 352 1344 333 1344 l 476 1344 q 513 1329 496 1344 l 648 1208 q 659 1186 659 1199 q 650 1164 659 1174 l 623 1134 q 602 1123 612 1123 q 585 1128 591 1123 l 413 1240 l 250 1128 z "},"":{"ha":694,"x_min":79,"x_max":626,"o":"m 337 122 q 467 210 467 122 q 393 291 467 258 q 325 317 362 305 q 254 347 288 330 q 191 384 220 363 q 140 429 161 404 q 95 567 95 484 q 180 728 95 669 q 365 782 255 782 q 562 736 483 782 q 589 699 589 720 q 573 633 589 669 q 536 597 557 597 q 497 606 515 597 q 466 622 480 615 q 437 632 452 628 q 374 642 403 642 q 328 638 345 642 q 296 625 310 634 q 261 574 261 604 q 275 527 261 543 q 313 497 289 511 q 372 470 338 484 l 445 439 q 565 370 534 401 q 626 225 626 307 q 555 56 626 122 q 334 -17 477 -17 q 115 39 188 -17 q 79 88 79 66 q 86 127 79 110 q 107 168 94 144 q 141 191 119 191 q 186 172 162 191 q 252 137 210 153 q 337 122 294 122 m 186 873 q 165 882 176 873 l 127 914 q 115 934 115 924 q 124 956 115 945 l 258 1120 q 317 1151 283 1151 l 386 1151 q 445 1119 418 1151 l 574 956 q 583 933 583 944 q 571 913 583 922 l 535 884 q 512 872 521 872 q 495 880 503 872 l 350 1018 l 208 883 q 186 873 196 873 z "},"":{"ha":810,"x_min":75,"x_max":742,"o":"m 459 -14 q 543 -170 543 -87 q 495 -279 543 -237 q 359 -323 444 -323 q 269 -309 304 -323 q 205 -250 205 -282 q 208 -236 205 -242 q 216 -217 211 -230 q 248 -184 229 -184 q 266 -187 256 -184 l 288 -194 q 348 -205 323 -205 q 392 -186 372 -205 q 412 -143 412 -168 q 404 -101 412 -119 q 385 -67 397 -83 q 360 -37 374 -51 l 335 -13 q 129 52 216 1 q 75 110 75 83 q 94 164 75 131 q 121 205 114 197 q 148 221 134 221 q 178 212 162 221 q 219 190 193 203 q 275 165 245 177 q 392 140 342 140 q 473 149 441 140 q 526 176 504 158 q 572 280 572 213 q 444 425 572 365 q 362 459 408 441 q 266 505 316 476 q 175 574 215 534 q 86 781 86 662 q 190 985 86 908 q 418 1057 287 1057 q 659 993 565 1057 q 711 930 711 959 q 692 880 711 914 q 663 833 674 845 q 642 821 652 821 q 598 839 625 821 q 519 879 570 857 q 423 901 469 901 q 350 893 378 901 q 302 871 323 886 q 260 778 260 839 q 381 638 260 690 l 447 611 q 648 498 579 560 q 742 289 742 413 q 655 80 742 164 q 459 -14 576 3 z "},"":{"ha":694,"x_min":79,"x_max":626,"o":"m 404 -12 q 490 -170 490 -86 q 442 -279 490 -237 q 307 -323 391 -323 q 216 -309 251 -323 q 153 -250 153 -282 q 155 -236 153 -242 q 163 -217 158 -230 q 195 -184 176 -184 q 213 -187 203 -184 l 235 -194 q 295 -205 270 -205 q 339 -186 319 -205 q 359 -143 359 -168 q 352 -101 359 -119 q 334 -68 345 -84 q 284 -15 314 -41 q 115 39 174 -5 q 79 88 79 66 q 86 127 79 110 q 107 168 94 144 q 141 191 119 191 q 186 172 162 191 q 252 137 210 153 q 337 122 294 122 q 467 210 467 122 q 393 291 467 258 q 325 317 362 305 q 254 347 288 330 q 191 384 220 363 q 140 429 161 404 q 95 567 95 484 q 180 728 95 669 q 365 782 255 782 q 562 736 483 782 q 589 699 589 720 q 573 633 589 669 q 536 597 557 597 q 497 606 515 597 q 466 622 480 615 q 437 632 452 628 q 374 642 403 642 q 328 638 345 642 q 296 625 310 634 q 261 574 261 604 q 275 527 261 543 q 313 497 289 511 q 372 470 338 484 l 445 439 q 565 370 534 401 q 626 225 626 307 q 503 19 626 84 q 404 -12 461 -3 z "},"":{"ha":810,"x_min":75,"x_max":742,"o":"m 75 107 q 75 119 75 107 q 94 164 75 131 q 121 205 114 197 q 148 221 134 221 q 178 212 162 221 q 219 190 193 203 q 275 165 245 177 q 392 140 342 140 q 473 149 441 140 q 526 176 504 158 q 572 280 572 213 q 444 425 572 365 q 362 459 408 441 q 266 505 316 476 q 175 574 215 534 q 86 781 86 662 q 190 985 86 908 q 418 1057 287 1057 q 659 993 565 1057 q 711 930 711 959 q 692 880 711 914 q 663 833 674 845 q 642 821 652 821 q 598 839 625 821 q 519 879 570 857 q 423 901 469 901 q 350 893 378 901 q 302 871 323 886 q 260 778 260 839 q 381 638 260 690 l 447 611 q 648 498 579 560 q 742 289 742 413 q 637 64 742 151 q 412 -17 541 -17 q 129 52 245 -17 q 75 107 75 83 m 347 1124 q 310 1140 327 1124 l 176 1261 q 164 1282 164 1270 q 174 1305 164 1295 l 201 1335 q 221 1345 211 1345 q 239 1341 232 1345 l 412 1228 l 580 1345 q 597 1351 587 1351 q 616 1342 608 1351 l 652 1303 q 658 1285 658 1296 q 649 1267 658 1274 l 507 1140 q 471 1124 490 1124 l 347 1124 z "},"":{"ha":694,"x_min":79,"x_max":626,"o":"m 337 122 q 467 210 467 122 q 393 291 467 258 q 325 317 362 305 q 254 347 288 330 q 191 384 220 363 q 140 429 161 404 q 95 567 95 484 q 180 728 95 669 q 365 782 255 782 q 562 736 483 782 q 589 699 589 720 q 573 633 589 669 q 536 597 557 597 q 497 606 515 597 q 466 622 480 615 q 437 632 452 628 q 374 642 403 642 q 328 638 345 642 q 296 625 310 634 q 261 574 261 604 q 275 527 261 543 q 313 497 289 511 q 372 470 338 484 l 445 439 q 565 370 534 401 q 626 225 626 307 q 555 56 626 122 q 334 -17 477 -17 q 115 39 188 -17 q 79 88 79 66 q 86 127 79 110 q 107 168 94 144 q 141 191 119 191 q 186 172 162 191 q 252 137 210 153 q 337 122 294 122 m 313 868 q 254 900 282 868 l 126 1055 q 117 1075 117 1065 q 127 1097 117 1085 l 165 1135 q 205 1139 186 1156 l 349 1001 l 494 1141 q 516 1151 505 1151 q 536 1142 528 1151 l 579 1098 q 578 1061 595 1082 l 441 899 q 382 868 415 868 l 313 868 z "},"":{"ha":808,"x_min":30,"x_max":779,"o":"m 317 892 l 73 892 q 42 903 55 892 q 30 930 30 914 l 30 1002 q 42 1028 30 1017 q 73 1040 55 1040 l 743 1040 q 769 1028 760 1040 q 779 1001 779 1017 l 779 930 q 769 903 779 914 q 742 892 760 892 l 488 892 l 488 43 q 477 13 488 26 q 450 0 466 0 l 355 0 q 328 13 339 0 q 317 43 317 26 l 317 892 m 309 -178 q 304 -146 304 -164 q 313 -113 304 -128 q 336 -88 321 -98 q 394 -69 364 -69 q 442 -76 423 -69 q 475 -96 461 -83 q 507 -172 507 -126 q 437 -347 507 -245 q 379 -385 411 -385 q 360 -380 370 -385 l 338 -370 q 323 -351 323 -362 q 330 -327 323 -336 q 341 -305 336 -317 q 353 -279 347 -293 q 370 -227 369 -241 q 309 -178 326 -220 z "},"":{"ha":577,"x_min":43,"x_max":566,"o":"m 539 662 q 496 624 539 624 l 305 624 l 305 198 q 374 129 305 129 q 487 172 417 129 q 516 181 500 181 q 542 159 532 181 l 557 123 q 566 89 566 103 q 545 56 566 75 q 490 22 524 37 q 354 -12 415 -12 q 257 1 293 -12 q 197 39 222 14 q 142 191 142 92 l 142 624 l 85 624 q 43 663 43 624 l 43 701 q 51 726 43 717 q 83 739 59 734 l 151 759 l 176 918 q 213 963 184 963 l 269 963 q 295 950 285 963 q 305 918 305 938 l 305 765 l 496 765 q 539 728 539 765 l 539 662 m 192 -178 q 186 -146 186 -164 q 195 -113 186 -128 q 218 -88 204 -98 q 276 -69 247 -69 q 325 -76 306 -69 q 358 -96 344 -83 q 390 -172 390 -126 q 319 -347 390 -245 q 262 -385 294 -385 q 243 -380 252 -385 l 220 -370 q 206 -351 206 -362 q 212 -327 206 -336 q 224 -305 218 -317 q 236 -279 230 -293 q 253 -227 252 -241 q 192 -178 209 -220 z "},"":{"ha":808,"x_min":30,"x_max":779,"o":"m 317 892 l 73 892 q 42 903 55 892 q 30 930 30 914 l 30 1002 q 42 1028 30 1017 q 73 1040 55 1040 l 743 1040 q 769 1028 760 1040 q 779 1001 779 1017 l 779 930 q 769 903 779 914 q 742 892 760 892 l 488 892 l 488 43 q 477 13 488 26 q 450 0 466 0 l 355 0 q 328 13 339 0 q 317 43 317 26 l 317 892 m 344 1124 q 307 1140 323 1124 l 172 1261 q 161 1282 161 1270 q 170 1305 161 1295 l 197 1335 q 218 1345 208 1345 q 235 1341 229 1345 l 408 1228 l 576 1345 q 594 1351 584 1351 q 612 1342 604 1351 l 648 1303 q 654 1285 654 1296 q 646 1267 654 1274 l 504 1140 q 468 1124 487 1124 l 344 1124 z "},"":{"ha":577,"x_min":43,"x_max":578,"o":"m 539 662 q 496 624 539 624 l 305 624 l 305 198 q 374 129 305 129 q 487 172 417 129 q 516 181 500 181 q 542 159 532 181 l 557 123 q 566 89 566 103 q 545 56 566 75 q 490 22 524 37 q 354 -12 415 -12 q 257 1 293 -12 q 197 39 222 14 q 142 191 142 92 l 142 624 l 85 624 q 43 663 43 624 l 43 701 q 51 726 43 717 q 83 739 59 734 l 151 759 l 176 918 q 213 963 184 963 l 269 963 q 295 950 285 963 q 305 918 305 938 l 305 765 l 496 765 q 539 728 539 765 l 539 662 m 443 1038 q 391 1122 391 1054 q 449 1203 391 1181 q 487 1210 466 1210 q 525 1201 508 1210 q 554 1177 542 1192 q 578 1114 578 1147 q 571 1054 578 1081 q 554 1000 565 1027 q 509 907 531 940 q 480 867 487 873 q 454 850 465 850 q 420 859 437 850 q 394 886 394 871 q 401 912 394 895 l 414 941 q 443 1038 434 989 z "},"":{"ha":808,"x_min":30,"x_max":779,"o":"m 317 418 l 183 418 q 163 425 172 418 q 154 444 154 432 l 154 534 q 163 552 154 545 q 183 559 172 559 l 317 559 l 317 892 l 73 892 q 42 903 55 892 q 30 930 30 914 l 30 1002 q 42 1028 30 1017 q 73 1040 55 1040 l 743 1040 q 769 1028 760 1040 q 779 1001 779 1017 l 779 930 q 769 903 779 914 q 742 892 760 892 l 488 892 l 488 559 l 625 559 q 646 552 637 559 q 654 533 654 545 l 654 443 q 646 425 654 432 q 625 418 637 418 l 488 418 l 488 43 q 477 13 488 26 q 450 0 466 0 l 355 0 q 328 13 339 0 q 317 43 317 26 l 317 418 z "}}}
